<svg width="42" height="42" viewBox="0 0 42 42" fill="none" xmlns="http://www.w3.org/2000/svg">
<g clip-path="url(#clip0_26_2)">
<path d="M40.32 0H1.68C0.75075 0 0 0.75075 0 1.68V40.32C0 41.2492 0.75075 42 1.68 42H40.32C41.2492 42 42 41.2492 42 40.32V1.68C42 0.75075 41.2492 0 40.32 0ZM35.469 12.2587H32.1143C29.484 12.2587 28.9748 13.5082 28.9748 15.3457V18.3935C28.9748 18.9458 29.4225 19.3935 29.9748 19.3935H34.1162C34.7194 19.3935 35.1852 19.9235 35.1079 20.5217L34.5474 24.8584C34.483 25.357 34.0584 25.7302 33.5557 25.7302H29.9747C29.4225 25.7302 28.9748 26.178 28.9748 26.7302V41C28.9748 41.5523 28.527 42 27.9748 42H23.428C22.8757 42 22.428 41.5523 22.428 41V26.7355C22.428 26.1832 21.9803 25.7355 21.428 25.7355H17.9522C17.4 25.7355 16.9522 25.2878 16.9522 24.7355V20.3935C16.9522 19.8412 17.4 19.3935 17.9522 19.3935H21.428C21.9803 19.3935 22.428 18.9458 22.428 18.3935V14.721C22.428 9.29775 25.7407 6.342 30.5812 6.342C32.2095 6.342 33.6749 6.4273 34.6057 6.5054C35.1044 6.54726 35.4743 6.96742 35.4743 7.46795V12.2535C35.4743 12.2564 35.4719 12.2587 35.469 12.2587Z" fill="white"/>
</g>
<defs>
<clipPath id="clip0_26_2">
<rect width="42" height="42" fill="white"/>
</clipPath>
</defs>
</svg>
