<svg width="123" height="122" viewBox="0 0 123 122" fill="none" xmlns="http://www.w3.org/2000/svg">
<path d="M0.333313 99.6682C2.44912 99.6956 4.57085 99.617 6.68467 99.6956C8.76697 99.7451 10.8985 101.52 10.6402 103.728C10.8512 105.357 9.68583 106.647 8.31147 107.311C9.84952 107.986 10.8867 109.563 10.6363 111.267C10.8078 113.355 8.86162 114.932 6.96269 115.222H0.333313V99.6682ZM4.04631 102.961C4.08576 103.851 4.08576 104.741 4.04631 105.631C5.1821 105.984 7.08103 105.69 7.0041 104.156C6.79511 102.77 5.12296 102.703 4.04631 102.961ZM4.09366 108.788C4.07787 109.713 4.07 110.64 4.05814 111.564C5.1821 111.683 7.09286 111.712 6.99424 110.115C6.8779 108.618 5.1821 108.729 4.09366 108.788Z" fill="#004282"/>
<path d="M17.0231 99.6997C18.6006 99.6366 20.1919 99.6719 21.7812 99.68C23.199 104.807 24.9362 109.849 26.4525 114.944C25.1491 114.916 23.8477 114.944 22.5443 114.905C22.3649 114.396 22.1874 113.889 22.0119 113.388C20.2766 113.343 18.5395 113.365 16.8082 113.372C16.6267 113.892 16.4427 114.412 16.256 114.932C14.9625 114.932 13.667 114.932 12.3715 114.944C13.8937 109.853 15.6014 104.821 17.0231 99.6997ZM17.9164 109.527C18.8937 109.593 19.8741 109.6 20.8525 109.551C20.4876 108.102 19.7423 106.627 19.413 105.166C19.3124 105.209 18.3502 108.161 17.9164 109.527Z" fill="#004282"/>
<path d="M28.3394 99.6641C30.8851 99.7668 33.6497 99.2836 35.9783 100.581C37.0265 101.084 37.9198 101.859 38.5654 102.826C39.211 103.792 39.5851 104.914 39.6482 106.075C39.7427 107.914 39.7468 109.884 38.7904 111.525C37.765 113.663 35.4737 114.936 33.1883 115.222H28.3355C28.3355 110.031 28.3368 104.845 28.3394 99.6641ZM32.0347 103.521C32.0347 106.035 32.0544 108.545 32.0347 111.06C33.3066 111.04 34.6967 110.555 35.387 109.419C36.0593 108.455 35.8916 107.203 35.8048 106.098C35.4439 104.411 33.7049 103.371 32.0347 103.521Z" fill="#004282"/>
<path d="M44.5932 101.153C44.8301 100.623 44.6881 99.5143 45.5614 99.6682C46.9122 99.6997 48.2708 99.5892 49.6098 99.7234C51.3588 104.748 52.7194 109.896 54.4508 114.928C53.1197 114.928 51.7946 114.96 50.4675 114.897C50.296 114.38 50.1144 113.868 49.9273 113.359C48.2156 113.359 46.5042 113.392 44.7904 113.339C44.5983 113.858 44.4383 114.389 44.3113 114.928C43.0869 114.928 41.6256 114.897 40.287 114.928C41.7598 110.354 43.154 105.745 44.5932 101.153ZM45.8949 109.586L48.7876 109.571C48.4325 108.072 47.896 106.631 47.4328 105.166C46.8492 106.449 46.3758 108.118 45.8949 109.586Z" fill="#004282"/>
<path d="M56.3144 99.6051C56.6478 99.6051 57.0874 99.6051 57.3615 99.6051C59.4555 101.837 61.9125 104.651 64.1091 106.781C64.1091 104.4 64.1308 102.048 64.1308 99.5675C65.3142 99.6068 66.4973 99.599 67.6804 99.5912C67.6804 104.751 67.6407 109.882 67.696 115.043H66.7871C64.4643 112.639 62.2697 110.038 59.8598 107.717C60.0296 110.156 59.8361 112.604 59.9547 115.043C58.7439 115.07 57.5337 115.07 56.3245 115.043C56.3225 109.904 56.3855 104.758 56.3144 99.6051Z" fill="#004282"/>
<path d="M74.5503 99.6682C76.6426 99.7153 78.7722 99.4926 80.8289 99.9657C82.1797 100.4 83.5539 101.171 84.2144 102.484C85.2833 104.456 85.1077 107.073 83.7217 108.839C82.3827 110.46 80.1721 110.811 78.2005 110.997C78.232 112.402 78.2357 113.812 78.232 115.222H74.5503C74.5503 110.04 74.5503 104.856 74.5503 99.6682ZM78.2279 102.858C78.2279 104.184 78.2279 105.507 78.2083 106.834C79.5235 107.124 81.2983 106.473 81.2312 104.896C81.3318 103.318 79.5669 102.581 78.2279 102.858Z" fill="#00A651"/>
<path d="M91.9146 99.9895C94.0839 99.4296 96.5703 99.5303 98.4654 100.843C102.192 103.012 103.267 108.478 100.701 111.91C98.4732 115.315 93.4251 116.248 90.0809 113.98C87.8802 112.539 86.3914 109.928 86.569 107.276C86.4982 104.006 88.8762 101.023 91.9146 99.9895ZM92.6385 103.886C92.0665 104.187 91.569 104.611 91.182 105.129C90.7953 105.646 90.5289 106.244 90.4022 106.877C90.0297 109.182 92.1376 111.517 94.4665 111.393C96.8445 111.349 98.7907 108.829 98.1085 106.512C97.6666 104.129 94.7681 102.843 92.6385 103.886Z" fill="#00A651"/>
<path d="M105.191 99.7591C106.374 99.7038 107.551 99.7038 108.722 99.7591C109.552 101.948 110.481 104.097 111.297 106.294C112.283 104.156 113.06 101.92 113.973 99.7472C115.14 99.6998 116.314 99.6957 117.481 99.7472C118.203 104.677 118.735 109.634 119.49 114.564V115.222H115.291C114.977 112.958 114.829 110.687 114.571 108.415C113.388 110.616 112.478 112.951 111.441 115.222H111.331C110.199 113.018 109.245 110.727 108.239 108.463C107.716 110.675 107.78 112.982 107.413 115.222H103.075C103.931 110.087 104.427 104.907 105.191 99.7591Z" fill="#00A651"/>
<path d="M51.0853 93.3208C51.0853 93.3208 60.4515 90.6724 70.5809 70.0842C76.6938 57.6497 80.7754 40.4275 81.5701 15.8582C77.2004 18.7055 72.334 22.2134 72.334 22.2134C72.334 22.2134 71.2435 32.8733 61.5773 49.4252C51.9115 65.9769 37.4813 70.8731 24.3724 55.9126C24.3724 55.9126 29.239 76.4397 51.0853 93.3208Z" fill="#004282"/>
<path d="M59.6412 88.0243C59.6412 88.0243 85.1453 70.0805 91.0491 9.41809L83.6546 14.4759C83.6546 14.4759 84.4493 64.5238 59.6412 88.0243Z" fill="#00A651"/>
<path d="M59.8995 87.8312C59.8995 87.8312 91.0549 67.304 94.906 6.7876L93.2831 7.89973C93.2831 7.89973 90.2426 62.8022 59.8995 87.8312Z" fill="#004282"/>
</svg>
