<svg width="280" height="122" viewBox="0 0 280 122" fill="none" xmlns="http://www.w3.org/2000/svg">
<path fill-rule="evenodd" clip-rule="evenodd" d="M74.1662 29.9875L78.6234 25.5288V59.8109H44.3505L67.1331 37.0223L74.1662 29.9875ZM81.6943 22.4573L82.3876 21.7637C89.0244 15.1253 99.9201 15.1253 106.557 21.7637L106.755 21.9619C113.392 28.6004 113.392 39.4003 106.755 46.0386L92.9866 59.8109H81.6943V22.4573ZM93.0854 62.9814L106.062 75.9614C112.698 82.5996 112.698 93.3995 106.062 100.038L105.764 100.236C99.128 106.875 88.3307 106.875 81.6943 100.236V62.9814H93.0854ZM78.6234 97.2639L44.4497 62.9814H78.6234V97.2639Z" fill="#C6D80A"/>
<path fill-rule="evenodd" clip-rule="evenodd" d="M0.666632 60.9008V60.6036C0.666632 50.2993 9.08628 41.8773 19.388 41.8773H39.1988V79.7263H19.388C9.08628 79.7263 0.666632 71.2054 0.666632 60.9008ZM60.2976 0.659424H60.5947C70.9954 0.659424 79.4151 9.08134 79.4151 19.3858V20.4757L41.5763 58.4238V19.3858C41.5763 9.08134 49.9957 0.659424 60.2976 0.659424ZM79.4151 101.425V102.614C79.4151 112.918 70.9954 121.34 60.5947 121.34H60.2976C49.9957 121.34 41.5763 112.918 41.5763 102.614V63.9725L79.4151 101.425Z" fill="#00A0A4"/>
<path fill-rule="evenodd" clip-rule="evenodd" d="M133.201 35.0407V17.4042H136.074V25.2316L142.017 17.4042H145.98L140.532 24.2408L146.178 35.0407H142.414L138.451 26.7178L136.074 29.6903V35.0407H133.201ZM133.003 106.28V89.4362H136.074V106.28H133.003ZM138.947 106.28V89.4362H141.918L148.159 100.732V89.4362H151.031V106.28H147.961L141.819 95.1829V106.28H138.947ZM154.201 89.4362H159.748C161.036 89.4362 162.026 89.5354 162.621 89.8326C163.512 90.031 164.305 90.6253 164.899 91.3188C165.592 92.1116 166.088 93.0031 166.385 94.093C166.682 95.0841 166.88 96.4712 166.88 98.0562C166.88 99.4437 166.682 100.632 166.385 101.624C165.988 102.812 165.493 103.803 164.8 104.596C164.305 105.091 163.512 105.587 162.621 105.884C162.026 106.181 161.135 106.28 159.946 106.28H154.201V89.4362ZM157.272 92.3096V103.407H159.55C160.442 103.407 161.036 103.407 161.432 103.308C161.927 103.109 162.323 102.911 162.621 102.515C162.918 102.218 163.215 101.722 163.413 100.93C163.611 100.236 163.71 99.1461 163.71 97.8583C163.71 96.5704 163.611 95.5793 163.413 94.8857C163.215 94.1922 162.918 93.5978 162.522 93.3007C162.225 92.9043 161.729 92.6067 161.135 92.5079C160.739 92.4088 159.847 92.3096 158.659 92.3096H157.272ZM168.861 97.9574C168.861 96.2728 169.059 94.7866 169.554 93.6966C169.852 92.8051 170.347 92.0124 170.941 91.3188C171.536 90.6253 172.229 90.1298 172.922 89.8326C173.814 89.4362 174.904 89.139 176.191 89.139C178.37 89.139 180.153 89.9318 181.54 91.5168C182.828 93.0031 183.521 95.1829 183.521 97.8583C183.521 100.632 182.828 102.713 181.54 104.298C180.153 105.785 178.37 106.577 176.191 106.577C173.913 106.577 172.13 105.785 170.842 104.298C169.456 102.713 168.861 100.632 168.861 97.9574ZM172.031 97.8583C172.031 99.7409 172.427 101.227 173.219 102.218C174.012 103.209 175.002 103.704 176.191 103.704C177.38 103.704 178.37 103.209 179.163 102.218C179.955 101.227 180.351 99.7409 180.351 97.7591C180.351 95.8764 179.955 94.4894 179.262 93.4986C178.47 92.5079 177.479 92.1116 176.191 92.1116C174.904 92.1116 173.913 92.5079 173.121 93.4986C172.328 94.4894 172.031 95.8764 172.031 97.8583ZM185.898 106.28V89.4362H188.87L195.111 100.732V89.4362H197.884V106.28H194.813L188.672 95.1829V106.28H185.898ZM201.153 106.28V89.4362H212.346V92.3096H204.224V96.0748H211.752V98.849H204.224V103.407H212.643V106.28H201.153ZM214.426 100.831L217.398 100.534C217.596 101.624 217.893 102.416 218.488 102.911C218.983 103.407 219.775 103.704 220.667 103.704C221.657 103.704 222.351 103.506 222.846 103.011C223.341 102.515 223.639 102.019 223.639 101.425C223.639 101.029 223.539 100.632 223.341 100.335C223.143 100.137 222.747 99.8397 222.251 99.6417C221.856 99.5425 221.063 99.2453 219.775 98.9482C218.19 98.4526 217.002 97.9574 216.308 97.2639C215.417 96.372 214.922 95.1829 214.922 93.895C214.922 93.0031 215.219 92.2108 215.615 91.418C216.011 90.7245 216.705 90.1298 217.497 89.7334C218.289 89.3374 219.28 89.139 220.468 89.139C222.351 89.139 223.737 89.6346 224.728 90.5261C225.719 91.5168 226.214 92.7059 226.214 94.2914L223.143 94.3906C223.044 93.5978 222.747 92.9043 222.351 92.5079C221.954 92.2108 221.261 92.0124 220.468 92.0124C219.577 92.0124 218.884 92.2108 218.388 92.6067C218.091 92.8051 217.893 93.2015 217.893 93.5978C217.893 93.9942 217.992 94.3906 218.289 94.6877C218.686 94.9849 219.676 95.3813 221.162 95.7776C222.648 96.174 223.737 96.5704 224.431 96.9663C225.124 97.3627 225.719 97.9574 226.115 98.7498C226.511 99.4437 226.709 100.335 226.709 101.326C226.709 102.317 226.412 103.209 225.917 104.1C225.52 104.893 224.827 105.587 223.936 105.983C223.044 106.379 221.954 106.577 220.667 106.577C218.686 106.577 217.299 106.082 216.209 105.091C215.219 104.1 214.625 102.713 214.426 100.831ZM229.185 106.28V89.4362H232.256V106.28H229.185ZM248.798 106.28H245.43L244.143 102.416H238.101L236.813 106.28H233.643L239.487 89.4362H242.657L248.798 106.28ZM243.152 99.6417L241.072 93.3995L238.992 99.6417H243.152ZM133.102 82.8968V65.2604H138.947C140.432 65.2604 141.522 65.3596 142.215 65.6568C142.909 66.0531 143.404 66.5487 143.8 67.4402C144.197 68.2329 144.395 69.1245 144.395 70.2144C144.395 71.5026 144.098 72.5925 143.503 73.4841C142.909 74.2768 142.017 74.8715 140.73 75.0695C141.324 75.5651 141.819 76.0602 142.215 76.5558C142.612 77.0513 143.206 78.042 143.8 79.4291L145.484 82.8968H142.215L140.234 79.0328C139.442 77.6457 138.947 76.7538 138.749 76.4566C138.451 76.0602 138.154 75.8622 137.857 75.6639C137.56 75.5651 137.064 75.4659 136.47 75.4659H135.876V82.8968H133.102ZM135.876 72.6917H137.956C139.343 72.6917 140.135 72.5925 140.432 72.4934C140.829 72.2954 141.027 72.097 141.225 71.7006C141.423 71.4035 141.522 70.9083 141.522 70.4127C141.522 69.8184 141.423 69.3228 141.126 68.9265C140.928 68.6293 140.532 68.3321 140.135 68.2329C139.838 68.2329 139.244 68.2329 138.055 68.2329H135.876V72.6917ZM147.069 82.8968V65.2604H157.272V68.2329H149.843V72.097H156.777V75.0695H149.843V79.9247H157.569V82.8968H147.069ZM159.946 82.8968V65.2604H164.404C166.088 65.2604 167.177 65.3596 167.673 65.4588C168.465 65.756 169.158 66.3503 169.654 67.2422C170.248 68.1337 170.446 69.2237 170.446 70.6107C170.446 71.7006 170.347 72.6917 170.05 73.3853C169.753 74.0788 169.356 74.6732 168.861 75.1687C168.366 75.5651 167.871 75.8622 167.375 75.9614C166.781 76.1594 165.791 76.2586 164.503 76.2586H162.72V82.8968H159.946ZM162.72 68.2329V73.1869H164.205C165.295 73.1869 166.088 73.1869 166.385 72.9889C166.781 72.7905 167.078 72.4934 167.276 72.097C167.474 71.7006 167.573 71.2055 167.573 70.7099C167.573 70.0164 167.474 69.5208 167.177 69.1245C166.88 68.7285 166.484 68.4309 166.088 68.3321C165.691 68.2329 165.097 68.2329 164.008 68.2329H162.72ZM172.823 65.2604H175.597V74.7723C175.597 76.2586 175.597 77.2493 175.696 77.7449C175.795 78.4384 176.092 79.0328 176.488 79.4291C176.984 79.9247 177.578 80.1227 178.37 80.1227C179.163 80.1227 179.757 79.9247 180.153 79.5283C180.55 79.1319 180.748 78.6364 180.847 77.9429C180.946 77.3485 180.946 76.3574 180.946 74.9703V65.2604H183.719V74.4752C183.719 76.655 183.719 78.1412 183.521 79.0328C183.422 79.8255 183.125 80.6182 182.729 81.2126C182.333 81.8069 181.738 82.3025 181.045 82.6988C180.45 82.996 179.559 83.1944 178.47 83.1944C177.083 83.1944 176.092 82.996 175.399 82.5996C174.804 82.2033 174.21 81.7081 173.814 81.1134C173.418 80.4198 173.219 79.8255 173.022 79.1319C172.823 78.1412 172.823 76.655 172.823 74.6732V65.2604ZM186.691 65.2604H192.238C193.328 65.2604 194.12 65.2604 194.715 65.3596C195.21 65.5576 195.705 65.756 196.101 66.1523C196.597 66.4495 196.894 66.9447 197.191 67.6386C197.488 68.2329 197.587 68.9265 197.587 69.62C197.587 70.5119 197.488 71.2055 197.092 71.899C196.795 72.5925 196.299 73.0877 195.705 73.4841C196.497 73.7816 197.191 74.2768 197.587 75.0695C198.082 75.8622 198.28 76.7538 198.28 77.7449C198.28 78.5372 198.181 79.3299 197.884 80.1227C197.587 80.8162 197.191 81.4106 196.695 81.9061C196.2 82.4017 195.507 82.5996 194.813 82.798C194.318 82.798 193.229 82.8968 191.446 82.8968H186.691V65.2604ZM189.564 68.1338V72.1962H191.347C192.436 72.1962 193.13 72.1962 193.328 72.1962C193.823 72.097 194.219 71.899 194.516 71.5026C194.813 71.2055 194.912 70.7099 194.912 70.1156C194.912 69.62 194.813 69.2237 194.516 68.8273C194.318 68.5301 193.922 68.3321 193.526 68.2329C193.229 68.1338 192.436 68.1338 191.149 68.1338H189.564ZM189.564 75.1687V79.9247H192.139C193.13 79.9247 193.724 79.8255 194.021 79.8255C194.417 79.7263 194.813 79.4291 195.012 79.0328C195.309 78.7356 195.408 78.24 195.408 77.5465C195.408 77.0513 195.309 76.5558 195.111 76.2586C194.912 75.8622 194.615 75.5651 194.219 75.3667C193.823 75.2675 193.03 75.1687 191.743 75.1687H189.564ZM200.757 82.8968V65.3596H203.53V79.9247H210.464V82.8968H200.757ZM212.346 82.8968V65.2604H215.12V82.8968H212.346ZM217.893 82.8968V65.2604H220.667V73.0877L226.313 65.2604H230.077L224.827 72.097L230.275 82.8968H226.709L222.945 74.574L220.667 77.5465V82.8968H217.893ZM132.706 58.4238V42.0753H135.678V49.3083L141.423 42.0753H145.286L139.937 48.4167L145.583 58.4238H141.819L137.956 50.7945L135.678 53.4699V58.4238H132.706ZM147.069 58.4238V42.0753H157.569V44.8498H149.942V48.4167H157.074V51.1909H149.942V55.6497H157.866V58.4238H147.069ZM159.55 53.1727L162.323 52.7763C162.522 53.8662 162.918 54.659 163.413 55.2533C163.908 55.7485 164.602 55.9468 165.493 55.9468C166.385 55.9468 167.078 55.7485 167.573 55.2533C167.97 54.8569 168.267 54.2626 168.267 53.6679C168.267 53.2715 168.168 52.9743 167.97 52.6771C167.771 52.4792 167.375 52.1816 166.88 51.9836C166.583 51.8844 165.791 51.5872 164.602 51.2901C163.116 50.7945 162.026 50.2993 161.432 49.6054C160.54 48.7139 160.144 47.624 160.144 46.3361C160.144 45.5434 160.342 44.7507 160.739 43.9579C161.135 43.2644 161.729 42.67 162.522 42.2737C163.215 41.9765 164.205 41.7781 165.295 41.7781C167.078 41.7781 168.366 42.1745 169.257 43.0664C170.149 44.0571 170.644 45.2462 170.743 46.7321L167.871 46.8313C167.673 46.0386 167.474 45.4442 167.078 45.0478C166.682 44.6515 166.088 44.4535 165.196 44.4535C164.404 44.4535 163.809 44.6515 163.314 45.0478C163.017 45.345 162.819 45.6422 162.819 46.1377C162.819 46.5341 163.017 46.8313 163.314 47.1285C163.611 47.426 164.503 47.822 165.89 48.2184C167.276 48.6147 168.366 49.0111 168.96 49.4074C169.654 49.8038 170.149 50.3982 170.545 51.0917C170.941 51.7852 171.139 52.6771 171.139 53.6679C171.139 54.659 170.941 55.5505 170.446 56.3432C169.951 57.1359 169.356 57.7303 168.564 58.1267C167.673 58.523 166.682 58.721 165.394 58.721C163.611 58.721 162.225 58.3246 161.333 57.3339C160.342 56.3432 159.748 54.9561 159.55 53.1727ZM173.616 58.4238V42.0753H184.116V44.8498H176.488V48.4167H183.62V51.1909H176.488V55.6497H184.413V58.4238H173.616ZM186.79 58.4238V42.0753H189.762V48.5159H195.309V42.0753H198.181V58.4238H195.309V51.2901H189.762V58.4238H186.79ZM214.03 58.4238H210.86L209.672 54.7578H203.926L202.738 58.4238H199.766L205.214 42.0753H208.285L214.03 58.4238ZM208.78 51.9836L206.799 45.8406L204.818 51.9836H208.78ZM217.299 58.4238V44.8498H213.04V42.0753H224.332V44.8498H220.171V58.4238H217.299ZM237.506 58.4238H234.435L233.247 54.7578H227.502L226.313 58.4238H223.242L228.789 42.0753H231.86L237.506 58.4238ZM232.256 51.9836L230.275 45.8406L228.393 51.9836H232.256ZM239.091 58.4238V42.0753H241.864L247.709 53.0735V42.0753H250.383V58.4238H247.511L241.765 47.624V58.4238H239.091ZM147.763 35.0407V17.4042H158.46V20.3766H150.635V24.3399H157.866V27.3123H150.635V32.0682H158.659V35.0407H147.763ZM161.135 35.0407V17.4042H165.493L168.069 29.393L170.644 17.4042H175.102V35.0407H172.328V21.1693L169.456 35.0407H166.682L163.809 21.1693V35.0407H161.135ZM177.974 35.0407V17.4042H188.672V20.3766H180.946V24.3399H188.177V27.3123H180.946V32.0682H188.969V35.0407H177.974ZM191.446 35.0407V17.4042H194.318L200.261 29.1949V17.4042H202.936V35.0407H199.964L194.12 23.4481V35.0407H191.446ZM209.275 35.0407V20.3766H205.016V17.4042H216.408V20.3766H212.148V35.0407H209.275ZM218.289 35.0407V17.4042H228.987V20.3766H221.261V24.3399H228.492V27.3123H221.261V32.0682H229.285V35.0407H218.289ZM231.761 35.0407V17.4042H237.902C239.487 17.4042 240.577 17.6024 241.27 17.8996C241.964 18.1968 242.558 18.7913 242.954 19.584C243.449 20.3766 243.647 21.3674 243.647 22.3582C243.647 23.6463 243.35 24.7362 242.657 25.6279C242.063 26.5197 241.072 27.0151 239.784 27.2132C240.478 27.7086 240.973 28.204 241.369 28.6995C241.765 29.2939 242.36 30.1857 243.053 31.5728L244.836 35.0407H241.27L239.19 31.1765C238.497 29.7893 237.902 28.9967 237.704 28.6004C237.407 28.204 237.11 28.0059 236.813 27.9068C236.516 27.7086 236.02 27.7086 235.327 27.7086H234.733V35.0407H231.761ZM234.733 24.8353H236.912C238.298 24.8353 239.19 24.8353 239.487 24.6371C239.883 24.538 240.081 24.2408 240.28 23.9435C240.478 23.5472 240.577 23.1509 240.577 22.5564C240.577 21.9619 240.478 21.5656 240.181 21.1693C239.982 20.7729 239.586 20.5748 239.091 20.4757C238.893 20.3766 238.199 20.3766 237.011 20.3766H234.733V24.8353ZM246.223 35.0407V17.4042H249.195V35.0407H246.223ZM264.944 35.0407H261.874L260.586 30.9783H254.841L253.553 35.0407H250.482L256.128 17.4042H259.199L264.944 35.0407ZM259.595 28.0059L257.614 21.5656L255.633 28.0059H259.595ZM266.529 35.0407V17.4042H269.402L275.345 29.1949V17.4042H278.019V35.0407H275.147L269.204 23.4481V35.0407H266.529Z" fill="black"/>
</svg>
