<svg width="122" height="123" viewBox="0 0 122 123" fill="none" xmlns="http://www.w3.org/2000/svg">
<path d="M60.9985 14.3302C70.2285 14.3302 79.2512 17.0671 86.9254 22.1948C94.5999 27.3225 100.581 34.6107 104.114 43.138C107.646 51.6651 108.571 61.048 106.771 70.1008C104.97 79.1532 100.526 87.4686 94.0002 93.9956C87.474 100.523 79.1593 104.968 70.1069 106.769C61.0545 108.57 51.6712 107.647 43.1438 104.116C34.616 100.585 27.327 94.6041 22.1984 86.9303C17.0697 79.2565 14.3316 70.2342 14.3304 61.0045C14.33 54.8756 15.5368 48.8064 17.8818 43.1441C20.2269 37.4814 23.6644 32.3362 27.9979 28.0021C32.3315 23.6679 37.4763 20.2298 43.1384 17.884C48.8008 15.5382 54.8695 14.3306 60.9985 14.3302Z" fill="#009240"/>
<path d="M9.42178 63.819L4.58021 62.2204L4.37659 59.3149H4.5711L4.58631 59.5456C4.591 59.7217 4.64129 59.8933 4.73218 60.0442C4.79669 60.1361 4.88956 60.2044 4.99661 60.2387C5.21534 60.2699 5.43738 60.2699 5.65614 60.2387L10.361 59.9074C10.5916 59.9055 10.8209 59.8708 11.0418 59.804C11.1421 59.7461 11.2202 59.6561 11.2636 59.5486C11.3307 59.3961 11.3559 59.2284 11.3365 59.0625L11.3183 58.8315L11.5128 58.8162L11.7742 62.5456L11.5797 62.5609L11.5645 62.3268C11.5598 62.1506 11.5095 61.9791 11.4186 61.8281C11.3514 61.737 11.2565 61.6699 11.1481 61.6367C10.9276 61.602 10.703 61.602 10.4825 61.6367L5.19414 62.0077L11.8806 64.2872V64.4145L5.61359 67.6456L10.6406 67.296C10.8569 67.2884 11.0723 67.264 11.2849 67.2228C11.4563 67.1671 11.6012 67.0505 11.6922 66.8945C11.807 66.6688 11.8485 66.4126 11.8107 66.1622H12.0052L12.1723 68.5938H11.9809V68.5206C11.9747 68.3704 11.9386 68.2224 11.8745 68.0859C11.8232 67.9651 11.7402 67.8602 11.6344 67.7821C11.5127 67.7116 11.3786 67.665 11.2393 67.6456C11.2008 67.6456 11.0215 67.6544 10.7013 67.6727L6.18497 67.9765C5.95736 67.98 5.73132 68.0146 5.51328 68.0802C5.415 68.1405 5.33757 68.2297 5.2914 68.3353C5.22853 68.4893 5.20451 68.6563 5.22151 68.8218L5.23974 69.0497H5.04522L4.83855 66.1351L9.42178 63.819ZM11.4612 47.6136L10.8533 50.0662L11.4612 50.5282C11.6166 50.6537 11.7938 50.7494 11.9839 50.8107C12.0686 50.8332 12.1579 50.8321 12.242 50.8073C12.3261 50.7829 12.4019 50.7356 12.4611 50.6708C12.5995 50.4737 12.7023 50.2534 12.765 50.0204L12.9535 50.0692L12.379 52.3762L12.1906 52.3304C12.2195 52.0891 12.1636 51.8451 12.0325 51.6407C11.7734 51.3106 11.466 51.0216 11.1207 50.7833L6.20319 46.9205L6.22447 46.8232L12.5432 45.7382C12.9475 45.6947 13.3414 45.5819 13.7072 45.4039C13.8559 45.2933 13.9629 45.1358 14.0111 44.957L14.1996 45.0028L13.3729 48.3734L13.1845 48.3246L13.2179 48.1877C13.2859 47.9925 13.2965 47.7813 13.2483 47.58C13.2305 47.5362 13.202 47.4973 13.1654 47.4668C13.1288 47.4367 13.0851 47.4161 13.0385 47.4069C12.975 47.3909 12.9093 47.3856 12.844 47.3917C12.7023 47.4031 12.5612 47.4226 12.4216 47.4493L11.4612 47.6136ZM11.0387 47.6955L8.38844 48.1302L10.5159 49.7928L11.0387 47.6955ZM11.531 34.4747L11.3609 34.3774L13.2604 31.0828L13.4306 31.1831L13.3151 31.3837C13.2195 31.5306 13.1659 31.7009 13.1601 31.8761C13.1625 31.9871 13.2021 32.0942 13.2726 32.18C13.4336 32.3356 13.6183 32.4649 13.8197 32.5629L16.8589 34.3166C17.3118 34.5413 17.7172 34.8509 18.0534 35.2284C18.2603 35.5292 18.3666 35.8877 18.3573 36.2526C18.3547 36.6945 18.2295 37.1269 17.9956 37.5018C17.7551 37.9728 17.3493 38.3385 16.8559 38.5292C16.6673 38.6115 16.4626 38.6508 16.2569 38.6435C16.0511 38.6359 15.8497 38.5825 15.6675 38.4865C15.5705 38.435 15.4848 38.3648 15.4154 38.2798C15.3459 38.1944 15.2943 38.0965 15.2633 37.9911C15.232 37.8901 15.2228 37.7835 15.2365 37.6785C15.2501 37.5737 15.2862 37.4729 15.3423 37.3833C15.437 37.2072 15.5977 37.0761 15.7891 37.0185C15.8801 36.9895 15.9762 36.9801 16.071 36.9911C16.1659 37.0021 16.2573 37.0332 16.3392 37.0823C16.4148 37.1255 16.4834 37.1798 16.5428 37.2435C16.5998 37.3315 16.6496 37.424 16.6918 37.52C16.73 37.6275 16.7961 37.723 16.8833 37.7966C16.9247 37.8192 16.9713 37.831 17.0185 37.831C17.0658 37.831 17.1122 37.8192 17.1538 37.7966C17.3229 37.7184 17.461 37.5857 17.5458 37.4197C17.6173 37.3056 17.6473 37.1704 17.6309 37.0368C17.6044 36.8965 17.5317 36.7691 17.4242 36.6751C17.0599 36.4005 16.6748 36.1546 16.2723 35.9396L12.9596 34.0279C12.7673 33.8957 12.5562 33.7932 12.3334 33.724C12.2184 33.7182 12.1046 33.749 12.0082 33.8121C11.8697 33.9013 11.7566 34.0248 11.68 34.1707L11.531 34.4747ZM20.1292 22.7582L22.2233 24.7793L22.3236 24.679C22.4649 24.5558 22.5733 24.3993 22.6391 24.2237C22.7049 24.048 22.726 23.8588 22.7005 23.673C22.5894 23.2407 22.3709 22.8434 22.0653 22.5181L22.2051 22.3722L24.8979 24.9738L24.7611 25.1167C24.4897 24.8954 24.1809 24.7246 23.8493 24.6122C23.6225 24.5307 23.376 24.5222 23.1442 24.5879C22.8997 24.6953 22.6818 24.8551 22.5059 25.0559L23.9557 26.457C24.1193 26.6364 24.3064 26.7928 24.5118 26.922C24.6038 26.9574 24.7056 26.9574 24.7976 26.922C24.9407 26.8698 25.0676 26.7807 25.1653 26.6637L25.4692 26.3598C25.8994 25.9834 26.1748 25.461 26.2422 24.8935C26.3095 24.326 26.1641 23.7536 25.8339 23.287L25.9707 23.1472L27.384 24.9556L23.0804 29.396L22.9406 29.2623L23.0986 29.0921C23.2239 28.9717 23.3161 28.8209 23.366 28.6544C23.3923 28.5451 23.3794 28.43 23.3296 28.3292C23.2112 28.1391 23.0634 27.9688 22.8919 27.8247L19.5062 24.5544C19.367 24.412 19.2177 24.28 19.0594 24.1593C18.9562 24.1006 18.8357 24.0802 18.719 24.1016C18.5284 24.1479 18.3579 24.2545 18.2327 24.4055L18.0655 24.5787L17.9257 24.442L22.0835 20.1353L23.6031 21.6033L23.4663 21.7461C23.14 21.5095 22.7635 21.3514 22.3661 21.2841C22.0471 21.2643 21.7296 21.3405 21.4543 21.503C21.1444 21.7089 20.8634 21.9553 20.6185 22.2354L20.1292 22.7582ZM37.4532 14.8713L38.435 17.1994L32.8912 20.2781L32.7969 20.1049L33.0067 19.9894C33.1616 19.9125 33.2937 19.7961 33.3896 19.6521C33.448 19.5532 33.4706 19.4373 33.4535 19.3238C33.3925 19.1089 33.3003 18.9041 33.1799 18.716L30.8974 14.6008C30.7991 14.3922 30.67 14.1996 30.5144 14.0294C30.4215 13.9608 30.3077 13.9264 30.1923 13.9321C30.0275 13.9382 29.8671 13.9874 29.7273 14.075L29.5175 14.1905L29.4233 14.0172L32.7666 12.1693L32.8608 12.3395L32.5903 12.4884C32.4334 12.5667 32.3002 12.6852 32.2043 12.8319C32.1462 12.9297 32.1226 13.0443 32.1374 13.1571C32.1978 13.3722 32.29 13.5771 32.411 13.7649L34.6205 17.7495C34.7221 17.9611 34.8542 18.1567 35.0126 18.33C35.0592 18.3645 35.1124 18.389 35.1688 18.4021C35.2253 18.4152 35.2838 18.4165 35.3408 18.4059C35.5439 18.3417 35.738 18.2518 35.9183 18.1385L36.441 17.8498C36.7329 17.6989 36.9849 17.4813 37.1766 17.2145C37.339 16.9517 37.4301 16.6511 37.441 16.3423C37.4515 15.8793 37.3984 15.417 37.283 14.9685L37.4532 14.8713ZM48.4249 13.2209L48.4767 13.4094L44.8629 14.3759L44.8114 14.1874L45.0394 14.1266C45.2098 14.0898 45.3669 14.0079 45.495 13.8896C45.5766 13.8086 45.6254 13.7004 45.6318 13.5856C45.6292 13.3623 45.591 13.1407 45.5194 12.9292L44.3036 8.37022C44.2571 8.14338 44.1781 7.92435 44.0699 7.71981C43.9944 7.63368 43.893 7.57489 43.7809 7.55267C43.6188 7.51817 43.4503 7.52549 43.2917 7.57394L43.0637 7.63776L43.0149 7.44931L46.6258 6.47979L46.6772 6.66821L46.4466 6.72902C46.2765 6.76737 46.1195 6.84903 45.9906 6.96608C45.9098 7.04797 45.8602 7.15548 45.8507 7.27001C45.8545 7.49354 45.8934 7.71508 45.9662 7.92648L47.182 12.4854C47.2255 12.7112 47.3044 12.9286 47.4161 13.1297C47.495 13.2199 47.6021 13.2809 47.7199 13.303C47.8812 13.3379 48.049 13.3295 48.206 13.2787L48.4249 13.2209ZM59.3389 4.40697L59.5639 6.78068H59.3481C59.2326 6.23362 58.9321 5.7431 58.4971 5.39171C58.1288 5.07569 57.6538 4.91255 57.1688 4.93584C56.8577 4.94187 56.5608 5.06696 56.3392 5.28534C56.2474 5.37287 56.1753 5.47939 56.1288 5.59747C56.0819 5.71558 56.0617 5.84242 56.0689 5.96918C56.0781 6.11639 56.1277 6.25825 56.2115 6.37949C56.3534 6.56527 56.531 6.72036 56.7342 6.83538C57.1189 7.03649 57.5146 7.21511 57.9195 7.37028C58.5738 7.5964 59.1754 7.95199 59.6885 8.41582C59.9977 8.74876 60.1823 9.17817 60.2112 9.63151C60.2326 9.92278 60.191 10.2152 60.0892 10.4889C59.9874 10.7627 59.8281 11.0113 59.6218 11.218C59.1677 11.6886 58.549 11.9643 57.8955 11.987C57.6805 12.0021 57.4643 11.9939 57.2512 11.9627C56.99 11.9142 56.7331 11.8462 56.4822 11.759C56.348 11.7054 56.2043 11.6796 56.0598 11.6831C55.9546 11.694 55.8558 11.7376 55.7769 11.8076C55.6717 11.8965 55.5935 12.0135 55.552 12.145H55.3575L55.1692 9.45221H55.3636C55.5119 10.1047 55.8684 10.6913 56.3789 11.1238C56.7842 11.471 57.3076 11.6484 57.8406 11.6192C58.183 11.6123 58.5093 11.4741 58.7526 11.2332C58.8563 11.1346 58.9375 11.0143 58.9901 10.8809C59.0423 10.7475 59.0652 10.6043 59.0564 10.4613C59.0431 10.2894 58.9855 10.1239 58.889 9.98104C58.7701 9.81382 58.6206 9.67047 58.4487 9.55858C58.1277 9.36807 57.791 9.20539 57.4426 9.07229C56.9351 8.8811 56.4475 8.64087 55.9866 8.35501C55.7037 8.17025 55.4616 7.92919 55.2756 7.64687C55.096 7.37489 54.9911 7.06044 54.9717 6.73508C54.9492 6.46287 54.9843 6.18901 55.075 5.93133C55.1658 5.67368 55.3095 5.43803 55.4974 5.23974C55.6934 5.02586 55.9302 4.85308 56.1936 4.73149C56.4571 4.60991 56.7422 4.54197 57.0324 4.5316C57.2596 4.51361 57.4883 4.52482 57.7129 4.56504C57.9218 4.60915 58.1254 4.67435 58.321 4.75955C58.4807 4.83687 58.6542 4.88228 58.8315 4.89326C58.8711 4.89257 58.9104 4.88358 58.9466 4.8668C58.9828 4.85006 59.0149 4.82593 59.0412 4.796C59.1128 4.66847 59.1536 4.52581 59.1597 4.37964L59.3389 4.40697ZM86.0848 10.4643L89.3155 12.2514L89.2183 12.4246L89.0574 12.3335C88.8942 12.2268 88.7093 12.1582 88.5164 12.1329C88.4062 12.1331 88.2994 12.1694 88.2121 12.2362C88.0375 12.4252 87.8923 12.6393 87.7806 12.8714L86.0848 15.938C85.8503 16.2991 85.6837 16.6997 85.5926 17.1203C85.5819 17.3599 85.641 17.5974 85.7626 17.8042C85.9136 18.0556 86.1328 18.2591 86.3947 18.3908C86.6948 18.569 87.0402 18.6557 87.3886 18.64C87.71 18.621 88.0181 18.5055 88.2731 18.3087C88.667 17.937 88.9895 17.496 89.2243 17.0079L90.6407 14.4549C90.7654 14.2581 90.8481 14.0377 90.8839 13.8075C90.8984 13.6782 90.8694 13.5478 90.8016 13.4367C90.6617 13.2535 90.4806 13.1057 90.2728 13.0052L90.367 12.8319L92.5309 14.0324L92.4368 14.2057L92.3064 14.1327C92.1569 14.0421 91.9854 13.9947 91.8108 13.9959C91.6518 14.0025 91.5 14.065 91.3822 14.1722C91.2366 14.3174 91.1165 14.4859 91.0265 14.6707L89.7104 17.0474C89.434 17.5963 89.0879 18.1071 88.6803 18.567C88.3433 18.8673 87.9151 19.0459 87.4645 19.0746C86.8442 19.1201 86.2251 18.9657 85.6989 18.6339C85.2594 18.4154 84.8728 18.1043 84.5651 17.7221C84.2936 17.3681 84.1415 16.9371 84.1305 16.4912C84.164 16.0025 84.3154 15.5291 84.5712 15.1114L86.2701 12.0478C86.4069 11.8296 86.5095 11.5918 86.5743 11.3426C86.5789 11.2269 86.5457 11.1128 86.4797 11.0174C86.3433 10.8563 86.1717 10.7285 85.9784 10.6436L86.0848 10.4643ZM100.512 27.539L98.5307 29.0921L94.1147 24.5332L94.2542 24.3964L94.4216 24.5666C94.5348 24.6985 94.6819 24.7972 94.847 24.8523C94.9568 24.883 95.0743 24.8745 95.1783 24.8279C95.372 24.7153 95.547 24.5739 95.698 24.4085L99.0808 21.1231C99.2573 20.9742 99.411 20.8002 99.5368 20.6064C99.5722 20.4968 99.5722 20.3786 99.5368 20.269C99.4872 20.1105 99.3984 19.9672 99.2783 19.8526L99.1144 19.6855L99.2539 19.5487L101.904 22.2841L101.764 22.4208L101.546 22.1959C101.43 22.0653 101.282 21.9668 101.117 21.9102C101.007 21.88 100.891 21.8875 100.786 21.9315C100.594 22.0445 100.419 22.1859 100.269 22.3509L96.9897 25.5179C96.8112 25.6714 96.6564 25.8506 96.5306 26.0497C96.507 26.1023 96.4948 26.1592 96.4948 26.2169C96.4948 26.2746 96.507 26.3316 96.5306 26.3841C96.6442 26.5654 96.7811 26.731 96.9382 26.8764L97.3515 27.305C97.5718 27.5488 97.8482 27.7354 98.1567 27.849C98.4529 27.9397 98.7674 27.9502 99.0686 27.8794C99.5181 27.7689 99.9504 27.5982 100.354 27.3718L100.512 27.539ZM106.591 37.5474L105.405 35.3165L104.649 35.3773C104.45 35.3844 104.254 35.432 104.074 35.5171C103.993 35.5542 103.923 35.6135 103.874 35.6882C103.824 35.7629 103.797 35.85 103.795 35.9396C103.826 36.1765 103.899 36.406 104.01 36.6173L103.84 36.7085L102.728 34.6053L102.901 34.5142C103.043 34.7118 103.247 34.8554 103.482 34.9214C103.891 34.9966 104.309 35.0089 104.722 34.9579L110.961 34.5354L111.01 34.6266L107.041 39.6565C106.77 39.9607 106.552 40.3081 106.396 40.684C106.36 40.8674 106.385 41.0576 106.469 41.225L106.296 41.3161L104.67 38.2585L104.843 38.1673L104.91 38.292C104.99 38.4781 105.121 38.6382 105.287 38.7541C105.329 38.7762 105.375 38.788 105.422 38.788C105.469 38.788 105.516 38.7762 105.557 38.7541C105.615 38.7217 105.667 38.6809 105.713 38.6325C105.811 38.5295 105.904 38.4209 105.989 38.3073L106.591 37.5474ZM106.852 37.2039L108.53 35.1068L105.837 35.2953L106.852 37.2039ZM111.794 51.765L116.797 52.7742L117.35 55.6313L117.159 55.6675L117.116 55.4395C117.091 55.266 117.019 55.1021 116.909 54.9656C116.834 54.8836 116.735 54.8272 116.627 54.8043C116.406 54.7944 116.184 54.8169 115.97 54.8714L111.338 55.783C111.11 55.815 110.887 55.8776 110.676 55.9687C110.584 56.0392 110.517 56.1368 110.484 56.2481C110.442 56.4094 110.442 56.5791 110.484 56.7403L110.53 56.9683L110.338 57.0049L109.624 53.3365L109.816 53.2999L109.861 53.531C109.885 53.7044 109.956 53.868 110.065 54.0052C110.145 54.0914 110.252 54.1482 110.369 54.1661C110.592 54.176 110.815 54.1513 111.031 54.0933L116.237 53.0811L109.305 51.6346L109.281 51.51L115.11 47.5373L110.162 48.5011C109.948 48.5351 109.737 48.585 109.53 48.6498C109.369 48.7291 109.241 48.8626 109.168 49.0269C109.074 49.2591 109.054 49.5149 109.11 49.7593L108.919 49.7959L108.451 47.3917L108.642 47.352V47.4279C108.665 47.5774 108.719 47.7199 108.8 47.8477C108.866 47.9582 108.961 48.0497 109.074 48.1119C109.203 48.1683 109.343 48.198 109.484 48.1999C109.524 48.1999 109.7 48.1668 110.016 48.1058L114.46 47.2426C114.685 47.2129 114.905 47.1504 115.113 47.0573C115.204 46.9864 115.27 46.8884 115.301 46.7775C115.343 46.6174 115.343 46.4489 115.301 46.2884L115.259 46.0634L115.451 46.0268L116.006 48.8961L111.794 51.765ZM111.758 68.0951L112.062 65.588L111.405 65.2018C111.236 65.095 111.048 65.0218 110.852 64.986C110.764 64.9704 110.673 64.9795 110.591 65.0127C110.508 65.0462 110.436 65.1023 110.384 65.1743C110.271 65.3863 110.199 65.617 110.171 65.8552L109.98 65.8308L110.283 63.4694L110.475 63.4907C110.477 63.7347 110.563 63.9711 110.718 64.1594C111.011 64.4545 111.348 64.7035 111.715 64.8979L117.067 68.1347V68.235L110.928 70.0799C110.532 70.1729 110.154 70.333 109.813 70.5542C109.678 70.6823 109.59 70.8508 109.56 71.0341L109.369 71.0097L109.791 67.5755L109.983 67.5968V67.7398C109.94 67.9422 109.955 68.1527 110.025 68.3475C110.049 68.3879 110.083 68.4218 110.122 68.4474C110.161 68.4725 110.206 68.4882 110.253 68.4935C110.319 68.5023 110.385 68.5023 110.451 68.4935C110.483 68.4935 110.62 68.4569 110.861 68.3841L111.758 68.0951ZM112.168 67.9647L114.742 67.2079L112.432 65.8156L112.168 67.9647Z" fill="#2C2C2B"/>
<path d="M13.0478 90.5949L12.8777 90.6921L10.9963 87.4461L11.1665 87.3489L11.2881 87.5556C11.3664 87.7119 11.4863 87.8434 11.6346 87.9357C11.7325 87.9936 11.8484 88.0131 11.9598 87.9902C12.1768 87.9322 12.3823 87.8377 12.5677 87.7107L16.6616 85.3462C16.8707 85.2452 17.0625 85.1121 17.2299 84.9512C17.2968 84.8563 17.3289 84.7416 17.3211 84.626C17.3115 84.4598 17.2603 84.2989 17.1722 84.1579L17.0506 83.9543L17.2208 83.854L19.1021 87.1091L18.9319 87.2063L18.8134 86.9997C18.7313 86.8449 18.611 86.7141 18.4638 86.6196C18.3646 86.5624 18.2488 86.5411 18.1356 86.559C17.9192 86.6211 17.714 86.7176 17.5278 86.8445L13.4339 89.206C13.2268 89.3089 13.0363 89.442 12.8685 89.6014C12.8034 89.6978 12.7714 89.8129 12.7773 89.9296C12.785 90.0958 12.8364 90.2571 12.9263 90.3974L13.0478 90.5949ZM24.5789 94.3121L23.737 99.9469L25.9983 97.8375C26.2404 97.653 26.4198 97.3983 26.5119 97.1082C26.518 96.9515 26.488 96.7955 26.4242 96.6522C26.3605 96.5088 26.2646 96.3819 26.1441 96.2816L26.29 96.1447L27.9069 97.8802L27.7641 98.0171C27.6098 97.871 27.4307 97.7536 27.2352 97.6705C27.1067 97.6381 26.9712 97.6488 26.8492 97.701C26.631 97.8055 26.4333 97.9488 26.2657 98.1234L21.883 102.205L21.7585 102.074L22.8252 94.4367L19.482 97.5519C19.3581 97.6415 19.2561 97.7582 19.1839 97.8928C19.1118 98.0277 19.0713 98.1772 19.0656 98.3301C19.0853 98.5634 19.1839 98.7834 19.3453 98.953L19.4638 99.0777L19.3179 99.2115L17.5794 97.3484L17.7253 97.2145C17.9071 97.4505 18.1726 97.6072 18.4669 97.6522C18.7571 97.6263 19.0261 97.489 19.2176 97.2694L22.9316 93.8286L22.965 93.5858C23.0025 93.4032 23.0025 93.2148 22.965 93.0326C22.9083 92.8702 22.8171 92.7219 22.6976 92.598L22.8404 92.4642L24.5789 94.3121ZM28.998 107.731L29.0983 107.563L29.3019 107.688C29.4394 107.781 29.5986 107.836 29.7639 107.849C29.8885 107.853 30.011 107.817 30.1134 107.746C30.2692 107.584 30.3993 107.4 30.4995 107.199L32.9309 103.147C33.0617 102.961 33.1641 102.756 33.2348 102.539C33.2473 102.425 33.2205 102.309 33.1588 102.211C33.0712 102.069 32.9474 101.953 32.8002 101.874L32.5966 101.752L32.6968 101.582L35.4535 103.238C36.0751 103.579 36.6186 104.046 37.0491 104.609C37.4415 105.149 37.6455 105.802 37.6296 106.469C37.6077 107.157 37.4054 107.827 37.043 108.411C36.8018 108.822 36.4864 109.185 36.113 109.481C35.7928 109.742 35.4255 109.939 35.031 110.062C34.6702 110.167 34.2932 110.205 33.9186 110.174C33.4873 110.131 33.0639 110.029 32.6604 109.87C32.3433 109.74 32.0382 109.582 31.7486 109.399L28.998 107.731ZM34.8395 103.333L31.9492 108.141C31.8461 108.292 31.7643 108.457 31.706 108.63C31.6967 108.701 31.7129 108.773 31.7516 108.834C31.8265 108.953 31.9313 109.05 32.0556 109.116C32.268 109.262 32.5124 109.354 32.7679 109.384C33.0235 109.415 33.2827 109.384 33.5235 109.293C34.1678 109.044 34.7818 108.432 35.3714 107.448C35.795 106.811 36.0587 106.081 36.1403 105.32C36.1832 104.892 36.0758 104.462 35.8364 104.104C35.5555 103.78 35.2151 103.512 34.8335 103.315L34.8395 103.333ZM48.8202 108.758C49.3143 108.854 49.7825 109.054 50.1939 109.345C50.6049 109.636 50.9495 110.01 51.2053 110.444C51.4608 110.878 51.6217 111.361 51.6769 111.861C51.7318 112.362 51.6804 112.868 51.5252 113.347C51.298 114.186 50.7932 114.923 50.0936 115.438C49.1595 116.127 48.0726 116.293 46.8324 115.937C45.5926 115.584 44.7508 114.885 44.3131 113.848C43.9662 113.023 43.9212 112.102 44.1854 111.247C44.3097 110.766 44.5327 110.317 44.8396 109.928C45.1469 109.538 45.5316 109.216 45.9692 108.983C46.4008 108.743 46.8785 108.599 47.3703 108.56C47.8621 108.521 48.3566 108.589 48.8202 108.758ZM48.7897 109.098C48.4802 109.009 48.1515 109.015 47.845 109.114C47.5385 109.213 47.2685 109.401 47.0695 109.654C46.5587 110.287 46.1972 111.026 46.0119 111.818C45.6734 113 45.6311 113.931 45.8842 114.611C45.967 114.842 46.1057 115.049 46.2883 115.213C46.4706 115.377 46.6913 115.493 46.93 115.551C47.2377 115.652 47.5701 115.652 47.8782 115.551C48.2884 115.378 48.6365 115.084 48.8751 114.709C49.2339 114.157 49.4989 113.55 49.659 112.912C49.89 112.227 50.0029 111.508 49.9933 110.785C49.9838 110.374 49.8538 109.974 49.6197 109.636C49.407 109.373 49.1165 109.187 48.7897 109.098ZM61.0351 110.366L64.737 114.697L64.6307 111.612C64.6505 111.307 64.575 111.003 64.4149 110.742C64.3009 110.635 64.1636 110.555 64.0142 110.509C63.8647 110.463 63.7065 110.451 63.5517 110.475V110.277L65.9254 110.195V110.393C65.7146 110.415 65.5091 110.472 65.3177 110.563C65.2086 110.636 65.1267 110.743 65.0836 110.867C65.0203 111.102 64.9997 111.346 65.0226 111.587L65.2292 117.566H65.05L59.9684 111.761L60.1292 116.32C60.1075 116.454 60.117 116.591 60.1571 116.721C60.1971 116.851 60.2665 116.971 60.3599 117.069C60.4537 117.168 60.5684 117.244 60.6962 117.291C60.8239 117.338 60.9608 117.355 61.0961 117.341H61.2661V117.538L58.7194 117.626V117.432C59.0168 117.449 59.3096 117.351 59.5368 117.158C59.7072 116.922 59.78 116.629 59.7404 116.341L59.5703 111.283L59.4091 111.095C59.2955 110.949 59.1552 110.827 58.9958 110.733C58.8341 110.671 58.6614 110.643 58.4883 110.651V110.457L61.0351 110.366ZM74.9732 108.8L75.7819 111.612L75.9187 111.572C76.1036 111.535 76.2767 111.453 76.4227 111.334C76.5684 111.214 76.6824 111.06 76.7544 110.885C76.8734 110.453 76.8829 109.997 76.7819 109.56L76.9733 109.506L78.0125 113.122L77.8181 113.177C77.6973 112.848 77.5158 112.545 77.2832 112.283C77.125 112.096 76.9126 111.964 76.6755 111.903C76.4086 111.877 76.1395 111.907 75.8852 111.992L76.4445 113.94C76.4963 114.177 76.579 114.407 76.6904 114.624C76.751 114.702 76.8372 114.757 76.9336 114.779C77.0846 114.807 77.2398 114.793 77.3835 114.739L77.7968 114.62C78.3564 114.49 78.8563 114.175 79.2161 113.727C79.5379 113.256 79.6961 112.692 79.666 112.122L79.8513 112.068L80.1735 114.353L74.2012 116.064L74.1467 115.879L74.3777 115.812C74.5474 115.771 74.7037 115.686 74.8306 115.566C74.9088 115.483 74.9553 115.375 74.961 115.262C74.9572 115.036 74.9137 114.813 74.8337 114.602L73.5329 110.044C73.4829 109.85 73.4189 109.66 73.3411 109.475C73.2797 109.373 73.1855 109.295 73.0738 109.253C72.8893 109.193 72.6899 109.193 72.5054 109.253L72.2743 109.317L72.2198 109.129L77.9942 107.469L78.581 109.514L78.3896 109.569C78.2264 109.199 77.9786 108.872 77.666 108.615C77.3961 108.436 77.0777 108.345 76.7544 108.354C76.3816 108.375 76.0137 108.447 75.6602 108.566L74.9732 108.8ZM88.2156 101.974L89.5709 103.95L89.3887 104.068C89.0215 103.644 88.519 103.359 87.9662 103.263C87.4885 103.163 86.9906 103.252 86.5773 103.512C86.3059 103.667 86.1046 103.921 86.015 104.22C85.9772 104.342 85.9666 104.47 85.9833 104.597C86.0001 104.724 86.044 104.845 86.1122 104.953C86.1892 105.083 86.3021 105.189 86.4374 105.257C86.6524 105.35 86.8839 105.4 87.1183 105.402C87.5545 105.392 87.9899 105.357 88.4222 105.296C89.1069 105.175 89.8088 105.195 90.4859 105.354C90.9217 105.496 91.2942 105.786 91.5374 106.174C91.699 106.419 91.8058 106.697 91.8496 106.987C91.8939 107.277 91.8744 107.573 91.7928 107.855C91.6247 108.49 91.216 109.036 90.6529 109.375C90.4729 109.498 90.2793 109.6 90.0757 109.679C89.8221 109.765 89.5618 109.83 89.2975 109.873C89.1538 109.893 89.0158 109.941 88.8904 110.013C88.8054 110.075 88.7409 110.161 88.7047 110.259C88.6544 110.389 88.6429 110.53 88.6715 110.667L88.5072 110.776L87.0272 108.496L87.1911 108.393C87.6399 108.893 88.2381 109.234 88.8965 109.366C89.4192 109.472 89.9632 109.374 90.4157 109.092C90.7116 108.915 90.9289 108.633 91.0238 108.302C91.0646 108.165 91.0757 108.021 91.0555 107.879C91.0357 107.737 90.9853 107.602 90.9083 107.481C90.8134 107.336 90.6811 107.218 90.5252 107.141C90.3414 107.05 90.1409 106.997 89.9358 106.986C89.561 106.971 89.1855 106.992 88.8141 107.047C88.2739 107.125 87.7276 107.151 87.182 107.126C86.8446 107.099 86.5163 107.005 86.2155 106.849C85.9323 106.696 85.6925 106.474 85.5197 106.202C85.368 105.973 85.2662 105.715 85.2201 105.444C85.174 105.174 85.185 104.897 85.2521 104.631C85.3211 104.347 85.4458 104.08 85.6181 103.844C85.7908 103.609 86.0085 103.411 86.2582 103.26C86.4473 103.133 86.6517 103.031 86.8659 102.956C87.0737 102.891 87.2876 102.847 87.5042 102.825C87.6814 102.812 87.8553 102.769 88.0181 102.697C88.0524 102.676 88.0821 102.648 88.1058 102.615C88.129 102.583 88.1458 102.546 88.1546 102.506C88.1553 102.36 88.1222 102.215 88.0573 102.083L88.2156 101.974ZM101.783 99.8711L101.92 100.014L99.2177 102.621L99.0808 102.481L99.2512 102.315C99.3831 102.2 99.4819 102.052 99.5368 101.886C99.5692 101.776 99.5604 101.658 99.5124 101.555C99.4003 101.36 99.2577 101.184 99.09 101.035L95.8047 97.6339C95.6557 97.4562 95.4803 97.3026 95.2847 97.1779C95.1757 97.1409 95.0567 97.1409 94.9477 97.1779C94.7887 97.2267 94.6453 97.3159 94.531 97.4364L94.3609 97.6038L94.2241 97.4608L96.926 94.85L97.0629 94.993L96.8898 95.16C96.7598 95.2759 96.6622 95.4234 96.6069 95.5885C96.5737 95.6979 96.5813 95.8157 96.6282 95.9198C96.7399 96.1158 96.8829 96.2923 97.0507 96.4425L100.333 99.8436C100.482 100.021 100.659 100.174 100.856 100.297C100.966 100.33 101.084 100.33 101.193 100.297C101.353 100.249 101.498 100.16 101.613 100.038L101.783 99.8711ZM107.718 89.0661L106.375 91.2213L106.81 91.8473C106.918 92.0158 107.057 92.1626 107.22 92.2789C107.294 92.3303 107.38 92.3605 107.47 92.365C107.56 92.37 107.649 92.3494 107.728 92.3063C107.919 92.1614 108.083 91.9834 108.211 91.7802L108.375 91.8835L107.111 93.9079L106.944 93.8046C107.046 93.5827 107.068 93.3326 107.007 93.0963C106.864 92.704 106.664 92.3341 106.415 91.999L102.91 86.7809L102.965 86.6955L109.347 87.6227C109.747 87.7054 110.159 87.7195 110.563 87.665C110.741 87.6059 110.894 87.4892 110.998 87.3341L111.162 87.4374L109.32 90.3852L109.156 90.2819L109.229 90.1603C109.352 89.9967 109.425 89.8019 109.442 89.5983C109.44 89.551 109.425 89.5053 109.4 89.4652C109.375 89.4256 109.341 89.3928 109.299 89.3703C109.242 89.3349 109.179 89.3089 109.114 89.2941C108.975 89.262 108.835 89.2365 108.694 89.2182L107.718 89.0661ZM107.29 89.0116L104.625 88.6074L106.144 90.8564L107.29 89.0116Z" fill="#2C2C2B"/>
<path d="M60.9985 0C27.3171 0 0 27.3141 0 61.0046C0 94.6949 27.3171 122.006 60.9985 122.006C94.68 122.006 122 94.6831 122 61.0046C122 27.3262 94.6831 0 60.9985 0ZM60.9985 120.763C27.9949 120.763 1.23699 94.0174 1.23699 60.9985C1.23699 27.9797 27.9827 1.23395 60.9985 1.23395C94.0143 1.23395 120.763 27.9797 120.763 60.9985C120.763 94.0174 94.0052 120.763 60.9985 120.763Z" fill="#009240"/>
<path d="M50.4611 71.8489V67.3962H49.537V69.0558H47.7012V67.3962H46.7805V71.8489H47.7012V69.8732H49.537V71.8489H50.4611Z" fill="white"/>
<path d="M56.5058 71.8458H57.4662L55.8615 67.3871H54.8039L53.2206 71.8366H54.184L54.4879 70.9247H56.2111L56.5058 71.8458ZM54.7067 70.1801L55.3144 68.2868L55.9225 70.1801H54.7067Z" fill="white"/>
<path d="M60.2264 67.3962V71.8489H63.3146V71.025H61.1414V67.3962H60.2264Z" fill="white"/>
<path d="M68.2956 67.3871H67.2411L65.6482 71.8458H66.6116L66.9159 70.9339H68.6421L68.946 71.8458H69.9033L68.2956 67.3871ZM67.1679 70.1801L67.7759 68.2868L68.3837 70.1801H67.1679Z" fill="white"/>
<path d="M72.6598 67.3962V71.8489H75.751V71.025H73.5778V67.3962H72.6598Z" fill="white"/>
<path d="M93.9896 73.0037C93.9987 72.6259 94.1169 72.2583 94.33 71.9461C94.3209 71.6754 94.4059 71.4104 94.5702 71.1954C94.6579 70.4878 94.8356 69.7943 95.099 69.1317C95.0689 69.0844 95.0453 69.0334 95.0293 68.9796C95.2797 68.1363 95.4288 67.2659 95.473 66.3871C95.7769 65.6029 95.5581 64.6303 95.7769 63.7946C95.473 62.5334 96.0472 61.2021 95.7586 59.9924C95.1112 60.1811 94.3937 60.0778 93.7132 60.0778V59.9226C92.8012 59.9226 88.5465 59.6188 88.4249 59.3603C88.288 59.3603 88.0661 59.4971 87.9841 59.3786C87.2487 59.3267 87.2335 59.6519 86.9083 58.8833C86.7531 58.6794 86.2609 58.2024 86.2609 57.9287C86.0055 57.8151 85.7927 57.6237 85.6528 57.3816H85.5495C85.3577 57.6687 85.0924 57.8986 84.7805 58.0473C84.7839 58.1346 84.7961 58.2211 84.8171 58.3057C84.4919 58.5429 84.0146 58.8162 83.8598 59.2173C82.872 59.5761 83.3825 60.3603 83.6226 61.0622C83.7595 61.0774 83.8781 61.026 83.9631 61.0927C84.2033 60.8555 86.352 61.2143 86.7592 61.1807C86.8019 61.1994 86.8423 61.2215 86.8808 61.2478C87.1027 61.1476 87.203 61.2478 87.4096 61.3146C88.8564 61.3512 90.3426 61.573 91.7071 61.573C91.7265 61.6112 91.7429 61.6508 91.7559 61.6916C92.0811 61.7431 92.4063 61.8102 92.7467 61.88C92.7799 61.965 92.8317 62.05 92.8832 62.1533C93.6491 62.339 93.3422 63.4149 93.1874 63.9254C92.7437 64.2506 92.4882 64.5727 91.9076 64.6425C91.8695 64.6741 91.8401 64.7149 91.8226 64.7611C91.394 64.7611 90.0658 64.9315 89.7257 64.7096C89.3456 64.7306 88.9651 64.6905 88.598 64.591C88.6002 64.0794 88.5434 63.5697 88.4279 63.0714C88.2636 63.0958 88.0966 63.0958 87.9323 63.0714C87.9121 63.1247 87.901 63.1812 87.8991 63.2383C87.0478 63.4968 86.2788 64.2628 85.3916 64.3661C85.4099 64.7916 85.5464 65.2201 85.5464 65.612C85.7702 65.6936 86.0127 65.7104 86.2456 65.6608C86.3158 65.6768 86.384 65.7001 86.4492 65.7306C86.4706 65.6989 86.5015 65.6745 86.5373 65.6608C87.3211 65.6711 88.1023 65.7516 88.8717 65.901C89.7371 65.9082 90.5873 66.1309 91.3456 66.5484V66.67C91.4737 66.7584 91.577 66.8785 91.6457 67.0184C91.7143 67.1584 91.7459 67.3135 91.7375 67.4691C92.4516 67.9464 92.0082 70.4718 91.4642 71.0159C91.4566 71.1009 91.4566 71.1863 91.4642 71.2713C91.359 71.3014 91.2568 71.3418 91.16 71.3929C91.1447 71.4596 91.1386 71.5283 91.142 71.5965L90.9716 71.6483C90.9716 71.6998 90.9381 71.7486 90.9202 71.8001L90.6983 71.8519C90.6312 72.0586 89.9838 72.3807 89.9838 72.0917C89.5919 72.3624 88.7893 72.2957 88.3307 72.2622C88.3166 72.224 88.3105 72.184 88.3124 72.1436C87.5617 72.3807 87.1694 71.7486 86.522 71.5629C86.2983 71.3243 86.0874 71.0738 85.8899 70.8123C85.8415 70.3506 85.8415 70.3506 85.7714 70.3018C85.8899 69.0558 85.6345 69.2106 84.8598 68.4085C84.2792 68.4085 83.7687 67.8976 83.1182 67.8976C83.0271 68.0764 82.8857 68.2247 82.7111 68.3231C82.4709 69.1923 81.3797 70.0768 80.4922 70.1649C80.3729 70.2095 80.2589 70.2663 80.1517 70.3353C80.0923 70.5984 80.0747 70.8691 80.1003 71.1375C80.6805 71.001 82.5895 71.4082 82.9814 71.4413C83.3115 71.6499 83.6669 71.8153 84.039 71.9339C84.4675 72.3106 85.3184 72.4627 85.6074 72.94C85.7534 72.9515 85.8937 73.0018 86.0142 73.0857C86.1343 73.1695 86.23 73.2839 86.291 73.417C86.3943 73.3685 87.2788 73.9976 87.4492 74.0826C87.7531 74.5962 88.8988 74.9549 89.0021 75.5325C89.0486 75.5306 89.0947 75.5367 89.1389 75.5504C89.2941 76.1799 88.9171 77.7175 88.1149 77.7175C88.0589 77.7682 88.0078 77.8242 87.9628 77.8848H87.6589C87.6376 77.9115 87.6204 77.9413 87.6071 77.9729C87.1118 77.9363 86.6345 77.9214 86.1576 77.9031L85.6288 77.4258C85.2517 77.5108 85.0207 77.0003 84.6741 77.0003C84.641 76.9306 84.6074 76.8635 84.5891 76.812C84.1789 76.6237 83.1545 76.0796 82.9844 75.6175C82.6097 75.4277 82.294 75.1387 82.0725 74.7818C82.1373 74.3701 82.1777 73.9549 82.1941 73.5386C82.5163 73.1619 82.0576 73.1467 82.0576 72.8729C81.9432 72.8813 81.8285 72.8626 81.7229 72.8184C81.6173 72.7738 81.5235 72.7052 81.4495 72.6179C80.7324 72.5145 80.3553 72.6179 79.9482 73.1951C79.4708 73.1467 79.0091 73.1951 78.5318 73.1101C78.3435 73.3167 78.1246 73.3319 78.1246 73.6724C78.2764 73.7239 78.5166 73.8093 78.6687 73.6907C79.3343 73.9946 80.3252 74.6023 80.6474 75.2588C80.7217 75.2565 80.7961 75.2626 80.8693 75.2771C80.9207 75.3621 80.9695 75.4471 81.024 75.5504C81.106 75.5687 81.2093 75.584 81.3126 75.5992C81.3107 75.6743 81.3161 75.7498 81.3279 75.8242C81.4495 75.8577 81.5681 75.9092 81.705 75.958C82.1152 76.6237 83.0877 76.9489 83.3401 77.7175C83.8872 77.8181 84.1423 78.4319 84.5861 78.7205C84.9448 79.1674 85.3036 79.6081 85.6772 80.0519H85.8324C86.0024 80.4621 86.1027 80.5288 85.9509 80.9211C85.9509 81.1945 85.7805 81.2799 85.6772 81.5288C85.5403 81.4621 85.182 81.8876 85.0695 81.9726C84.8659 81.9726 84.4888 82.0912 84.0969 82.0912C83.7927 81.8529 83.4461 81.6745 83.0755 81.5654C82.6524 81.2234 82.1952 80.9261 81.7111 80.6779C81.4038 80.3858 81.0366 80.1639 80.6352 80.0275C80.4445 79.8132 80.2417 79.61 80.0271 79.4197C79.3614 79.1796 79.2581 78.4472 79.2581 77.8848C79.5623 77.4075 79.6866 77.356 79.7873 77.1708C79.3614 76.5627 79.2581 76.2832 78.4742 76.4532C77.5017 76.3865 76.4437 76.6054 75.5077 76.7087C75.457 76.9317 75.4399 77.1612 75.4563 77.3892C75.6812 77.4491 75.8894 77.5604 76.064 77.7144C76.3042 77.7144 76.6263 78.0732 76.7994 78.2253C77.6351 78.7022 78.7598 79.5562 79.231 80.4255C79.2749 80.4472 79.3206 80.4644 79.3675 80.4773C79.3713 80.5582 79.3824 80.6386 79.4011 80.7175C79.8601 80.9394 80.7991 82.1156 80.8841 82.6444L81.0728 82.6928C81.0869 82.8262 81.1102 82.9581 81.1426 83.0881C81.1937 83.0858 81.2448 83.0908 81.2947 83.1034C81.3797 83.392 81.6867 84.2277 81.9238 84.2978C81.9421 84.5197 81.96 84.7565 81.9753 84.9967C81.9223 85.0127 81.8712 85.0352 81.8235 85.0638C81.8609 85.1191 81.8944 85.177 81.9238 85.2369C81.7869 85.5255 81.7869 85.5255 81.6684 85.6105C81.6867 85.644 81.705 85.6776 81.7381 85.7291C81.2612 86.641 80.9177 87.3673 79.7751 87.4676C79.5379 87.641 78.3618 87.6742 78.2554 87.4191C77.9969 87.4008 77.3831 87.3673 77.2981 87.0939C76.3732 86.76 75.5096 86.2761 74.7418 85.6623C73.8028 85.3585 73.1371 84.6047 72.1493 84.4164C72.1097 84.4732 72.0807 84.5373 72.0643 84.6047C71.7604 84.8266 71.7905 85.0817 71.5172 85.3188C71.2438 86.3615 70.8031 87.3856 70.5446 88.4584C70.4444 88.5617 70.3746 88.7989 70.1039 89.1576C70.0006 89.7653 70.9884 91.6647 71.3986 92.0753C71.961 92.0906 72.7117 92.1939 73.1707 92.534C73.7711 92.6095 74.3327 92.8722 74.7754 93.285C74.8306 93.2687 74.8882 93.2626 74.9454 93.2667V93.5706C74.9831 93.5226 75.0293 93.4822 75.0823 93.452C75.1825 93.6404 75.2523 93.8958 75.4563 93.9991C75.3892 95.3122 75.0975 95.8745 74.2405 96.8619C73.9366 97.5977 73.1646 96.9473 72.6388 97.3057C71.648 97.0507 70.6418 96.5886 70.0795 95.6705H69.9762L69.3441 94.9351H69.2072C68.4931 95.7193 69.6876 96.5398 69.6876 97.324C69.7852 97.3495 69.8713 97.4067 69.9327 97.4864C69.9945 97.5661 70.028 97.6641 70.028 97.7647C70.1645 97.8196 70.1645 97.8196 70.4897 98.2116C70.9335 98.3969 71.1371 98.6004 71.7055 98.7373C72.3529 99.1811 73.2069 98.9592 73.8333 99.345C73.8645 99.3069 73.9053 99.2775 73.9515 99.26C74.6507 99.4819 76.2859 98.5246 76.5261 97.9108C77.7415 97.0415 77.7205 94.7407 77.0366 93.5462C77.0507 93.486 77.0739 93.4288 77.1063 93.3762C77.0365 93.2908 77.0365 93.2908 76.8177 93.2057C76.5592 92.8321 75.8451 91.6861 75.4014 91.6861C75.3716 91.6205 75.3484 91.5526 75.3316 91.4825H75.1947C75.128 91.3792 75.0762 91.2759 75.0247 91.1786C74.754 91.1786 74.2919 91.0086 74.1886 90.7867C74.1333 90.7696 74.0761 90.7585 74.0186 90.7532C74.0033 90.6834 73.985 90.6163 73.9698 90.5648C73.9004 90.5618 73.831 90.5679 73.7631 90.5827C73.73 90.513 73.6964 90.4463 73.6781 90.3944C73.4562 90.3612 73.2679 90.1908 73.0704 90.1908C72.6781 89.662 73.1554 88.1942 73.3438 87.6502C73.4524 87.6654 73.5603 87.6875 73.6659 87.7169C73.8726 88.0573 74.3163 88.0421 74.6049 88.3246C75.2706 88.5465 75.8665 89.0936 76.5501 89.2366C76.5485 89.2926 76.5535 89.3486 76.5653 89.4035C76.772 89.4401 77.0091 89.3887 77.0793 89.6254C77.1688 89.606 77.2607 89.5945 77.3526 89.5923C78.3328 89.8176 79.3321 89.9491 80.337 89.9842C80.8144 89.2701 81.939 89.0299 82.3977 88.264C83.0816 88.0085 83.4736 87.1546 84.2063 86.8629C84.2761 86.5407 84.8141 86.2552 85.0573 86.0119C85.2456 85.2094 86.662 84.8873 86.9174 84.1183C86.9982 84.05 87.0848 83.9879 87.1755 83.933C87.124 83.7446 89.0661 81.7477 89.288 81.3069C89.5919 80.9634 89.9201 80.7267 90.0719 80.2981C90.3761 80.0942 90.3456 79.976 90.5004 79.6901C90.8046 79.6233 91.4882 78.3103 91.5915 77.9851C92.017 77.7968 91.8622 77.2192 92.221 76.979C92.476 76.3316 92.8863 75.8211 93.075 75.1372C93.4608 74.5901 93.4608 73.5325 93.9896 73.0037Z" fill="white"/>
<path d="M49.206 97.0171C48.4218 96.2298 48.0146 96.4517 47.1968 96.932C47.1961 97.072 47.1404 97.2062 47.0421 97.3057C47.0421 97.9713 47.3154 98.2599 47.7077 98.7373C48.0299 98.7373 48.3551 98.7037 48.6772 98.7037C48.9018 98.5154 49.5312 97.7311 49.2575 97.4578C49.2361 97.3057 49.2361 97.1509 49.206 97.0171Z" fill="white"/>
<path d="M66.0222 95.9564C66.0203 96.0136 66.0264 96.0708 66.0405 96.1265C65.6638 96.4517 65.989 97.2024 66.4145 97.3423V97.4639L66.6364 97.5154C67.548 97.4303 67.6238 96.9683 67.6238 96.0811C67.1469 95.4638 66.6364 95.531 66.0222 95.9564Z" fill="white"/>
<path d="M56.8653 96.6949H56.7982V96.7617H56.8653V96.6949Z" fill="white"/>
<path d="M43.9021 94.6948C43.8708 94.6518 43.8434 94.606 43.8201 94.5584C43.5952 94.5096 43.3916 94.4733 43.188 94.4398C42.7107 94.1512 40.8323 93.6403 40.2703 93.7772C40.1182 93.6739 39.9661 93.5888 39.8265 93.5034C39.2184 93.4184 38.1578 92.0021 37.7475 92.8199C37.6832 92.8218 37.6196 92.8343 37.5591 92.8561C37.5591 93.7406 39.3157 94.4398 40.0149 94.6098C40.2882 95.0201 41.8567 94.7131 42.3855 95.2419H42.6893C42.7229 95.2938 42.7564 95.3453 42.7927 95.4124C43.2181 95.5157 44.0542 95.7162 44.294 96.078C44.5983 96.0262 44.5983 96.0262 44.7195 96.0597C44.9071 95.9709 45.0527 95.8131 45.1259 95.6194C45.1991 95.4253 45.1938 95.2107 45.1118 95.0201C44.7328 94.8359 44.3222 94.7253 43.9021 94.6948Z" fill="white"/>
<path d="M56.8653 95.9595H56.7982V96.0109H56.8653V95.9595Z" fill="white"/>
<path d="M63.5845 90.826H63.4476C63.3836 90.7459 63.3268 90.6605 63.2776 90.5709C63.2242 90.5732 63.172 90.5842 63.1224 90.6041C63.1091 90.5404 63.0919 90.4775 63.071 90.4157C62.6455 90.2789 62.7122 90.1119 62.5086 89.7836C62.3901 89.7649 62.27 89.7535 62.1499 89.7501C62.013 89.3246 61.1773 89.0844 60.9737 88.6589C60.9302 88.6322 60.8845 88.6101 60.8368 88.5922C60.5406 88.991 60.1624 89.3215 59.7278 89.5617C59.708 89.6342 59.6969 89.7085 59.6942 89.7836C58.9619 90.3124 58.4331 91.0478 57.7155 91.5919C57.4117 91.6102 56.576 91.4218 56.4544 91.5404C56.1505 91.4916 55.6187 91.5583 55.3815 91.4218C54.3239 91.5919 53.1112 91.0814 52.1051 91.3185C52.0383 91.2697 52.0384 91.2697 50.792 91.2C50.7432 91.2366 50.7028 91.2831 50.6735 91.3364C51.0025 91.7493 51.3677 92.1317 51.7646 92.4794C51.9167 92.8046 52.2419 92.9232 52.412 93.2637C52.277 93.232 52.1398 93.2099 52.0018 93.1966C51.9823 93.2164 51.9659 93.2389 51.9533 93.2637C51.1356 93.1603 49.9045 93.4337 49.2179 92.9747C48.6174 92.8691 48.0253 92.7208 47.4458 92.5309C47.4611 92.3426 47.4794 92.1542 47.5129 91.9689C47.683 91.8656 48.1965 90.3307 48.1965 90.057C48.6586 89.3246 48.6067 88.1972 49.1084 87.5163C48.9201 86.9082 50.1813 84.6169 50.4546 83.6806C50.8134 83.4404 50.8286 82.5715 51.2572 82.2127C51.8649 82.4011 52.3998 82.6897 52.9957 82.7751C52.9107 82.4011 52.6034 82.1094 52.6369 81.6504C52.3331 81.1399 52.3998 80.2005 52.0048 79.8086C52.0048 79.4834 51.786 79.0579 51.7009 78.7174C51.6609 78.7136 51.6201 78.719 51.5824 78.7327C51.4142 79.0667 51.2107 79.3816 50.9747 79.6717C50.9564 79.8086 50.9747 79.9455 50.8378 80.0122C50.9076 80.149 50.479 80.4743 50.479 80.7476C49.935 81.2917 49.6433 82.2128 49.1508 82.8754C49.0474 83.1335 48.9289 83.6108 48.6891 83.7294C48.6403 83.9696 48.5187 84.0698 48.4519 84.3096C48.0234 84.7355 47.9048 85.4343 47.4946 85.8781C47.376 86.5255 46.5827 87.1911 46.4732 87.8899C45.7893 88.4008 45.5617 89.6132 44.9902 90.2941C45.0569 90.431 44.665 90.6864 44.7164 90.9445C44.4766 91.4371 43.501 91.0448 43.0965 90.9445C42.9082 90.6407 42.3641 90.8931 42.1849 90.5495C41.2627 90.1069 40.4365 89.4874 39.7533 88.726L39.5833 88.6742V88.5892H39.8143C39.8113 88.5087 39.8162 88.4283 39.8296 88.349C39.9508 88.264 39.9508 88.264 40.1548 88.2487C40.3248 87.5133 41.4343 87.3764 41.6043 86.644C41.7564 86.5102 41.9082 86.3036 42.1331 86.3036C42.2002 85.9116 42.6954 85.6959 43.0023 85.416C43.4644 84.48 43.9749 85.1972 44.5556 85.4343C44.981 85.0088 44.3306 82.1945 44.3001 81.3069C44.1453 81.4773 43.8899 81.8204 43.6497 81.8204C43.2524 82.3938 42.7488 82.886 42.1666 83.2703C42.1666 83.4556 42.0298 83.5742 41.9112 83.7111C41.3492 83.9844 41.0755 84.8205 40.4617 85.0241C40.1212 85.708 39.2672 86.1335 38.8418 86.7809C38.3278 86.9875 38.2611 87.5499 37.7658 87.7199C37.7652 87.7435 37.7716 87.7668 37.784 87.7866C37.6837 87.8049 37.5956 87.7016 37.4253 87.6349C37.3919 87.5316 37.3585 87.4462 37.3251 87.3612H37.1701C36.8296 86.8842 36.2583 86.4919 35.8388 86.0634C36.2157 85.8781 36.778 85.0607 37.1883 85.0607C37.1883 84.9905 37.2217 84.9238 37.2399 84.8537C38.091 84.3432 38.653 83.3706 39.5741 83.0118C39.6592 82.5685 40.1548 82.2795 40.5803 82.1792C40.8353 82.4831 41.5376 82.8235 41.8933 83.0302C41.9192 83.0096 41.9478 82.9924 41.9783 82.9787C41.9265 82.7568 41.9966 82.5685 41.9265 82.3466C41.9631 81.9543 42.2517 78.9027 42.0481 78.6992C41.7713 78.9942 41.4346 79.2264 41.0603 79.3801C40.9905 79.6202 40.7564 79.7571 40.5467 79.9089C40.5132 79.8753 40.48 79.8574 40.4617 79.8391C40.0774 80.2512 39.6275 80.5974 39.1304 80.8631C38.6199 81.5471 37.085 82.0789 36.8479 82.8083C36.5744 82.9451 36.3008 83.082 36.0273 83.2337C35.9604 83.4556 35.5836 83.6592 35.4194 83.8994C35.0942 83.9695 34.8754 84.2582 34.6353 84.48C34.38 84.3249 34.2584 84.0363 33.9879 83.8723C33.9887 83.8254 34.0001 83.7797 34.0214 83.7385C33.6475 83.6016 33.4925 83.31 33.1673 83.2097C33.1146 83.0515 33.0214 82.9101 32.8968 82.7991C33.219 82.3736 33.9879 82.252 34.4317 81.8875C34.5684 81.9211 34.8906 81.6138 35.1641 81.6138C35.1768 81.5479 35.2004 81.4842 35.234 81.4255H35.4377C35.4671 81.3626 35.5072 81.305 35.5562 81.2554C36.3586 81.0183 37.1761 80.456 37.9086 80.0396C38.3191 80.1094 38.5924 80.6473 39.0698 80.6473C39.2398 80.0823 39.2916 79.4864 39.5467 78.9576C39.6317 78.3953 39.9055 77.2527 40.3492 76.9122C40.3492 76.4166 40.6714 76.0582 40.8083 75.5809C40.878 75.5474 40.878 75.5474 41.1666 75.6659C41.1506 75.7224 41.1445 75.7811 41.1483 75.8394H41.3035C41.6074 76.3499 42.5494 76.672 43.0267 77.0823C43.3306 77.112 43.6169 77.2374 43.8441 77.441C43.8968 77.4086 43.9543 77.385 44.0146 77.3713C44.0996 77.4563 44.0996 77.4563 44.1331 77.6294C44.2227 77.6076 44.3142 77.5954 44.4065 77.5931C44.4122 77.6339 44.4233 77.6736 44.44 77.7113C45.0054 77.5931 45.4824 77.4746 45.8411 76.979C46.8442 76.6206 46.4488 74.4715 45.975 73.9095C44.5098 73.9793 43.7744 74.4715 43.1789 75.8726C42.8567 75.9732 42.4614 75.5687 42.2669 75.3926C41.416 75.0521 40.7656 74.423 40.8689 73.484C41.3309 73.1436 41.6196 72.3258 42.1148 71.9156C42.0633 71.1649 42.0298 70.4657 42.045 69.6971H41.2791C41.0755 69.9704 41.2943 70.2106 41.3309 70.5511C41.2608 71.113 41.1243 72.6784 40.3218 72.8184C40.1357 72.5504 39.9325 72.2945 39.7141 72.0524C39.7453 71.9686 39.785 71.8881 39.8326 71.8123C39.8063 71.752 39.7842 71.6899 39.7655 71.627C39.7838 71.1313 39.6622 69.1953 40.0545 68.9464C40.2093 68.5907 40.2429 68.5057 40.5833 68.3383C40.6012 68.0161 40.6348 67.7092 40.6683 67.4023C40.4647 67.4206 40.1727 67.5571 40.0393 67.4206C39.7141 67.8126 39.0515 67.9311 38.5711 68.2197L38.4708 68.1713C38.4369 68.2285 38.4132 68.291 38.401 68.3566C38.3343 68.3417 38.2657 68.3356 38.1975 68.3383C38.1792 68.3749 38.1639 68.4264 38.1456 68.4752L28.2345 72.2255L28.2133 72.4108L24.9704 73.4291C25.0393 74.1932 25.375 74.9088 25.9186 75.4501C26.4428 75.1322 27.0043 74.8802 27.5902 74.6995L37.1913 69.9948C37.5651 69.858 37.5651 69.858 37.7992 69.8763C37.9025 70.2651 37.9025 70.2651 38.3614 71.2045C38.4033 71.2106 38.4441 71.2221 38.483 71.2377V71.4596C38.7716 71.5477 39.1456 72.7059 39.4525 73.0128C39.4708 73.0826 39.4891 73.1649 39.5044 73.2499C40.0149 73.6266 40.1849 74.7696 40.6988 74.9396C40.7168 75.0918 40.732 75.2649 40.7503 75.4353C40.5787 75.5325 40.4137 75.64 40.2551 75.7574C40.2352 75.836 40.2242 75.9164 40.2215 75.9972C39.796 75.9972 39.6744 76.6629 39.2825 76.73C39.1639 77.1219 38.6168 77.4807 38.2428 77.5993C37.9023 78.0213 37.4793 78.3698 36.9999 78.6233C36.985 78.6725 36.9789 78.7239 36.9816 78.7754C36.4862 78.8452 36.2978 79.1521 35.8723 79.2889C35.8507 79.3431 35.8394 79.4007 35.8388 79.459C35.7474 79.4559 35.6558 79.4613 35.5653 79.4742C35.5136 79.6477 33.9454 80.3862 33.7053 80.3862C33.5248 80.5501 33.2993 80.6557 33.0579 80.69C31.8422 81.2524 29.6661 82.0881 28.2832 81.9329C28.2498 81.9848 28.2498 81.9848 27.3136 82.0183C26.6294 81.8002 25.9263 81.6466 25.2135 81.5593C25.1958 81.5154 25.1845 81.4693 25.1801 81.4224L24.9582 81.4743C24.6637 81.2204 24.3033 81.0549 23.9188 80.9969C23.8306 80.7415 22.7426 80.2981 22.4872 80.1612C21.8551 80.1612 21.6515 79.1216 21.0861 78.9149C21.0861 78.6263 20.4205 77.5169 20.2169 77.587C20.2098 77.4959 20.2098 77.4044 20.2169 77.3133C20.1702 77.2992 20.1245 77.282 20.0801 77.2618C20.0517 77.2073 20.0283 77.1501 20.0102 77.0914H19.91C19.84 76.9545 19.5331 76.3743 19.5847 76.2039C19.5148 76.1707 19.448 76.1371 19.3963 76.1188C19.3038 75.6259 19.1126 75.1566 18.834 74.7391C18.7937 74.3845 18.7131 74.0361 18.5939 73.6998C18.5605 72.6754 18.3052 71.1923 18.7824 70.2198C18.7307 69.4355 19.2261 68.4965 19.4814 67.7882C19.6546 67.7062 19.8583 67.1255 19.91 66.9372C20.2655 66.4084 20.8217 65.8461 21.1014 65.2837C21.6417 64.9864 22.1081 64.5708 22.466 64.0683C22.6154 63.9261 22.7968 63.8216 22.9948 63.7641C22.9922 63.713 22.9973 63.6619 23.01 63.6123H23.1316C23.1316 65.3508 23.5419 67.0375 23.7121 68.7973C23.8724 69.0223 23.9671 69.2876 23.9856 69.5633C24.2517 69.7512 24.5718 69.8469 24.8974 69.8366H24.9491C24.9848 69.7764 25.0288 69.7211 25.0798 69.6727C25.1956 69.6872 25.3085 69.72 25.4141 69.7699L26.4657 69.6178C27.0219 69.4721 28.0491 69.3505 28.3561 69.0436C29.2436 69.1954 30.2648 68.3596 31.134 68.5327C31.1692 68.4675 31.2155 68.4088 31.2708 68.3597C31.748 68.4294 32.5838 68.0558 33.0609 67.9708C33.4864 67.6456 34.1368 67.7821 34.5806 67.4904C34.7842 67.5937 34.9544 67.4237 35.1884 67.3383C35.2293 67.3581 35.269 67.3806 35.307 67.4054C35.6578 67.2273 36.0417 67.1236 36.4346 67.1015C36.6383 66.9536 36.882 66.8709 37.1336 66.8644C37.1822 66.9128 37.2339 66.983 37.3038 67.0497C37.2714 67.1023 37.2478 67.1599 37.2339 67.2197C37.4056 67.5419 37.509 67.8957 37.5378 68.2594C37.9329 68.4477 39.8082 66.3508 39.8082 66.0436C39.8994 66.0043 39.9748 65.9368 40.0244 65.8506C40.0736 65.7645 40.0938 65.665 40.0816 65.5666C39.398 65.4995 38.4769 65.4995 37.8478 65.3264C37.4041 65.7702 36.1762 65.3264 35.614 65.7035L35.2036 65.755C35.0334 65.4511 34.7083 65.2776 34.6414 64.9193C34.7455 64.7645 34.8592 64.6162 34.9818 64.4755C35.1003 64.1167 35.2036 62.9406 34.9818 62.7187C34.5715 62.7187 33.9423 62.8189 33.5837 62.652C33.5243 62.6836 33.4568 62.6973 33.3897 62.6908C33.3226 62.6844 33.259 62.6581 33.2068 62.6154V61.7797C33.7357 61.0046 33.7356 61.0046 33.7356 60.9135C33.0883 60.5395 33.1552 59.0045 33.1552 58.3362C32.4075 58.9012 32.7145 60.0595 32.6445 60.9318C31.9972 61.7675 31.8604 63.3843 32.2191 64.3752C32.1872 64.5216 32.1639 64.6695 32.1491 64.819C32.3059 64.8567 32.4484 64.9391 32.5595 65.0557C32.8999 65.1076 33.532 65.1442 33.532 65.6364C33.4104 65.6882 33.4105 65.6882 33.2068 65.9101C32.0923 65.9742 30.9996 66.246 29.9852 66.7123C29.8302 66.694 29.5931 66.5907 29.508 66.7641C29.1494 66.8156 28.809 66.8644 28.4686 66.9342C27.9033 67.3082 26.8821 67.2929 26.2165 67.3779C25.3655 67.0741 25.8761 66.132 25.4992 65.5544C25.5174 65.2506 25.5174 65.2506 25.3107 62.6215C25.3645 62.5326 25.3901 62.4297 25.3841 62.326C25.3781 62.2223 25.3409 62.1232 25.2773 62.0408C25.329 61.9741 25.329 61.3237 25.3959 61.2387C25.1406 60.9165 25.2956 58.7159 25.3959 58.6126C25.3655 58.032 25.4323 55.9866 25.6694 55.6614C25.6527 55.3922 25.6815 55.1219 25.7545 54.8623H25.9277C25.9422 54.916 25.9648 54.9671 25.9946 55.014C26.6754 55.0811 27.4595 55.8863 28.0248 55.8863C28.0583 55.9351 28.0917 56.0049 28.1282 56.072C28.1568 56.043 28.1909 56.0201 28.2285 56.0049C29.1676 56.2268 30.1736 57.2813 31.1614 57.4365C31.2168 57.4898 31.2686 57.5466 31.3164 57.6065C31.5869 57.3331 31.368 56.6008 31.5352 56.242C31.5018 54.7921 31.6902 53.3609 31.6902 51.9293C31.7425 51.757 31.7425 51.5728 31.6902 51.4005C31.8452 51.0418 31.9942 49.2728 31.8088 48.9445C31.6902 49.0631 31.4349 48.9597 31.2647 48.9597C30.7693 49.2335 30.2739 49.5068 29.7968 49.7958C28.8424 49.8808 27.6145 51.057 26.6754 50.8534C26.6936 50.5797 26.6754 50.4611 26.8122 50.2453C26.7555 50.0631 26.7503 49.8686 26.797 49.6834C26.8349 49.6628 26.8746 49.6452 26.9155 49.6315C26.9714 49.4908 26.9892 49.3376 26.9672 49.1877C27.2924 48.6254 27.2559 47.6864 27.7179 47.2273C27.6872 47.1793 27.6636 47.1275 27.648 47.0726C27.8356 46.7485 27.9904 46.4061 28.11 46.0512C28.5871 46.1698 29.0643 46.2033 29.4229 46.5617L29.6083 46.5102C30.5627 46.7836 31.6051 47.2609 32.6294 47.4222C33.0378 47.649 33.4817 47.8053 33.9423 47.8839C34.6079 48.2579 36.0212 48.2091 36.5349 48.7169C36.6143 48.707 36.6949 48.7138 36.7714 48.7375C36.8479 48.7611 36.9185 48.8008 36.9786 48.8534C37.7151 48.962 38.4395 49.1401 39.1426 49.3852C39.2977 51.1756 39.2977 51.1756 39.3645 51.2423C40.3553 50.6799 41.5799 50.7833 42.586 50.3307C42.981 50.2636 43.0996 50.1603 43.2181 50.1603C43.2517 49.8869 42.896 49.8198 42.7076 49.7684V49.6132C42.4675 49.58 41.8353 49.3094 41.7957 49.1363C41.6672 49.1591 41.5345 49.142 41.4156 49.0878C41.297 49.0337 41.1971 48.9445 41.1304 48.8324C41.0576 48.8133 40.9832 48.8019 40.9085 48.7989C40.894 48.752 40.8769 48.7066 40.8567 48.662C40.6012 48.577 40.276 48.5434 40.1243 48.3032C40.0053 48.2884 39.8856 48.2823 39.7655 48.2853C39.7522 48.2224 39.735 48.1603 39.7141 48.0996C39.1334 48.0996 38.7079 47.5861 38.094 47.5194C37.8053 47.3673 36.9026 46.8019 36.6108 46.8019C36.5819 46.7523 36.5472 46.7066 36.5075 46.6654C36.4724 46.6787 36.4426 46.7035 36.4224 46.7352C36.1835 46.6631 35.9628 46.5407 35.775 46.3764C35.3829 46.4099 33.8815 45.6776 33.6931 45.4888C32.909 45.4888 32.2434 44.6867 31.4775 44.6867C31.4636 44.6436 31.4574 44.5982 31.4592 44.5529C31.1036 44.4679 30.9152 44.4679 30.7268 44.1427C30.6778 44.1724 30.632 44.2071 30.59 44.246C30.5566 44.1941 30.5231 44.1579 30.5049 44.1244C30.3681 44.1244 30.2496 44.0908 30.1311 44.0729C29.9092 43.7686 29.584 43.8689 29.432 43.5437C29.3637 43.5407 29.2951 43.5468 29.2284 43.562C29.1402 42.3676 30.1645 41.5837 30.4046 40.5227C30.7784 40.6413 32.2798 40.0457 32.7236 40.0274C32.7361 39.9859 32.7534 39.9462 32.7752 39.9089C33.0457 39.9424 33.4895 39.7358 33.7782 39.6687C33.8753 38.9283 33.921 38.1818 33.915 37.4349C34.1885 36.9729 33.6779 35.9152 34.5229 35.9152C34.5187 35.8579 34.5248 35.8003 34.5411 35.745C35.0365 35.3347 35.4954 34.3804 36.1276 34.1768C36.7932 33.5112 36.6382 33.4413 37.4588 33.8181C37.4626 33.8928 37.4728 33.9671 37.4892 34.04C37.7141 34.1069 37.7931 34.3287 38.021 34.3987C38.2398 35.0946 39.3675 35.59 39.6561 36.2739C40.0332 36.4623 40.2642 36.9212 40.647 37.1857C40.7839 37.903 41.6531 38.2615 41.8231 38.9424C42.2227 39.4418 42.5548 39.9916 42.811 40.5776C42.8853 40.5753 42.9596 40.5814 43.0328 40.5959C43.1362 40.8997 43.3367 41.4831 43.6406 41.6199C43.6284 41.6695 43.623 41.721 43.6257 41.772C43.6722 41.7911 43.7168 41.8144 43.7591 41.8418C43.814 42.2006 43.814 42.2006 43.8807 42.2856C43.4713 42.4663 43.0416 42.5978 42.6013 42.6775C42.6013 43.2216 42.2425 43.7686 42.2093 44.3493C41.976 45.1164 41.9291 45.928 42.0725 46.7169H42.191C42.1952 46.6498 42.2143 46.5846 42.2471 46.5255C42.2795 46.4668 42.3249 46.4157 42.3794 46.3764C42.3794 46.0542 43.0786 45.3707 43.352 45.1606C43.3367 45.1286 43.3306 45.0927 43.3337 45.0573C43.7439 44.8537 43.9993 44.4801 44.4946 44.2913C44.9383 44.3767 45.4065 44.4618 45.8594 44.5651C45.88 44.6024 45.8964 44.6425 45.9079 44.6836C46.2586 44.7645 46.5937 44.9029 46.8987 45.0939C46.9174 45.0428 46.9464 44.9963 46.9837 44.957C47.1557 44.9601 47.325 45.0005 47.4794 45.0756C47.0173 43.5742 46.1999 42.9936 44.8533 42.4164C44.58 41.9028 44.4431 41.0515 44.0329 40.6931C43.7107 39.5837 43.0603 38.6629 42.4827 37.6537L42.2761 37.4501C42.0054 36.8878 41.2547 36.1523 41.1182 35.6083C41.0763 35.5938 41.0359 35.5766 40.9966 35.5566C40.9478 35.2831 40.8445 35.2162 40.6409 35.043C40.4007 34.4989 39.7019 34.04 39.5833 33.4413C38.8269 32.6891 38.2142 31.8054 37.7749 30.8336C37.708 30.8153 37.6381 30.8001 37.5865 30.7819C37.5378 30.6634 37.4831 30.5418 37.4345 30.4233C37.2977 30.3898 36.8023 30.8153 36.5652 30.8488C36.547 30.9187 36.5318 30.9855 36.5136 31.0554C36.4801 31.019 36.4437 31.0037 36.4285 30.9855C36.3434 31.0706 36.3434 31.0706 36.0698 31.1041C35.8246 31.4609 35.4973 31.7538 35.1155 31.9581C35.0122 32.1131 34.9271 32.3502 34.7234 32.3502C34.383 32.727 33.9393 32.9124 33.6992 33.341C33.1476 33.6958 32.6866 34.1745 32.3528 34.739C32.2008 34.8241 30.2557 35.0612 30.1524 34.9579C30.0673 35.0278 29.2162 35.0278 28.6844 35.0946C28.651 35.7937 28.6327 36.4927 28.6175 37.2222C28.7695 37.4288 28.7026 38.775 28.5658 39.0457C28.6081 39.0835 28.6539 39.117 28.7026 39.146C28.6725 39.2123 28.6491 39.2817 28.6327 39.3526C28.651 39.3679 28.6692 39.4014 28.7026 39.4376C28.6522 39.5471 28.6125 39.6611 28.5841 39.7781C28.5424 39.7796 28.5018 39.7911 28.4655 39.8117C28.4291 39.9302 28.3956 40.0518 28.3622 40.1704C28.3099 40.1674 28.2574 40.1735 28.2072 40.1883C28.1949 40.3237 28.1535 40.4544 28.0858 40.5719C28.0181 40.6893 27.9258 40.7907 27.8151 40.8692C27.8668 40.9878 27.4413 41.4133 27.3896 41.6535C27.2711 41.687 27.2012 41.8906 27.1009 41.9573V42.1304C26.2651 43.3737 25.8366 44.8053 25.2074 46.1545C25.1709 46.3764 25.1375 46.8869 24.9339 46.9906C24.9339 47.5194 24.557 48.1667 24.475 48.7287C24.0798 49.121 24.3534 50.0753 23.9096 50.5191C23.8649 50.9613 23.768 51.3971 23.6209 51.8168C23.4173 53.6587 23.0131 55.2786 23.0131 57.0686C22.9722 57.0827 22.9325 57.0998 22.8945 57.1204C22.9621 57.5226 22.9621 57.9336 22.8945 58.3362C22.8538 59.8441 22.8995 61.353 23.0313 62.8555C22.8611 62.9223 22.8611 62.9223 22.3991 63.366C22.3722 63.355 22.3432 63.3496 22.314 63.3508C22.0587 63.6729 21.2229 64.4236 20.8795 64.4236C20.6095 64.7965 20.2456 65.0912 19.8249 65.2776C19.7884 65.3962 19.7549 65.5148 19.7215 65.6516C19.6702 65.6486 19.6187 65.6547 19.5695 65.6699C19.6881 66.2776 18.4754 66.9128 18.4754 67.3932L17.8676 68.4142C17.8341 68.8762 17.8007 69.6086 17.4937 69.9159C17.5454 70.2381 17.357 70.5964 17.4937 70.8702C17.4086 71.0402 17.4603 71.1252 17.4937 71.2957C17.3194 71.9301 17.3438 72.6026 17.5636 73.2225L17.4086 73.3258C17.6487 73.481 17.5636 73.6693 17.5454 73.8882C17.7649 74.4299 17.8684 75.0117 17.8493 75.5962C17.8784 75.595 17.9074 75.6004 17.9344 75.6114C17.9527 75.7631 17.9678 75.9153 18.0013 76.0884C18.0459 76.1082 18.0915 76.1253 18.1381 76.1402C18.1563 76.3438 18.1897 76.5504 18.2232 76.7479C18.2748 76.7815 18.3265 76.815 18.3933 76.8665C18.4268 77.21 18.6973 77.5504 18.6335 77.8574C18.7368 77.9424 18.7368 77.9424 19.1957 78.7933C19.1648 78.8139 19.1413 78.8436 19.1288 78.8787C19.7367 79.5623 20.0984 80.3984 20.8673 80.9786C20.8722 81.0198 20.8835 81.0599 20.9007 81.0972C21.4114 81.7053 22.2472 82.1033 22.8976 82.5136C23.6813 82.7511 24.4357 83.0767 25.1467 83.4831C25.1532 83.4678 25.1628 83.4541 25.1748 83.4427C25.1868 83.4312 25.201 83.4221 25.2165 83.4164C25.9156 83.4831 26.5295 83.7747 27.2468 83.7202C28.0127 83.9269 28.8303 83.5681 29.5992 83.6352C30.3134 83.2612 30.8423 83.2947 31.0824 84.1823C31.3863 84.3706 32.1917 85.0939 32.1917 85.3977C32.447 85.4465 32.6689 85.6017 32.6689 85.875C32.8543 85.9601 32.991 86.0119 33.0427 86.1972C33.3011 86.1972 34.152 87.0176 34.152 87.2914C34.2337 87.3074 34.3139 87.3299 34.3922 87.3581C34.6627 87.7321 35.3039 87.9387 35.465 88.3825C36.0729 88.6197 36.5409 89.4371 37.2399 89.6254C37.2886 89.8656 37.3585 89.8808 37.632 89.9296C37.8849 90.3078 38.2771 90.5713 38.7232 90.662C39.1639 91.1573 39.9996 91.3094 40.3767 91.8046C40.4087 91.7894 40.4445 91.7833 40.48 91.7863C40.4941 91.8412 40.517 91.8935 40.5467 91.9415C40.9055 91.8565 41.1091 92.0932 41.3309 92.3151C41.3862 92.2995 41.4438 92.2934 41.501 92.2972C41.6562 92.537 43.6497 93.2877 44.0599 93.4429C44.0664 93.4836 44.0779 93.5233 44.0935 93.5614L44.3672 93.5096C44.896 93.85 46.0024 93.8683 46.3791 94.2423C47.1633 94.2423 47.999 94.8043 48.7832 94.8043C49.0871 94.9259 49.6948 94.9076 49.8927 95.1085C50.2491 95.091 50.6037 95.1733 50.9167 95.3453C50.956 95.3079 51.0025 95.279 51.0536 95.2603C51.2907 95.4154 54.1383 95.8226 54.2416 95.7223C54.4787 95.9076 55.0925 95.6888 55.263 95.9957C55.3327 95.9778 55.4178 95.9595 55.5032 95.9442C55.3514 95.5592 55.112 95.2145 54.8039 94.9381C54.6156 94.3727 53.8924 94.0841 53.8924 93.4367C54.0453 93.4169 54.2008 93.4467 54.3358 93.5218C54.5729 93.3853 56.4849 93.5553 56.7674 93.7437L58.6092 93.847C59.4117 94.2725 60.0438 95.0628 60.8429 95.5188C60.9646 95.2969 61.1834 95.0231 61.475 95.0231C61.5605 94.6312 62.156 94.3727 62.156 94.0689C62.3962 94.136 62.7031 93.5035 63.0283 93.4032C63.0408 93.3395 63.0572 93.2766 63.0771 93.2149C63.6242 92.993 63.7244 92.3975 64.2715 92.2606C64.3199 92.1085 64.4008 91.9682 64.5083 91.8504C64.4599 91.6468 64.3901 91.6102 64.3748 91.4432C64.2002 91.4192 64.0351 91.3494 63.8964 91.2411C63.7576 91.1329 63.6501 90.9895 63.5845 90.826ZM45.6528 74.6419C45.689 75.3743 46.0295 76.0399 45.3489 76.5504L44.6772 76.8089C44.5586 76.587 44.3337 76.5051 44.1999 76.3163C44.0237 75.2374 44.3733 74.42 45.6589 74.6419H45.6528ZM27.961 52.2332L28.0127 52.1298C28.5081 52.1298 28.8667 51.6346 29.3591 51.7044C29.3591 52.285 29.3591 52.8653 29.3773 53.4429C29.1372 53.8016 29.6326 53.8016 29.0734 53.8866V53.7833C28.9549 53.7498 28.8333 53.7345 28.733 53.7162V53.616C28.5904 53.4924 28.408 53.4246 28.2194 53.4246C27.9154 52.9655 27.0036 53.139 26.9064 52.5126C27.2438 52.6922 27.5993 52.3517 27.961 52.2332ZM30.2648 37.3802C30.3586 37.4048 30.4569 37.4066 30.5516 37.3855C30.6462 37.3643 30.7344 37.3208 30.8088 37.2586C31.3728 37.1333 31.9444 37.0449 32.52 36.9942C32.53 37.2808 32.4771 37.5661 32.3649 37.83C32.3832 37.8483 32.4014 37.8817 32.4349 37.9151C32.2282 38.2401 32.3133 38.6477 32.3133 39.0061C31.8878 39.4346 30.8301 39.1277 30.1858 39.3313C30.1373 39.3023 30.0925 39.2676 30.052 39.228C30.0399 38.7083 29.973 37.7723 30.2648 37.3802ZM26.7453 52.5218H26.5751C26.5627 52.4909 26.5452 52.4623 26.5234 52.4367C26.445 52.4249 26.3657 52.4196 26.2864 52.4215C26.2716 52.314 26.2655 52.2049 26.2681 52.0963C26.4079 52.2515 26.6632 52.3182 26.7453 52.5218ZM26.0128 52.1298C26.0429 52.1375 26.0716 52.15 26.0979 52.1664C26.0606 52.184 26.0305 52.2141 26.0128 52.2515V52.1298ZM25.8426 51.908H25.946V52.0113H25.8335L25.8426 51.908ZM53.8039 93.452H53.6827V93.3487H53.8039V93.452ZM60.6424 93.4002C60.6268 93.473 60.6203 93.5477 60.6241 93.622H60.5055C60.1319 93.1268 59.4662 92.7105 58.971 92.3426V92.224C59.3446 91.8988 59.7034 91.2 60.1472 91.1149C60.1655 91.0143 60.2169 90.7043 60.4053 90.7562C60.5909 91.3639 61.6638 91.5919 61.8369 92.2758C61.4175 92.4459 61.1258 93.1966 60.6333 93.4002H60.6424Z" fill="white"/>
<path d="M74.8729 95.4974H74.821V95.5672H74.8729V95.4974Z" fill="white"/>
<path d="M79.4769 94.9869C79.6836 94.9686 79.8871 94.9686 80.109 94.9686C80.9417 94.3029 80.6016 94.1691 80.2795 93.2819C79.1883 92.8561 78.7777 94.2877 79.4769 94.9869Z" fill="white"/>
<path d="M53.7955 93.3517H53.6739V93.455H53.7955V93.3517Z" fill="white"/>
<path d="M82.0606 91.2515C81.1487 91.5553 81.1487 92.054 81.4133 92.8897C81.4823 92.892 81.5505 92.903 81.6169 92.9233C81.5963 92.966 81.5848 93.0125 81.5833 93.0601C81.6595 93.0041 81.7389 92.9522 81.8204 92.9049C81.8902 92.9415 81.9752 92.9747 82.0606 93.0235C82.0995 92.9766 82.1498 92.9412 82.207 92.9202C82.2642 92.8996 82.326 92.8943 82.3858 92.9049C82.5673 92.6987 82.7217 92.4699 82.8445 92.224C82.7503 91.7013 82.5986 91.4219 82.0606 91.2515Z" fill="white"/>
<path d="M57.035 90.3822H56.9652V90.4493H57.035V90.3822Z" fill="white"/>
<path d="M74.0887 88.2853H74.0216V88.3367H74.0887V88.2853Z" fill="white"/>
<path d="M53.4371 83.5257C53.3956 83.5132 53.3559 83.4956 53.3185 83.4739C52.4066 83.9543 51.6468 84.5986 51.6468 85.7595C51.6018 85.8068 51.5617 85.8586 51.5282 85.9147H51.6132C51.7501 86.1365 51.7989 86.4949 51.9175 86.7504C51.9693 86.7477 52.0215 86.7526 52.0722 86.7656C52.2941 87.1423 52.6529 87.2944 52.9842 87.5495C54.4005 87.4492 54.7925 87.1423 55.6102 86.1365C55.7315 85.2246 55.7315 85.2246 55.7986 85.0786C55.6282 84.7747 55.4764 83.7808 54.996 83.7808C54.4429 83.4072 54.1359 83.3038 53.4371 83.5257ZM54.6525 86.0847C54.3948 86.2993 54.1085 86.4774 53.8016 86.6135C53.7654 86.5799 53.7318 86.562 53.7135 86.5437C53.6533 86.562 53.5969 86.591 53.5465 86.6287C52.6742 86.3916 52.659 86.2216 52.6071 85.3157C52.8626 84.4648 53.972 83.9177 54.6011 84.708C54.6903 84.7415 54.7764 84.782 54.8592 84.8296C54.8607 85.2555 54.7951 85.679 54.6647 86.0847H54.6525Z" fill="white"/>
<path d="M64.0103 83.4739C63.6363 83.5772 62.509 83.8662 62.135 83.7476C61.6912 84.1914 60.3782 83.6805 59.9862 84.2581C59.7278 84.2947 58.4849 84.4647 58.2813 84.2581C58.0228 84.2429 57.2721 84.2581 57.1719 84.0393C56.9164 84.2246 56.8284 84.5498 56.6431 84.8235C56.6762 84.8567 56.7098 84.9085 56.7616 84.9573C56.7956 84.9261 56.836 84.9032 56.8802 84.8902C57.1021 85.0271 57.4121 85.0606 57.7159 85.2154C57.9378 85.2673 58.3663 85.249 58.5001 85.3858C59.1078 85.3675 60.4967 85.419 60.889 84.9085C61.8433 84.6047 63.3203 84.7202 64.384 84.7354C64.7427 84.5315 64.7942 84.106 64.7244 83.7141C64.5208 83.5105 64.2471 83.629 64.0103 83.4739Z" fill="white"/>
<path d="M72.7756 79.5017C72.9125 79.1795 73.0646 79.0243 73.4047 79.0243C73.423 78.8543 73.423 78.8543 73.6449 78.3438H73.8546C73.8561 78.2794 73.8687 78.2157 73.8912 78.1551C74.4989 77.6934 74.3167 76.7388 75.1676 76.3804C75.2892 75.8516 76.1585 75.2221 76.5504 74.8607C76.5325 74.6236 76.5172 74.4017 76.4989 74.1798C76.3285 74.0582 76.1585 73.9396 76.0033 73.821C75.8333 73.9915 75.7147 74.1615 75.4413 74.1615C75.2557 74.4169 74.9305 74.7696 74.9305 75.1009C74.8565 75.0979 74.7818 75.1028 74.7086 75.1158C74.6937 75.2 74.6876 75.2858 74.6907 75.3712C74.4535 75.5081 74.4535 75.5264 74.3502 75.7814C73.943 75.9183 73.9247 76.6934 73.4962 76.8211C73.4962 77.3163 72.715 78.2039 72.4413 78.5444C71.7424 78.8482 71.2468 79.21 71.2468 79.9939H71.3654V80.1521C71.8549 80.0823 72.2987 79.5017 72.7756 79.5017Z" fill="white"/>
<path d="M104.7 64.0683C104.671 64.0202 104.648 63.9692 104.631 63.9162C104.649 62.9577 104.592 61.9996 104.46 61.0503C104.223 60.0076 104.12 59.8345 104.12 59.6004C103.746 58.6885 103.129 57.8772 102.703 57.0079C102.312 56.5641 101.512 56.1204 101.339 55.5763C100.769 55.253 100.247 54.8508 99.7888 54.3819C99.4369 54.3434 99.1048 54.2004 98.8345 53.9716C98.6279 53.9716 97.7586 53.9049 97.6919 53.8016C97.178 53.7498 94.7223 53.1935 94.1966 53.5976C94.16 53.5614 94.1268 53.5462 94.1085 53.5279C92.6617 53.6647 91.1237 54.3304 89.8534 54.9961C89.8534 55.2694 89.8534 55.4215 90.0936 55.4913C90.142 55.7952 90.2457 56.099 90.6041 56.1901C90.5961 56.263 90.5961 56.3365 90.6041 56.409C91.0818 56.6202 91.4931 56.9561 91.7955 57.3815C92.1542 57.5184 92.2911 57.7769 92.6678 57.8772C92.7101 57.9885 92.7841 58.0853 92.8809 58.1551C92.9777 58.2245 93.0929 58.2645 93.2118 58.2691C93.2301 58.3274 93.2526 58.3842 93.2785 58.4395C94.1146 58.8497 94.9168 59.6549 95.8196 59.7705C95.8062 59.7239 95.7898 59.6782 95.7708 59.634C95.7708 58.1326 95.7193 56.5946 95.6495 55.0963C95.786 55.1142 95.786 55.1142 95.9534 54.9961C96.7224 55.1325 97.8314 54.8256 98.4426 55.4395L98.6157 55.388C99.1933 55.7467 99.8921 55.932 100.269 56.5123C100.843 56.8745 101.3 57.3964 101.582 58.014C101.6 57.9957 101.615 57.9957 101.652 57.9957C101.771 58.3541 102.162 58.7312 102.162 59.1719C102.214 59.1688 102.265 59.1749 102.315 59.1902C102.336 59.3282 102.364 59.4651 102.4 59.6004C102.758 60.0442 102.758 60.7099 103.05 61.2203C103.22 62.0713 104.004 64.8674 103.658 65.1926C103.843 65.7061 103.606 68.2106 103.196 68.6212C103.366 69.0646 102.941 69.5083 102.892 69.9674C102.845 69.9815 102.799 69.999 102.755 70.0192C102.755 71.2137 101.202 72.7543 100.692 73.7726C100.593 73.8184 100.496 73.8691 100.403 73.9247C100.333 74.1981 99.9409 74.4897 99.7526 74.7936C99.4819 75.049 99.0716 75.2374 98.9012 75.5809L98.7312 75.5294C98.6305 75.6282 98.539 75.7361 98.4578 75.8516H98.3393C98.406 76.0914 97.9805 76.2435 97.8105 76.3133C97.7891 76.3548 97.7777 76.4006 97.7769 76.4471C97.7247 76.444 97.6721 76.4505 97.6217 76.4654C97.555 76.6873 96.3606 77.4044 96.0537 77.4044C96.0354 77.4563 96.0201 77.5077 96.0018 77.5748C95.7704 77.677 95.5317 77.7624 95.2877 77.8299C94.8257 78.292 93.4795 78.3922 92.8561 78.4955C92.8561 78.8696 92.8047 79.2279 93.1783 79.4075C93.5553 79.1704 94.1508 79.1185 94.5946 78.8604C95.0201 78.8604 96.4181 78.2828 96.5398 77.9911C97.7556 77.7357 98.6675 76.4078 99.7434 75.8939C99.9683 75.4501 100.461 75.1951 100.734 74.7696H100.852C101.056 74.3765 101.356 74.0418 101.725 73.797C102.08 73.0795 102.849 72.4657 103.071 71.6693C103.125 71.6475 103.183 71.6361 103.241 71.6361C103.234 71.5511 103.234 71.4657 103.241 71.3807C103.567 71.2255 103.849 70.3383 103.977 69.9796C104.129 68.9067 104.351 67.8522 104.539 66.7942C104.554 66.5876 104.506 65.2231 104.676 65.0531C104.646 65.0397 104.617 65.0225 104.591 65.0012C104.56 64.6859 104.597 64.3676 104.7 64.0683ZM93.6312 56.4456C93.5161 56.4578 93.4021 56.4799 93.2907 56.5123C93.1543 55.9503 92.3365 55.932 92.2149 55.5428L93.6495 55.2847C93.6831 55.5066 93.6098 55.6949 93.6312 56.4456Z" fill="white"/>
<path d="M102.84 72.4779H102.788V72.5446H102.84V72.4779Z" fill="white"/>
<path d="M97.5184 71.0585C97.6553 71.0768 97.8227 71.1104 97.9622 71.1466C97.9836 71.1897 98.0007 71.2343 98.0141 71.2804C98.9016 71.1466 99.7373 70.3261 99.175 69.3898C99.1597 69.3223 99.1536 69.2525 99.1567 69.1832C99.045 69.1538 98.931 69.1317 98.8162 69.1164C98.7861 69.0505 98.7636 68.9811 98.7495 68.9098C98.6569 68.9254 98.5615 68.9186 98.4719 68.8896C98.3827 68.8606 98.3015 68.8099 98.236 68.7424C97.0777 69.2533 96.9534 70.0372 97.5184 71.0585Z" fill="white"/>
<path d="M98.2539 67.1377C98.5089 67.156 98.5089 67.156 98.6458 67.2563C98.7491 67.1712 98.7491 67.1712 99.1079 67.1045L99.5665 66.6939C99.8707 65.6028 99.4483 65.0225 98.3903 64.9375C98.0404 65.0683 97.7369 65.2997 97.518 65.6028C97.5436 65.6398 97.5722 65.6745 97.6034 65.7061C97.1627 66.1468 97.9466 66.9158 98.2539 67.1377Z" fill="white"/>
<path d="M87.7291 65.9463H87.6624V65.9981H87.7291V65.9463Z" fill="white"/>
<path d="M80.7571 62.7884V63.0927C80.3134 64.1838 80.724 64.8159 81.5749 65.5239C81.5951 65.493 81.6249 65.4694 81.66 65.4572C81.7297 65.5056 81.7297 65.5056 82.4957 65.5239C82.5181 65.5491 82.5357 65.5777 82.5475 65.6089C83.6718 65.3051 84.1674 64.8068 84.5777 63.6821C84.4408 62.3508 84.1003 61.9405 82.7694 61.5852C81.5749 61.6641 81.4895 62.2444 80.7571 62.7884ZM81.4747 63.2658C81.517 63.244 81.5639 63.2326 81.6112 63.2322V63.0805C81.745 63.0286 81.7785 62.907 82.1735 62.5848C83.1949 62.4148 83.5018 63.0286 83.3649 64.0347C83.1117 64.2219 82.8777 64.4335 82.6661 64.6668L82.4625 64.6154C82.3954 64.7671 82.1037 64.7336 81.9333 64.7519C81.7968 64.5788 81.5749 64.448 81.4381 64.2566C81.4533 63.9162 81.4533 63.591 81.4747 63.2658Z" fill="white"/>
<path d="M52.4493 48.3612C52.4493 48.6864 52.738 49.6742 52.5496 49.8626C52.8535 50.2545 52.5862 50.8016 52.7898 51.2091C52.5679 51.6525 52.9934 52.2149 52.8386 52.6922C52.9598 52.8138 52.9419 53.2999 52.9419 53.4612C53.2153 53.8016 52.8748 54.3727 53.0967 54.5855C53.0632 54.8592 53.0784 55.9168 53.2336 55.9835C53.3338 57.947 54.0178 61.9345 51.2884 62.4816C50.8264 62.7858 47.2461 63.3935 47.0333 62.907C46.079 62.7034 45.2586 62.0561 44.5624 61.4087C44.5476 61.3245 44.5415 61.2391 44.5441 61.1537C44.5014 61.122 44.4606 61.0873 44.4225 61.0503C44.4225 60.8799 44.4408 60.7766 44.3192 60.658C44.2891 60.1292 44.2708 59.6187 44.2525 59.1052C44.7813 57.4517 45.3101 55.8135 45.8572 54.1783C45.795 54.1139 45.7382 54.0449 45.6871 53.9717H45.5899C45.3859 54.4154 45.0276 54.8074 44.9605 55.303C44.9162 55.3327 44.8754 55.3674 44.8392 55.4063C44.8907 55.6435 44.4134 56.5642 44.2769 56.701C44.0214 58.0991 43.596 59.3786 43.5441 60.8285C43.3741 61.4937 43.596 62.3115 43.5441 62.9955C43.6413 63.0428 43.7237 63.1148 43.7835 63.2044C43.8434 63.2944 43.8785 63.3981 43.8846 63.506C43.9486 63.5426 44.0024 63.5944 44.0413 63.6569C44.0801 63.7195 44.1026 63.7911 44.1065 63.8647C44.3131 63.965 44.6536 64.2048 44.6536 64.4724C44.705 64.4694 44.7565 64.4755 44.8057 64.4907C44.8026 64.5418 44.8087 64.5933 44.824 64.6425C44.9273 64.6608 45.0276 64.6791 45.1492 64.7096C45.1644 64.7641 45.1793 64.8129 45.1976 64.8827C45.3005 64.8975 45.4019 64.92 45.5014 64.9498C45.9422 65.2898 46.4134 65.1713 46.8297 65.3783C46.9182 65.3444 47.0097 65.3211 47.1035 65.3081C47.1218 65.3554 47.1443 65.4012 47.1702 65.445C47.9727 65.4267 49.5408 65.5819 50.2248 65.2414C50.7871 65.2414 52.2549 64.7279 52.5103 64.3295C53.3125 63.9376 54.0632 62.7461 54.3522 61.8982C54.4036 61.5395 54.4036 61.5395 54.4524 57.6675C54.4116 57.653 54.372 57.6359 54.3339 57.6157C54.3156 56.9168 54.3003 56.2176 54.3003 55.5188C54.1928 54.8764 54.1532 54.2244 54.1818 53.5736C54.027 53.4734 53.7197 49.2243 53.7197 49.0875C53.6682 49.0539 53.6682 48.6437 53.5496 48.0482C53.5607 47.8343 53.632 47.6277 53.7559 47.4527C53.8798 47.2781 54.0506 47.142 54.2488 47.0604C54.6922 46.6166 54.5222 45.4221 54.4036 44.8266C54.2668 44.6532 54.0449 44.5864 53.7715 44.3646C53.261 44.246 52.9023 43.5803 52.3037 43.5803C52.3037 43.9208 52.0147 45.185 52.1516 45.3219C52.1333 45.474 52.1333 45.474 52.0666 45.559C52.083 45.5968 52.1055 45.6318 52.1333 45.6623C51.887 46.1275 52.1424 48.0543 52.4493 48.3612Z" fill="white"/>
<path d="M65.8853 59.0716C65.7668 59.5668 66.3108 60.4361 66.0737 60.9134C66.1751 61.2062 66.2216 61.5154 66.2105 61.825C67.3611 61.9332 68.5171 61.9729 69.6723 61.9435C70.1492 62.1502 71.6994 62.0137 72.1432 61.9984C72.4165 62.4056 74.4623 61.8433 74.9575 62.2356C75.1611 62.0316 75.9816 62.2356 76.237 62.2871C77.1284 62.2039 78.0258 62.215 78.9145 62.3206C78.8295 61.5699 79.0514 60.7338 79.1181 59.9862C78.9481 59.7128 78.5104 59.2325 78.1791 59.2325C78.1639 59.1658 78.1456 59.099 78.1307 59.0472C78.0895 59.0335 78.0499 59.0159 78.0121 58.9957V58.8405C77.7384 58.7917 77.7079 58.7403 77.55 58.5184C77.1086 58.1959 76.7277 57.7978 76.4254 57.3422C76.0151 57.1356 75.8176 56.6918 75.4196 56.4547C75.1977 56.0109 74.2038 54.9198 73.7143 54.7314C73.0822 53.8805 71.0703 53.9991 70.1828 53.9808C69.9273 54.6129 69.5507 55.5519 69.0733 56.0292C69.2468 56.0628 69.5019 56.0109 69.5873 56.1992C69.6002 56.1687 69.6239 56.144 69.654 56.1295L70.3711 56.1813C70.3909 56.208 70.4081 56.2366 70.423 56.2663C71.2587 56.2663 74.1398 57.7494 74.3437 58.3937C74.8207 58.5306 75.5897 59.1627 75.0273 59.6579C74.8024 59.5032 73.2038 59.5032 72.7086 59.5729C72.6235 59.5032 72.6235 59.5032 71.6994 59.4361C71.3258 59.5882 69.7054 59.3846 69.2285 59.3148H67.4869C67.4683 59.2306 67.4568 59.1452 67.4534 59.0594C67.0279 57.7647 66.9429 56.3849 66.6512 55.0719C66.6512 54.5583 66.0889 51.6406 66.3291 51.4035L66.2105 51.2849C66.0889 49.3398 66.0889 49.3398 66.0401 49.1572C66.0519 49.1221 66.0756 49.092 66.1072 49.0722C65.9814 48.6928 65.9581 48.2872 66.0401 47.896C65.9311 47.4499 65.8903 46.9898 65.9189 46.5315C65.8518 46.1392 65.7851 45.7473 65.7332 45.3706C65.673 45.5345 65.5582 45.6726 65.408 45.7625C65.408 45.7808 65.0344 46.6165 65.0161 46.7534C65.1346 47.6043 65.5113 49.2757 65.238 50.1118C65.5418 50.8957 65.1529 52.0901 65.1861 52.9777C64.949 53.7955 64.7244 54.6312 64.5025 55.4669C64.3237 55.6666 64.1857 55.8988 64.095 56.1508C63.9066 56.3727 63.533 56.6766 63.533 57.0018C63.3443 57.1203 63.2593 57.1539 63.2078 57.3937C62.849 57.5641 62.6786 58.0018 62.2958 58.0594C62.1956 58.4848 61.4785 58.6675 61.223 59.0472C60.7095 59.1505 60.1654 59.5607 59.7369 59.8829C59.6851 59.8497 59.6515 59.8345 59.6183 59.8162C59.3293 60.0198 59.2443 60.2081 58.8189 60.2081C58.7796 60.2386 58.7502 60.2798 58.7338 60.3267C57.743 60.804 56.6854 61.1807 55.6945 61.5882C55.6579 61.8463 55.6247 62.1018 55.5912 62.3751C56.1535 62.3751 56.1535 62.3751 56.2904 62.4422C56.7159 62.4422 57.2778 62.2535 57.603 62.5787C57.6053 62.5208 57.6164 62.4632 57.6366 62.4087C57.7064 62.4087 58.8158 62.4087 58.9344 62.2871C59.7548 62.1502 60.5558 61.9153 61.3202 61.5882C61.4754 61.4026 61.4754 61.4025 62.3446 60.8375C62.6001 60.5188 62.899 60.2378 63.2318 60.0015C63.3321 59.8345 63.3172 59.7311 63.5361 59.661C63.6028 59.3571 63.2806 59.5424 63.8094 59.2538C63.928 58.8619 64.387 58.4665 64.387 58.1112C64.8487 57.412 65.1739 56.5065 65.6512 55.7921C65.7 55.8409 65.7 55.8409 65.6329 56.9499C65.6299 57.0776 65.7851 58.9683 65.8853 59.0716Z" fill="white"/>
<path d="M39.3679 57.3815C38.8391 57.1447 38.8391 57.1447 38.7602 57.0414C38.3317 57.0414 37.4289 56.9412 37.2252 57.3453C36.1827 57.8558 35.432 60.0563 36.9 60.5363C36.9699 60.7399 37.2039 60.8253 37.4106 60.8768C37.8027 60.8585 38.8269 60.807 39.0152 60.433C39.833 60.2294 39.8997 58.8981 39.9272 58.1993C39.7903 58.1143 39.772 57.9591 39.7568 57.7891L39.3679 57.3815ZM38.2253 59.7704C37.9698 59.7857 37.7145 59.8223 37.4744 59.8558C36.28 59.412 36.8088 58.5943 37.2708 57.8436C37.7145 57.7067 38.1399 57.5184 38.5837 57.7921C38.7872 58.0807 38.7872 58.0807 38.8875 58.1326C38.8875 58.4364 38.8875 58.7128 38.9058 59.0197C38.6351 59.2267 38.4045 59.481 38.2253 59.7704Z" fill="white"/>
<path d="M57.7159 60.3694H57.6492V60.4361H57.7159V60.3694Z" fill="white"/>
<path d="M80.4502 60.3694H80.3984V60.4361H80.4502V60.3694Z" fill="white"/>
<path d="M83.4857 58.032C83.3493 57.8436 82.8536 57.1204 83.042 56.8711C82.7168 56.4608 82.9722 55.9015 82.8536 55.5066C82.8536 54.3971 82.9238 52.3182 82.0694 51.4672C81.9996 51.2606 81.9329 51.057 81.8811 50.8595C81.8406 50.8443 81.801 50.8271 81.7625 50.8077C81.8143 50.6193 81.6592 50.4641 81.5406 50.3639C81.5925 50.1908 81.337 49.6132 81.337 49.3398C80.8932 48.7927 81.0789 47.1393 81.5589 46.6623C81.5406 46.5922 81.5227 46.5438 81.5074 46.4919C82.2734 45.726 81.422 45.1972 80.6534 45.6044C80.4316 45.8445 80.2097 46.0817 80.0061 46.3371C79.4952 46.4404 78.9149 47.2243 78.5379 47.5525C78.5043 47.7927 78.5043 47.7927 78.4193 47.8568C78.3846 48.3776 78.2699 48.8903 78.0789 49.3761C78.0979 49.4176 78.1204 49.4573 78.146 49.4946C78.0274 50.2819 78.234 50.5373 78.401 51.2362C78.5897 51.1847 78.9817 51.8652 79.4102 51.9869C79.939 52.5157 80.6534 51.9537 81.1151 51.6617C82.1548 51.5949 82.3946 53.5553 82.2734 54.306H82.4282C82.4228 54.6579 82.3706 55.0071 82.2734 55.3453C82.3161 55.3834 82.3618 55.4181 82.4099 55.4486C82.3584 55.5157 82.3584 55.5157 82.2581 56.6068C81.796 56.9835 81.9329 57.3423 81.7293 57.868C81.6958 58.2965 81.7777 58.7037 81.7293 59.0991C81.7648 59.1368 81.8044 59.1704 81.8479 59.1993C81.8143 59.5246 81.9844 60.0533 82.3248 60.1536C83.2761 59.6854 83.7595 59.0198 83.4857 58.032ZM79.6473 51.0417C79.3069 50.7863 78.9298 50.6651 78.8478 50.1877C78.7964 50.1694 78.7445 50.1542 78.7113 50.1389C78.5226 49.0783 79.0514 48.3307 80.1094 48.5343C80.1136 48.5812 80.125 48.6273 80.1426 48.6711H80.2977C81.0118 49.4855 80.7899 50.7318 79.6473 51.057V51.0417Z" fill="white"/>
<path d="M90.288 59.5154H90.2213V59.5821H90.288V59.5154Z" fill="white"/>
<path d="M59.2657 49.6407C59.6062 49.3002 60.5456 49.1633 60.5456 49.8626H60.7854C60.7892 49.9373 60.8003 50.0116 60.8189 50.0844C60.8731 50.1222 60.9299 50.1557 60.9894 50.1847C61.0744 50.5797 61.5029 50.8687 61.5029 51.2423C62.2353 51.6708 62.4724 53.2057 63.2048 53.7498C63.2048 53.9717 63.4267 54.0933 63.53 54.2969H63.8705C63.8705 54.075 63.8705 53.8531 63.8888 53.6495C63.8552 53.0418 63.5483 52.5401 63.5483 51.993C63.1045 51.6708 63.0012 50.2728 62.5757 50.0661C62.5239 49.8107 62.2867 49.7257 62.2353 49.4371C61.8582 49.3185 61.9314 48.7867 61.5879 48.6864C61.4846 48.2762 60.7339 47.7988 60.7675 47.3917C59.9516 46.6726 59.066 46.0371 58.1231 45.495C58.0896 45.4465 58.0564 45.3947 58.0381 45.3615C57.6126 45.328 56.6065 44.7809 56.3179 45.1396C56.4879 45.8202 56.0442 46.5041 56.4879 47.1667C56.5398 47.662 56.7098 47.7474 56.8951 48.2274C57.5032 48.4645 58.0743 49.2667 58.5002 49.747C58.7598 49.7623 59.0202 49.7261 59.2657 49.6407Z" fill="white"/>
<path d="M83.1796 38.2829C83.0069 38.4381 82.8826 38.6397 82.8208 38.8635C82.7358 38.8815 82.6504 38.8967 82.5806 38.915C82.4956 39.0671 82.4106 39.2372 82.3252 39.4076C81.7785 39.766 80.7571 41.0454 80.1098 41.0454V40.8239C79.6843 40.5685 79.4441 40.0912 79.0674 39.7477C78.9489 40.1945 78.8303 40.6383 78.7117 41.0973C78.8303 41.4194 78.4715 43.7748 78.897 43.9784C79.1372 43.8751 79.6294 43.5865 79.7178 43.331C80.1201 43.145 80.467 42.8568 80.7236 42.4953L80.894 42.5472C81.064 42.4103 81.064 42.0001 81.438 42.0515C81.4983 42.018 81.5509 41.9715 81.5924 41.9162C81.6336 41.8605 81.663 41.7969 81.6778 41.7294H81.9333C81.9295 41.6551 81.9356 41.5803 81.9516 41.5075C82.0164 41.4762 82.0846 41.453 82.1552 41.4377C82.1521 41.3863 82.1582 41.3348 82.1735 41.2856C82.3313 41.1838 82.4956 41.0923 82.6657 41.0123C83.7053 39.766 85.2067 38.8452 86.5228 37.9243C86.7931 38.1979 86.9814 38.4529 87.3737 38.5048C87.6989 38.9669 87.6989 38.9669 87.8175 39.0153C87.8019 39.0664 87.7981 39.1205 87.8072 39.1735C87.8164 39.2261 87.8373 39.2761 87.869 39.3191L88.0543 39.371C88.0413 39.4491 88.036 39.5288 88.0394 39.6081C88.0909 39.6413 88.158 39.6779 88.2277 39.7297C88.158 39.8815 89.0634 41.5014 89.2338 41.7568C88.8751 42.1335 88.5682 42.6684 88.0909 42.8995C87.954 43.3432 87.4587 43.3585 87.2552 43.7687L87.0668 43.8206C87.0447 43.856 87.0333 43.8972 87.0333 43.9391C86.7595 43.9753 86.538 44.0756 86.4709 44.3158C85.5136 44.723 84.5593 45.2033 83.538 45.4069C83.1727 44.9182 83.0076 44.3085 83.0763 43.702C83.0244 43.6322 83.0244 43.4801 82.684 42.7294H82.5322C82.3771 42.933 82 43.787 82.1887 43.9753C82.0884 44.1458 82.2585 44.4008 82.0518 44.5045C82.0701 45.5255 82 45.6441 82.0183 45.9357C81.8852 46.2842 81.8616 46.6651 81.9516 47.0269C81.7964 47.2487 81.9516 47.5557 81.9668 47.8111C81.9314 47.8153 81.8974 47.8267 81.8666 47.8446C82.0702 47.9811 82.0885 49.1424 82.1216 49.3643L82.2737 49.4158C82.4396 49.3586 82.5791 49.2431 82.6657 49.0906C83.5017 48.8203 83.5776 48.3063 84.4072 48.7867C84.4922 49.5557 84.2703 50.7833 84.2189 51.4825C84.4167 51.8752 84.6627 52.242 84.9513 52.5737C85.1914 53.1814 85.6688 53.3244 86.249 53.5462V53.6648C86.3463 53.5851 86.4477 53.5112 86.5529 53.4429C86.5014 53.1391 86.3829 52.9141 86.249 52.4368C86.0645 52.2126 85.9467 51.9408 85.9086 51.6526C85.3009 50.8535 86.079 50.6468 86.079 49.9293C86.1129 49.8984 86.1533 49.8756 86.1976 49.8626C86.1854 49.8066 86.1804 49.7494 86.1823 49.6926C86.4042 49.6926 87.3066 49.7776 87.4435 49.6407C87.9898 49.683 88.5392 49.6655 89.0817 49.5889C89.5255 49.6224 90.9571 49.7776 91.3643 49.5404C92.1847 49.5889 95.0327 49.2152 94.9476 49.8443C95.0227 49.9167 95.0811 50.0044 95.1196 50.1013C95.1577 50.1985 95.1749 50.3026 95.1695 50.4066C95.3079 50.5397 95.4124 50.7044 95.4734 50.8866C95.7955 50.9354 96.1207 51.0052 96.4612 51.0723C96.4917 51.0083 96.526 50.9465 96.5645 50.8866C96.4459 50.6983 95.9564 49.8443 95.7288 49.8443C95.5248 49.4707 95.4246 49.0936 95.0479 48.8717C95.0277 48.7768 95.0155 48.68 95.0113 48.5831C94.6556 48.2941 93.8687 46.0268 93.972 45.6837C93.8904 45.6063 93.8279 45.511 93.7894 45.4058C93.7509 45.3002 93.7375 45.1873 93.7501 45.0756C93.5042 44.7275 93.3308 44.3341 93.2396 43.9178C93.2019 43.8998 93.1619 43.8876 93.1211 43.8812C93.0177 43.5773 92.7623 43.2186 92.8473 42.9269C92.7623 42.8419 92.6925 42.7569 92.6254 42.6898C92.3216 42.0241 91.2792 39.4987 90.7139 39.313C90.6956 39.2128 90.6841 39.1114 90.6803 39.0092C90.0726 38.5837 89.9479 37.7936 89.4344 37.3559C88.9754 37.3559 88.3798 36.0612 87.954 35.7877C87.8842 35.4624 87.0668 34.6449 86.8083 34.5932C86.7931 34.5081 86.7748 34.423 86.7595 34.3531C86.7149 34.3415 86.6692 34.3364 86.623 34.3379C86.4343 34.6966 86.1457 35.0187 86.0942 35.1737C85.4618 35.4108 85.2734 36.2314 84.7111 36.6052C84.1823 37.2526 84.0122 37.3559 83.2616 38.2951C83.2353 38.2852 83.2074 38.281 83.1796 38.2829ZM90.2884 44.5926C90.2678 44.6288 90.2564 44.6692 90.2548 44.7112C90.6471 44.9998 90.9903 45.2914 90.9903 45.8538C91.0486 45.8717 91.1058 45.8942 91.1607 45.9205C91.1424 45.9723 91.1241 46.0238 91.1088 46.0756C91.4127 46.2792 91.808 47.8324 91.7745 48.2427C91.6544 48.245 91.5347 48.2553 91.4157 48.2732C91.397 48.2305 91.3848 48.1855 91.3795 48.1394C91.2587 48.1771 91.1397 48.2217 91.0238 48.2732C90.7836 48.1546 90.4615 48.2427 90.2731 48.121C90.1698 48.2244 87.8415 48.0543 87.6806 47.951C87.6463 47.9644 87.6166 47.9876 87.5956 48.0177C87.1854 47.7474 86.5559 48.0696 86.0759 47.8324C85.9021 47.9003 85.7122 47.9182 85.5289 47.8839C85.6139 47.3185 86.4679 46.4344 86.9967 46.2457C86.9826 46.1839 86.9761 46.1206 86.9784 46.0573C87.2826 45.869 87.3188 45.7535 87.5075 45.6837C87.9361 45.0028 89.5224 44.4222 90.2884 44.5926Z" fill="white"/>
<path d="M91.9934 53.3757H91.9263V53.4459H91.9934V53.3757Z" fill="white"/>
<path d="M26.5084 52.4368C26.5302 52.4623 26.5476 52.4909 26.5601 52.5218H26.7455C26.6786 52.3182 26.4233 52.2515 26.2683 52.0963C26.2657 52.205 26.2718 52.314 26.2865 52.4215C26.3607 52.4204 26.435 52.4257 26.5084 52.4368Z" fill="white"/>
<path d="M26.0829 52.1665C26.0566 52.1501 26.0279 52.1375 25.9978 52.1299V52.2515C26.0155 52.2141 26.0456 52.184 26.0829 52.1665Z" fill="white"/>
<path d="M25.9308 51.911H25.8275V52.0143H25.9308V51.911Z" fill="white"/>
<path d="M94.8779 43.5014L94.9294 43.8052C95.3884 44.2643 95.5584 44.8964 95.8413 45.4919C95.9808 45.5742 96.0967 45.6913 96.1776 45.8323C96.258 45.973 96.3003 46.1324 96.3 46.2944C96.5215 46.4671 96.682 46.7054 96.759 46.9753C97.3671 47.1637 97.4429 49.2091 97.6465 49.7562C97.8291 49.7581 98.0095 49.7985 98.1753 49.8747C98.2024 49.8534 98.2317 49.8362 98.2634 49.8229C98.3637 49.2152 98.4491 48.3917 98.1936 47.811C98.2073 47.7474 98.2245 47.6845 98.2451 47.6227C98.0709 47.4027 97.9649 47.1362 97.9412 46.8568C97.8856 46.8427 97.8284 46.8366 97.7712 46.8385C97.7693 46.7771 97.7548 46.7168 97.7285 46.6616C97.7026 46.6063 97.6652 46.5567 97.6191 46.5163V46.2124C97.5524 46.1941 97.4822 46.1789 97.4307 46.1606C97.3274 45.7168 96.9019 45.3764 96.595 45.018C96.6984 44.8811 96.221 43.8022 96.0842 43.62C96.0842 43.0576 95.6225 42.562 95.3335 42.1186C95.0678 42.0991 94.8013 42.1346 94.5496 42.2219C94.5222 42.5803 94.5008 43.3161 94.8779 43.5014Z" fill="white"/>
<path d="M40.5959 44.1152C40.5928 44.0237 40.5982 43.9322 40.6111 43.8419C40.8513 43.7748 41.4503 43.1274 41.4503 42.8693C41.3287 42.8872 41.3287 42.8872 40.6996 42.5986C40.5959 42.7172 40.5959 42.7172 40.5627 42.9726C40.313 43.249 40.1365 43.583 40.0492 43.9452C39.6946 44.0721 39.3179 44.1236 38.9428 44.0969C38.6778 43.485 38.2741 42.9429 37.7634 42.5136C37.6038 42.1484 37.3996 41.8045 37.1556 41.4892C37.0219 40.772 35.8943 40.7206 35.3168 40.7053C35.4688 41.0458 36.0675 41.9665 36.4231 42.1365C36.5933 42.4953 37.1404 42.6836 37.1404 43.0912C37.2088 43.0881 37.2773 43.0942 37.344 43.1091C37.5507 43.4133 38.4533 44.2856 37.9519 44.6593C38.0035 44.7626 38.0035 44.7626 37.9519 45.495H38.2954C38.4319 45.3097 38.5993 45.1213 38.7392 44.933C39.2161 45.1728 38.9123 45.6501 39.0431 46.0939C38.923 46.2689 38.8143 46.4515 38.7179 46.641C38.496 46.641 38.414 46.5194 38.2893 46.3825V46.1972C38.1372 46.1275 38.0704 45.957 37.8972 45.957C37.8972 46.5648 38.3926 47.0329 38.8879 47.4069C39.0705 47.1831 39.2409 46.9498 39.3988 46.7077C39.6874 46.7077 39.8242 47.0665 40.0309 47.2182C40.1456 47.1324 40.2653 47.0531 40.3893 46.9815C40.4381 46.6563 40.2859 45.5983 40.3893 45.495C40.3629 45.0409 40.3793 44.5849 40.4381 44.1335C40.4891 44.1183 40.5429 44.1118 40.5959 44.1152Z" fill="white"/>
<path d="M77.0399 46.3855H76.9881V46.4553H77.0399V46.3855Z" fill="white"/>
<path d="M77.2249 40.3981C77.0728 40.3283 77.0728 40.3283 76.5958 39.8845C74.4681 39.5292 74.839 42.2734 75.1276 43.4831C74.4471 43.9967 74.8024 44.9845 74.9057 45.6502C75.2645 45.872 75.3495 46.0756 75.775 46.1789C75.7918 46.2491 75.815 46.3173 75.8451 46.3825C75.9382 46.3448 76.035 46.3162 76.1337 46.2975C77.687 46.8782 77.7201 44.0302 77.4132 43.2582C77.4315 43.1549 77.4468 43.0699 77.4651 42.9848C77.9939 42.2551 77.5653 41.0973 77.2249 40.3981ZM76.833 45.2003C76.6221 45.2883 76.406 45.3623 76.1856 45.4222C76.1463 45.3825 76.0987 45.3528 76.0457 45.3352C75.9927 45.3177 75.9366 45.3131 75.8814 45.3219C75.8665 45.2338 75.8482 45.1488 75.8299 45.0817C75.2222 44.6715 75.693 43.4282 76.547 43.7355C76.6461 43.8983 76.78 44.0375 76.9393 44.1427C76.9592 44.4988 76.9233 44.8556 76.833 45.2003ZM77.003 42.5925C76.8314 42.7504 76.6221 42.8613 76.3953 42.9147C76.1585 42.806 75.9477 42.6474 75.7773 42.4503C75.6069 42.2532 75.4807 42.0222 75.4075 41.7721C75.4559 41.0729 75.5413 40.4438 76.3953 40.4438L76.8539 40.6992C76.8509 40.7503 76.857 40.8018 76.8722 40.851C76.9279 40.8719 76.9847 40.8891 77.0426 40.9028C77.1341 41.2299 77.1753 41.5693 77.1643 41.9089C77.003 42.0851 77.0213 42.3436 77.003 42.5986V42.5925Z" fill="white"/>
<path d="M58.0598 45.0878H57.9896V45.1396H58.0598V45.0878Z" fill="white"/>
<path d="M64.7763 38.0792C64.1686 37.2768 63.6184 36.985 62.5608 37.0884C62.3721 37.3923 61.8433 37.3437 61.6916 37.6537C60.5822 38.4197 61.0076 38.9668 60.9074 40.085L61.111 40.3404C61.196 40.854 61.6733 40.8875 62.0835 41.1761C62.339 41.0061 63.1079 41.0758 63.363 41.0758C64.6063 40.4498 64.9982 39.459 64.7763 38.0792ZM64.0775 38.9485C64.042 38.9527 64.0077 38.9641 63.9768 38.982C63.9749 39.0621 63.9799 39.1425 63.9921 39.2218C63.5666 39.6808 63.5666 39.6808 63.448 39.7327V39.8513H63.3447V39.9725C63.1682 39.9462 62.9878 39.9817 62.8342 40.0728C62.4377 40.056 62.0637 39.8848 61.7919 39.5958V39.2039C61.7614 39.1845 61.7271 39.173 61.6916 39.1704C61.6916 38.6568 61.8769 38.5897 61.9955 38.2313C62.1472 38.1642 62.1838 38.061 62.2326 37.909C62.5704 37.6993 62.9623 37.5936 63.3599 37.6051C63.4991 37.7287 63.6695 37.8118 63.8525 37.8452C63.8556 38.2676 64.1289 38.4528 64.0775 38.9485Z" fill="white"/>
<path d="M58.3819 37.0885C58.4155 37.4137 58.6858 38.1308 58.99 38.3347L59.4487 38.2829C59.5341 38.1308 59.6374 37.9091 59.8593 37.9425C60.2512 37.6872 60.5398 36.8331 60.9169 36.4593C61.0515 35.9504 61.308 35.482 61.6645 35.0947C61.6493 35.0593 61.6317 35.0249 61.6127 34.9914C61.9497 34.484 62.2417 33.948 62.485 33.3897C63.0931 32.4779 63.7644 31.5144 64.3085 30.5935H64.4331C64.5365 30.2683 64.8285 29.7395 65.2357 29.7395C65.3211 30.0296 65.4225 30.3147 65.5395 30.5935C65.7462 31.9551 65.7797 33.3288 66.0199 34.6844C65.9833 34.6881 65.9482 34.6995 65.9166 34.7178L65.965 35.0765H66.0866C65.9833 35.6843 66.2235 36.2527 66.1533 36.8331C66.4088 37.0885 66.564 39.459 66.5457 40.0912C66.6307 40.1293 66.702 40.1918 66.7508 40.2707C66.7996 40.35 66.8236 40.4423 66.819 40.5349C66.9376 40.5685 67.0744 40.602 67.2113 40.6535C67.7733 40.5685 67.9952 40.5837 68.4267 40.1583C68.6639 39.4773 69.3387 38.435 69.3387 37.7267C69.1351 37.7085 68.9315 37.7085 68.731 37.7085C68.7108 37.7356 68.6944 37.7652 68.6822 37.7966C68.5179 37.776 68.3524 37.7639 68.1869 37.7602C68.1073 37.5257 67.9803 37.3104 67.8129 37.128C67.6761 36.5657 66.3268 32.7484 66.8038 32.2651C66.7553 32.1982 66.7035 32.1466 66.6673 32.0949C66.7233 32.0093 66.7492 31.9074 66.7401 31.8053C66.7313 31.7033 66.6886 31.6073 66.6185 31.5326C66.737 31.2956 66.6673 29.931 66.6673 29.5905C66.766 29.4318 66.8087 29.2446 66.7885 29.0587C67.3638 28.1854 68.1656 27.4848 69.1077 27.0315C69.3021 26.7385 69.5663 26.4983 69.8766 26.3324C69.7886 26.1622 70.1652 25.992 70.2503 25.9404C70.4207 25.5635 70.7428 25.2565 70.8126 24.8128C70.5949 24.7928 70.3856 24.7174 70.2049 24.5939C69.1473 24.5939 68.0562 23.9861 66.9467 23.9101C66.7946 23.7581 63.7583 23.1594 63.3847 23.3478C63.3916 23.3958 63.3889 23.4446 63.3771 23.4916C63.3649 23.5385 63.3439 23.5826 63.3149 23.6214C63.3329 23.6214 63.3481 23.67 63.3847 23.7065C63.3847 24.524 63.7587 25.293 63.9623 26.0741C64.2357 26.5026 64.9711 28.0891 64.3573 28.3961C64.1354 29.0039 63.5216 29.3839 63.3149 30.016C62.9562 30.3199 62.7343 31.0555 62.403 31.2317C62.3881 31.282 62.382 31.3344 62.3847 31.3868C62.1811 31.5235 61.9958 31.6603 61.8075 31.8123C61.7038 32.1162 60.9199 33.262 60.5917 33.262C60.4884 33.8243 59.6191 33.9276 59.6191 34.3865C59.5448 34.3829 59.47 34.389 59.3972 34.4048C59.377 34.4541 59.3656 34.5066 59.3637 34.5598C58.8532 34.7786 58.3758 35.1676 57.8623 35.3074C57.9473 35.9396 58.1177 36.4867 58.2542 37.0976L58.3819 37.0885ZM69.0741 25.141C69.1042 25.1478 69.1328 25.1591 69.1595 25.1744C69.1256 25.1889 69.0962 25.212 69.0741 25.2413V25.141ZM66.0561 25.1593C66.7553 25.2413 67.4542 25.4632 68.1381 25.5665V25.7732C67.5575 26.2655 67.132 26.8825 66.4999 27.3597C66.4797 27.4132 66.4686 27.4697 66.4664 27.5269H66.2963C66.1411 27.2989 65.8342 25.372 66.0561 25.141V25.1593Z" fill="white"/>
<path d="M54.3247 26.1256C54.4097 26.2442 54.4429 26.5664 54.5466 26.7882C54.425 27.624 54.8352 28.5297 54.8867 29.3807C55.0235 30.1162 55.2271 31.0858 55.1086 31.8365C55.194 32.3136 55.449 35.2982 55.1086 35.6417C55.1387 35.6619 55.1669 35.6843 55.194 35.7085C55.194 36.2708 54.68 36.5778 54.2576 36.903C54.3579 37.447 55.1269 37.9941 55.1269 38.4528C55.5523 38.5565 55.9111 39.5623 56.2515 39.9027C56.2763 40.0464 56.3339 40.1829 56.4197 40.3011C56.5055 40.4189 56.6175 40.5158 56.7468 40.5836C57.2908 40.4315 56.6618 35.4016 56.8139 34.5323C56.7803 34.4958 56.7106 32.4048 56.8288 32.2802C56.5249 30.6603 56.6435 28.8701 56.5249 27.232C56.5394 27.1974 56.5638 27.1677 56.595 27.1469C56.4399 26.9432 56.6099 26.6515 56.4063 26.4478C56.3213 25.1683 56.2363 23.8887 56.1665 22.6274C55.8722 22.5875 55.5741 22.5937 55.282 22.6457C55.282 22.5981 55.2938 22.5512 55.3152 22.5089C54.99 22.594 54.3247 22.594 53.8992 22.6791C53.9171 22.6973 53.9507 22.7125 53.9842 22.746C54.051 23.7368 54.4764 25.305 54.3247 26.1256ZM56.6252 39.8024H56.6953V39.8512H56.6252V39.8024Z" fill="white"/>
<path d="M56.6922 39.8025H56.6251V39.8543H56.6922V39.8025Z" fill="white"/>
<path d="M58.1597 39.3923H58.1082V39.4591H58.1597V39.3923Z" fill="white"/>
<path d="M69.9037 32.7391C69.837 33.4899 70.7062 34.1707 71.3353 34.4776C71.4722 34.973 72.3776 35.3651 72.8397 35.4684C72.8588 35.5129 72.8752 35.5586 72.8885 35.6052C73.025 35.5687 73.025 35.5687 73.3323 35.6569V35.7754C73.5031 35.7375 73.6819 35.7545 73.8428 35.824C74.6632 35.6903 76.0796 35.8757 76.6572 35.125C76.7269 33.9093 76.7269 33.9093 76.794 33.812C76.6652 33.4193 76.5965 33.0095 76.5901 32.5963L76.6934 32.5446C76.6614 32.5274 76.6263 32.516 76.5901 32.5112C76.5386 32.1526 76.3167 31.7787 76.3167 31.3867C76.8272 31.028 78.1585 32.4778 78.7209 32.6632C78.7346 32.7505 78.7582 32.8362 78.7907 32.9185C79.2497 33.0735 79.2832 33.0218 79.6599 33.4139L79.9153 33.4655C79.9302 33.5356 79.9527 33.6039 79.9821 33.6692C80.0564 33.6668 80.1311 33.6729 80.2039 33.6874C80.3225 33.9275 80.8361 34.1129 81.0915 34.2011C81.6203 33.8059 83.5227 33.9944 83.827 33.4139C83.6382 33.2954 83.538 33.11 83.313 32.9732C83.3012 32.8998 83.2959 32.8256 83.2978 32.7513C82.8544 32.6632 82.2402 32.1009 81.9851 31.7423C81.83 31.8122 80.7693 30.7545 80.4655 30.7545C80.3984 30.5508 80.2619 30.4992 80.0579 30.4658C79.8555 30.1792 79.5779 29.9542 79.2558 29.8153C78.6267 29.0829 77.5356 28.6908 76.7849 28.01C76.4807 28.01 75.3868 28.3504 75.1619 28.5723H74.8398C74.396 29.016 73.5934 28.8458 73.7151 29.5783L73.8153 29.63C73.9026 29.8343 73.9442 30.0552 73.9369 30.2773C74.4474 30.7211 74.1924 32.341 74.1558 32.7999C73.3899 33.7117 72.3654 33.6357 71.2594 33.3136C71.2411 33.2619 71.2228 33.2102 71.2076 33.1768C70.7966 33.1021 70.4199 32.8989 70.1317 32.5963C70.0493 32.633 69.9727 32.6811 69.9037 32.7391Z" fill="white"/>
<path d="M47.811 26.4813C47.6559 26.4479 47.6559 26.4479 47.5708 26.5329C47.4317 26.5143 47.2906 26.5321 47.1606 26.5846C46.9387 26.8065 45.0329 27.4964 44.6196 27.4964C43.8689 27.8398 43.6318 28.0252 43.0999 28.2805C42.6382 28.3414 42.2101 28.5554 41.8841 28.8884C41.7293 29.4963 41.3039 30.408 41.6775 31.0371H41.9817C42.6108 30.5752 43.9238 30.6603 44.6592 30.6968C44.8445 30.7636 45.0329 30.8335 45.2216 30.9186L45.954 31.8061C45.933 31.8727 45.9299 31.9437 45.9448 32.0119C45.9597 32.0801 45.9921 32.1433 46.039 32.1951C46.039 33.3744 44.5921 33.5598 43.8415 34.1585C43.7564 34.1403 43.7564 34.1403 43.5376 34.2406C43.5357 34.514 43.5818 34.7856 43.6745 35.0429C44.5254 34.8728 45.4827 34.7724 46.267 34.3773C47.0512 34.4655 48.1755 33.9001 48.6711 33.3045C49.1298 33.0826 49.5583 32.265 49.6769 31.7362C49.6769 30.6968 48.3821 30.3716 47.6132 30.0646C47.5499 30.0608 47.4862 30.0669 47.4248 30.0828C47.3955 30.018 47.3619 29.9551 47.3246 29.8944H46.9143C46.8808 29.8427 46.8446 29.8093 46.8293 29.7759C46.511 29.7504 46.1964 29.6871 45.893 29.5874C46.0085 29.3838 47.6986 28.8884 48.0207 28.8884C48.975 28.4112 50.3395 28.4447 51.2606 27.8976C51.6525 27.2168 51.6861 26.0223 51.8408 25.2382C51.8347 25.22 47.978 26.1257 47.811 26.4813Z" fill="white"/>
<path d="M41.9085 26.4661C41.9279 26.4919 41.9451 26.5193 41.96 26.5482C42.2154 26.4296 43.1361 26.3962 43.2032 26.2959C43.7351 26.1591 44.2608 25.5786 44.7561 25.5786V25.4236C45.3641 25.3051 45.8655 24.3508 46.58 24.2322C46.7164 23.8219 48.063 23.4967 48.3516 23.6244C48.3722 23.5934 48.402 23.5699 48.4366 23.5575L49.5796 23.6092C49.7577 23.3915 49.8591 23.1213 49.8682 22.8402C49.4794 22.822 47.0203 22.4816 46.8503 22.7551C45.5041 23.0438 45.0267 24.2383 43.8109 24.7489C43.2032 25.3568 40.653 25.0528 41.3523 26.4388C41.5345 26.4479 41.7202 26.4479 41.9085 26.4661ZM49.2937 23.1897H49.4123V23.2597H49.2937V23.1897Z" fill="white"/>
<path d="M69.1587 25.1683C69.1321 25.153 69.1035 25.1417 69.0737 25.1349V25.2352C69.0958 25.2058 69.1252 25.1828 69.1587 25.1683Z" fill="white"/>
<path d="M49.4131 23.1927H49.2945V23.2596H49.4131V23.1927Z" fill="white"/>
</svg>
