<svg width="127" height="33" viewBox="0 0 127 33" fill="none" xmlns="http://www.w3.org/2000/svg">
<g clip-path="url(#clip0_5_2)">
<path d="M0.44043 1.78003H4.43042L10.2004 13.2L15.9004 1.78003H19.8104V18.48H15.7104V7.59006L10.2604 18.48H8.67044L3.04044 7.46005V18.48H0.44043V1.78003Z" fill="#006CB7"/>
<path d="M27.1308 5.8999V14.7799C27.1308 15.0299 27.1808 15.2599 27.2708 15.4699C27.3708 15.6799 27.5008 15.8699 27.6708 16.0299C27.8408 16.1899 28.0408 16.3199 28.2608 16.4099C28.4908 16.4999 28.7208 16.5499 28.9708 16.5499C29.1208 16.5499 29.2808 16.5099 29.4508 16.4299C29.6208 16.3499 29.8008 16.2399 29.9908 16.0999C30.1708 15.9599 30.3508 15.7899 30.5308 15.5999C30.7108 15.4099 30.8708 15.2099 31.0108 14.9799V5.8999H34.8308V18.4899H31.0108V17.3199C30.5108 17.7499 29.9808 18.0999 29.4108 18.3499C28.8408 18.5999 28.2908 18.7299 27.7508 18.7299C27.1208 18.7299 26.5408 18.6299 26.0008 18.4199C25.4608 18.2099 24.9908 17.9299 24.5908 17.5699C24.1908 17.2099 23.8708 16.7899 23.6408 16.3099C23.4108 15.8299 23.3008 15.3199 23.3008 14.7799V5.8999H27.1308Z" fill="#006CB7"/>
<path d="M41.5903 18.4901H37.7803V5.90015H41.5903V6.84015C42.0203 6.41015 42.4903 6.06013 42.9903 5.79013C43.4903 5.52013 44.0303 5.39014 44.6103 5.39014C44.9503 5.39014 45.2703 5.44012 45.5703 5.53012C45.8703 5.62012 46.1303 5.75015 46.3603 5.90015C46.5803 6.06015 46.7603 6.24012 46.8903 6.44012C47.0203 6.65012 47.0803 6.87013 47.0803 7.10013C47.0803 7.32013 47.0403 7.53014 46.9503 7.71014C46.8603 7.90014 46.7403 8.06012 46.5903 8.19012C46.4403 8.32012 46.2603 8.42014 46.0603 8.49014C45.8603 8.56014 45.6503 8.60013 45.4203 8.60013C45.1203 8.60013 44.8703 8.55013 44.6803 8.45013C44.4903 8.35013 44.3103 8.25014 44.1503 8.14014C43.9903 8.03014 43.8303 7.93014 43.6703 7.83014C43.5103 7.73014 43.3103 7.68015 43.0603 7.68015C42.9303 7.68015 42.8003 7.73014 42.6703 7.83014C42.5403 7.93014 42.4103 8.06012 42.2903 8.22012C42.1703 8.38012 42.0403 8.57012 41.9303 8.78012C41.8103 8.99012 41.7003 9.21015 41.6003 9.43015V18.4901H41.5903Z" fill="#006CB7"/>
<path d="M56.3103 9.86011C56.3103 9.22011 56.1803 8.7201 55.9303 8.3801C55.6803 8.0401 55.3803 7.87012 55.0403 7.87012C54.8703 7.87012 54.6903 7.90009 54.4703 7.97009C54.2603 8.04009 54.0303 8.13009 53.8003 8.25009C53.5703 8.37009 53.3303 8.52009 53.0803 8.69009C52.8403 8.86009 52.6003 9.0501 52.3703 9.2601V18.4801H48.5303V5.89011H52.3703V6.87012C52.9503 6.44012 53.5803 6.1201 54.2503 5.9201C54.9303 5.7201 55.6003 5.62012 56.2703 5.62012C56.7903 5.62012 57.2803 5.7201 57.7403 5.9201C58.2003 6.1201 58.6103 6.40011 58.9603 6.74011C59.3103 7.08011 59.5903 7.4901 59.7903 7.9501C59.9903 8.4101 60.1003 8.9101 60.1003 9.4501V18.4601H56.2903V9.86011H56.3103Z" fill="#006CB7"/>
<path d="M63.1709 1.87003C63.1709 1.61003 63.2209 1.37001 63.3309 1.14001C63.4409 0.920015 63.5809 0.720018 63.7709 0.550018C63.9509 0.380018 64.1709 0.250024 64.4209 0.150024C64.6709 0.0500244 64.9309 0 65.2209 0C65.5109 0 65.7709 0.0500244 66.0309 0.150024C66.2809 0.250024 66.5009 0.380018 66.6909 0.550018C66.8709 0.720018 67.0209 0.920015 67.1309 1.14001C67.2409 1.37001 67.3009 1.61003 67.3009 1.87003C67.3009 2.13003 67.2409 2.37003 67.1309 2.59003C67.0209 2.82003 66.8709 3.01002 66.6909 3.18002C66.5109 3.35002 66.2909 3.48002 66.0309 3.58002C65.7709 3.68002 65.5109 3.73001 65.2209 3.73001C64.9309 3.73001 64.6709 3.68002 64.4209 3.58002C64.1709 3.48002 63.9609 3.35002 63.7709 3.18002C63.5909 3.01002 63.4409 2.81003 63.3309 2.59003C63.2309 2.36003 63.1709 2.12003 63.1709 1.87003ZM63.3409 6.57001L67.1509 5.52002V18.48H63.3409V6.57001Z" fill="#006CB7"/>
<path d="M74.78 10.1199C74.78 11.2099 74.94 12.1599 75.27 12.9899C75.6 13.8199 76.03 14.5099 76.57 15.0799C77.11 15.6399 77.74 16.0699 78.44 16.3599C79.14 16.6499 79.88 16.7999 80.64 16.7999C81.23 16.7999 81.78 16.6999 82.28 16.4999C82.79 16.2999 83.26 16.0299 83.7 15.6899C84.14 15.3499 84.55 14.9499 84.94 14.4999C85.33 14.0399 85.7 13.5699 86.04 13.0699L87.75 14.3299C87.39 14.9299 86.95 15.4999 86.42 16.0499C85.9 16.5999 85.31 17.0799 84.66 17.5099C84.01 17.9299 83.3 18.2699 82.54 18.5199C81.78 18.7699 80.97 18.8899 80.11 18.8899C78.67 18.8899 77.35 18.6799 76.14 18.2599C74.93 17.8399 73.89 17.2499 73.01 16.4899C72.13 15.7299 71.45 14.8099 70.95 13.7399C70.46 12.6699 70.21 11.4699 70.21 10.1599C70.21 8.88991 70.44 7.71993 70.91 6.64993C71.38 5.57993 72.04 4.64991 72.88 3.87991C73.73 3.09991 74.74 2.49991 75.93 2.05991C77.12 1.62991 78.43 1.40991 79.86 1.40991C80.83 1.40991 81.71 1.51991 82.51 1.74991C83.31 1.97991 84.04 2.28991 84.69 2.68991C85.34 3.08991 85.93 3.56993 86.44 4.11993C86.95 4.66993 87.41 5.27991 87.79 5.93991L86.05 7.14993C85.7 6.64993 85.32 6.17992 84.9 5.72992C84.49 5.27992 84.05 4.88991 83.58 4.55991C83.12 4.21991 82.62 3.95993 82.1 3.76993C81.58 3.57993 81.04 3.47992 80.48 3.47992C79.71 3.47992 78.97 3.62992 78.28 3.91992C77.58 4.20992 76.98 4.63992 76.45 5.19992C75.93 5.75992 75.51 6.45992 75.2 7.28992C74.94 8.07992 74.78 9.02993 74.78 10.1199Z" fill="#20BEC6"/>
<path d="M100.65 18.4901H96.8103V17.4801C96.6003 17.6501 96.3903 17.8201 96.1903 17.9701C95.9903 18.1201 95.7603 18.2501 95.5203 18.3601C95.2803 18.4701 95.0003 18.5601 94.6803 18.6201C94.3603 18.6801 93.9903 18.7201 93.5703 18.7201C92.9903 18.7201 92.4703 18.6401 92.0003 18.4701C91.5303 18.3001 91.1403 18.0801 90.8203 17.7901C90.5003 17.5001 90.2503 17.1601 90.0803 16.7601C89.9003 16.3601 89.8203 15.9301 89.8203 15.4701C89.8203 14.9801 89.9103 14.5401 90.1003 14.1601C90.2803 13.7701 90.5403 13.4201 90.8503 13.1101C91.1703 12.8001 91.5403 12.5201 91.9703 12.2701C92.4003 12.0201 92.8603 11.7901 93.3403 11.5901C93.8303 11.3801 94.3303 11.1901 94.8503 11.0201C95.3703 10.8501 95.8903 10.6801 96.4003 10.5201L96.8103 10.4201V9.1601C96.8103 8.3601 96.6603 7.7901 96.3503 7.4501C96.0403 7.1101 95.6303 6.9501 95.1303 6.9501C94.8303 6.9501 94.5703 6.9901 94.3603 7.0701C94.1503 7.1501 93.9903 7.26011 93.8603 7.39011C93.7403 7.53011 93.6503 7.69012 93.6003 7.87012C93.5503 8.05012 93.5203 8.24009 93.5203 8.44009C93.5203 8.68009 93.4903 8.9101 93.4403 9.1301C93.3903 9.3501 93.3003 9.55009 93.1703 9.72009C93.0403 9.89009 92.8603 10.0301 92.6403 10.1301C92.4203 10.2301 92.1303 10.2801 91.7803 10.2801C91.2403 10.2801 90.8003 10.1301 90.4703 9.8201C90.1403 9.5101 89.9703 9.1301 89.9703 8.6701C89.9703 8.2301 90.1203 7.8201 90.4103 7.4501C90.7103 7.0801 91.1003 6.7601 91.6103 6.4801C92.1203 6.2101 92.7003 6.00012 93.3603 5.84012C94.0203 5.69012 94.7203 5.61011 95.4603 5.61011C96.3603 5.61011 97.1403 5.6901 97.7903 5.8501C98.4403 6.0101 98.9803 6.2401 99.4003 6.5401C99.8203 6.8401 100.13 7.20012 100.33 7.62012C100.53 8.04012 100.63 8.5201 100.63 9.0401V18.4901H100.65ZM96.8203 11.9701C96.4503 12.1301 96.0803 12.3101 95.7003 12.5201C95.3203 12.7301 94.9803 12.9501 94.6803 13.2001C94.3803 13.4501 94.1303 13.7101 93.9403 13.9901C93.7503 14.2701 93.6603 14.5601 93.6603 14.8601C93.6603 15.1001 93.6903 15.3301 93.7603 15.5401C93.8303 15.7501 93.9103 15.9401 94.0203 16.1101C94.1303 16.2701 94.2503 16.4001 94.3903 16.5001C94.5303 16.6001 94.6803 16.6401 94.8303 16.6401C95.1303 16.6401 95.4503 16.5401 95.7703 16.3501C96.0903 16.1601 96.4503 15.9201 96.8303 15.6301V11.9701H96.8203Z" fill="#20BEC6"/>
<path d="M107.8 18.4901H103.99V5.90015H107.8V6.84015C108.23 6.41015 108.7 6.06013 109.2 5.79013C109.7 5.52013 110.24 5.39014 110.82 5.39014C111.16 5.39014 111.48 5.44012 111.78 5.53012C112.08 5.62012 112.34 5.75015 112.57 5.90015C112.79 6.06015 112.97 6.24012 113.1 6.44012C113.23 6.65012 113.29 6.87013 113.29 7.10013C113.29 7.32013 113.25 7.53014 113.16 7.71014C113.07 7.90014 112.95 8.06012 112.8 8.19012C112.65 8.32012 112.47 8.42014 112.27 8.49014C112.07 8.56014 111.86 8.60013 111.63 8.60013C111.33 8.60013 111.08 8.55013 110.89 8.45013C110.7 8.35013 110.52 8.25014 110.36 8.14014C110.2 8.03014 110.04 7.93014 109.88 7.83014C109.72 7.73014 109.52 7.68015 109.27 7.68015C109.14 7.68015 109.01 7.73014 108.88 7.83014C108.75 7.93014 108.62 8.06012 108.5 8.22012C108.38 8.38012 108.25 8.57012 108.14 8.78012C108.02 8.99012 107.91 9.21015 107.81 9.43015V18.4901H107.8Z" fill="#20BEC6"/>
<path d="M120.42 18.7599C119.52 18.7599 118.68 18.5899 117.89 18.2599C117.11 17.9299 116.42 17.4799 115.83 16.9199C115.24 16.3599 114.78 15.6999 114.44 14.9499C114.1 14.1999 113.94 13.4099 113.94 12.5799C113.94 11.5899 114.1 10.6699 114.41 9.81989C114.72 8.96989 115.16 8.2399 115.74 7.6199C116.31 6.9999 117 6.50988 117.8 6.15988C118.61 5.80988 119.5 5.62988 120.49 5.62988C121.37 5.62988 122.18 5.7699 122.91 6.0499C123.64 6.3299 124.26 6.70989 124.78 7.19989C125.3 7.67989 125.7 8.24988 125.99 8.90988C126.28 9.56988 126.42 10.2699 126.42 11.0099H117.7C117.73 11.7099 117.83 12.3799 118 13.0099C118.17 13.6399 118.4 14.1999 118.7 14.6899C119 15.1799 119.35 15.5599 119.75 15.8399C120.15 16.1299 120.59 16.2699 121.08 16.2699C121.5 16.2699 121.92 16.1999 122.32 16.0499C122.73 15.8999 123.1 15.6999 123.45 15.4599C123.79 15.2099 124.09 14.9199 124.35 14.5799C124.6 14.2399 124.79 13.8899 124.9 13.5099L126.86 13.7999C126.67 14.4799 126.35 15.1199 125.92 15.7199C125.49 16.3199 124.98 16.8499 124.4 17.2999C123.81 17.7499 123.18 18.1099 122.49 18.3599C121.8 18.6099 121.11 18.7599 120.42 18.7599ZM122.04 9.71988C122.01 9.34988 121.93 9.00989 121.81 8.69989C121.68 8.38989 121.51 8.12988 121.31 7.90988C121.11 7.68988 120.87 7.5199 120.61 7.3999C120.35 7.2799 120.06 7.21988 119.76 7.21988C119.52 7.21988 119.29 7.2799 119.06 7.3999C118.83 7.5199 118.63 7.6899 118.44 7.8999C118.25 8.1199 118.09 8.37988 117.96 8.68988C117.83 8.99988 117.75 9.33988 117.71 9.71988H122.04Z" fill="#20BEC6"/>
<path d="M2.05042 32.0998C1.55042 31.8198 1.16042 31.4398 0.870422 30.9398C0.580422 30.4398 0.44043 29.8798 0.44043 29.2598C0.44043 28.6398 0.580422 28.0798 0.870422 27.5898C1.16042 27.0998 1.55042 26.7098 2.05042 26.4298C2.55042 26.1498 3.09042 26.0098 3.68042 26.0098C4.28042 26.0098 4.82043 26.1498 5.32043 26.4298C5.82043 26.7098 6.21043 27.0898 6.50043 27.5898C6.79043 28.0798 6.93042 28.6398 6.93042 29.2598C6.93042 29.8798 6.79043 30.4398 6.50043 30.9398C6.21043 31.4398 5.82043 31.8198 5.32043 32.0998C4.82043 32.3798 4.28042 32.5198 3.68042 32.5198C3.09042 32.5198 2.55042 32.3798 2.05042 32.0998ZM4.81042 31.3198C5.14042 31.1298 5.40041 30.8498 5.58041 30.4998C5.77041 30.1398 5.86041 29.7298 5.86041 29.2598C5.86041 28.7898 5.77041 28.3798 5.58041 28.0298C5.39041 27.6798 5.14042 27.4098 4.81042 27.2198C4.48042 27.0298 4.11042 26.9398 3.68042 26.9398C3.25042 26.9398 2.88042 27.0298 2.55042 27.2198C2.22042 27.4098 1.96043 27.6798 1.78043 28.0298C1.59043 28.3798 1.50043 28.7998 1.50043 29.2598C1.50043 29.7298 1.59043 30.1398 1.78043 30.4998C1.97043 30.8598 2.22042 31.1298 2.55042 31.3198C2.88042 31.5098 3.25042 31.6098 3.68042 31.6098C4.11042 31.6098 4.48042 31.5198 4.81042 31.3198Z" fill="#006CB7"/>
<path d="M8.95016 26.9398V28.8098H11.1501V29.6598H8.95016V31.6098H11.4202V32.4498H7.91016V26.0798H11.4202V26.9298H8.95016V26.9398Z" fill="#006CB7"/>
<path d="M19.3502 26.0998V32.4498H18.3102V28.0998L16.3701 32.4498H15.6501L13.7002 28.0998V32.4498H12.6602V26.0898H13.7902L16.0201 31.0798L18.2401 26.0898H19.3502V26.0998Z" fill="#006CB7"/>
<path d="M26.8801 28.7V29.58H23.1201V28.7H26.8801Z" fill="#006CB7"/>
<path d="M38.9306 26.0999L37.0506 32.4599H35.8706L34.5306 27.6499L33.1106 32.4599L31.9406 32.4698L30.1406 26.0999H31.2506L32.5706 31.2798L34.0006 26.0999H35.1706L36.5006 31.2498L37.8306 26.0999H38.9306Z" fill="#006CB7"/>
<path d="M43.38 27.5799C43.68 27.7399 43.92 27.9899 44.09 28.3099C44.26 28.6299 44.35 29.0199 44.35 29.4799V32.4499H43.32V29.6299C43.32 29.1799 43.21 28.8299 42.98 28.5899C42.75 28.3499 42.45 28.2299 42.06 28.2299C41.67 28.2299 41.36 28.3499 41.13 28.5899C40.9 28.8299 40.79 29.1799 40.79 29.6299V32.4499H39.75V25.6799H40.79V27.9899C40.97 27.7799 41.19 27.6099 41.46 27.4999C41.73 27.3799 42.03 27.3299 42.35 27.3299C42.73 27.3299 43.08 27.4099 43.38 27.5799Z" fill="#006CB7"/>
<path d="M45.69 26.5499C45.56 26.4199 45.5 26.2599 45.5 26.0699C45.5 25.8799 45.56 25.7199 45.69 25.5899C45.82 25.4599 45.98 25.3999 46.17 25.3999C46.35 25.3999 46.51 25.4599 46.64 25.5899C46.77 25.7199 46.83 25.8799 46.83 26.0699C46.83 26.2599 46.77 26.4199 46.64 26.5499C46.51 26.6799 46.36 26.7399 46.17 26.7399C45.97 26.7499 45.82 26.6799 45.69 26.5499ZM46.68 27.4099V32.4499H45.64V27.4099H46.68Z" fill="#006CB7"/>
<path d="M49.2201 28.2599V31.0499C49.2201 31.2399 49.2601 31.3799 49.3501 31.4599C49.4401 31.5399 49.5901 31.5799 49.8001 31.5799H50.4401V32.4499H49.6201C49.1501 32.4499 48.7901 32.3399 48.5401 32.1199C48.2901 31.8999 48.1701 31.5399 48.1701 31.0499V28.2599H47.5801V27.4099H48.1701V26.1599H49.2201V27.4099H50.4501V28.2599H49.2201Z" fill="#006CB7"/>
<path d="M55.9405 30.3198H52.0905C52.1205 30.7198 52.2705 31.0498 52.5405 31.2898C52.8105 31.5298 53.1405 31.6598 53.5305 31.6598C54.0905 31.6598 54.4905 31.4298 54.7205 30.9598H55.8505C55.7005 31.4198 55.4205 31.7998 55.0205 32.0998C54.6205 32.3998 54.1205 32.5398 53.5305 32.5398C53.0505 32.5398 52.6205 32.4298 52.2405 32.2098C51.8605 31.9898 51.5605 31.6898 51.3405 31.2998C51.1205 30.9098 51.0205 30.4498 51.0205 29.9298C51.0205 29.4098 51.1305 28.9598 51.3405 28.5598C51.5505 28.1698 51.8505 27.8598 52.2305 27.6498C52.6105 27.4398 53.0505 27.3298 53.5405 27.3298C54.0205 27.3298 54.4405 27.4298 54.8105 27.6398C55.1805 27.8498 55.4705 28.1398 55.6805 28.5098C55.8905 28.8798 55.9905 29.3198 55.9905 29.7998C55.9805 29.9998 55.9705 30.1698 55.9405 30.3198ZM54.8905 29.4798C54.8805 29.0998 54.7505 28.7898 54.4805 28.5598C54.2105 28.3298 53.8805 28.2098 53.4805 28.2098C53.1205 28.2098 52.8105 28.3198 52.5605 28.5498C52.3005 28.7798 52.1505 29.0898 52.1005 29.4798H54.8905Z" fill="#006CB7"/>
<path d="M60.8303 28.7V29.58H57.0703V28.7H60.8303Z" fill="#006CB7"/>
<path d="M63.3105 25.6799V32.4499H62.2705V25.6799H63.3105Z" fill="#006CB7"/>
<path d="M64.6003 28.5698C64.8103 28.1798 65.1003 27.8798 65.4603 27.6598C65.8203 27.4398 66.2203 27.3298 66.6603 27.3298C67.0603 27.3298 67.4003 27.4098 67.7003 27.5598C68.0003 27.7198 68.2303 27.9098 68.4103 28.1398V27.4098H69.4603V32.4498H68.4103V31.6998C68.2303 31.9398 67.9903 32.1398 67.6903 32.2898C67.3903 32.4498 67.0403 32.5298 66.6503 32.5298C66.2203 32.5298 65.8203 32.4198 65.4603 32.1998C65.1003 31.9798 64.8103 31.6698 64.6003 31.2698C64.3903 30.8698 64.2803 30.4198 64.2803 29.9098C64.2803 29.3998 64.3903 28.9598 64.6003 28.5698ZM68.1903 29.0198C68.0503 28.7598 67.8603 28.5698 67.6303 28.4298C67.4003 28.2998 67.1503 28.2298 66.8803 28.2298C66.6103 28.2298 66.3603 28.2998 66.1303 28.4298C65.9003 28.5598 65.7103 28.7498 65.5703 29.0098C65.4303 29.2598 65.3603 29.5598 65.3603 29.9098C65.3603 30.2598 65.4303 30.5598 65.5703 30.8198C65.7103 31.0798 65.9003 31.2798 66.1403 31.4198C66.3703 31.5598 66.6203 31.6298 66.8903 31.6298C67.1603 31.6298 67.4103 31.5598 67.6403 31.4298C67.8703 31.2998 68.0603 31.0998 68.2003 30.8398C68.3403 30.5798 68.4103 30.2798 68.4103 29.9298C68.4103 29.5798 68.3403 29.2798 68.1903 29.0198Z" fill="#006CB7"/>
<path d="M72.56 27.5599C72.87 27.4099 73.21 27.3299 73.59 27.3299C74.04 27.3299 74.44 27.4399 74.8 27.6499C75.16 27.8599 75.44 28.1699 75.65 28.5599C75.86 28.9499 75.96 29.3999 75.96 29.9099C75.96 30.4199 75.86 30.8699 75.65 31.2699C75.44 31.6699 75.16 31.9799 74.79 32.1999C74.43 32.4199 74.03 32.5299 73.59 32.5299C73.2 32.5299 72.85 32.4499 72.55 32.2999C72.25 32.1499 72.01 31.9499 71.83 31.7099V32.4499H70.79V25.6799H71.83V28.1599C72.01 27.9199 72.25 27.7199 72.56 27.5599ZM74.68 29.0099C74.54 28.7599 74.35 28.5699 74.11 28.4299C73.88 28.2999 73.62 28.2299 73.36 28.2299C73.1 28.2299 72.85 28.2999 72.61 28.4299C72.38 28.5599 72.19 28.7599 72.04 29.0199C71.9 29.2799 71.83 29.5799 71.83 29.9299C71.83 30.2799 71.9 30.5799 72.04 30.8399C72.18 31.0999 72.37 31.2999 72.61 31.4299C72.84 31.5599 73.09 31.6299 73.36 31.6299C73.63 31.6299 73.88 31.5599 74.11 31.4199C74.34 31.2799 74.53 31.0799 74.68 30.8199C74.82 30.5599 74.89 30.2499 74.89 29.9099C74.9 29.5599 74.82 29.2599 74.68 29.0099Z" fill="#006CB7"/>
<path d="M81.5304 30.3198H77.6804C77.7104 30.7198 77.8604 31.0498 78.1304 31.2898C78.4004 31.5298 78.7304 31.6598 79.1204 31.6598C79.6804 31.6598 80.0804 31.4298 80.3104 30.9598H81.4404C81.2904 31.4198 81.0104 31.7998 80.6104 32.0998C80.2104 32.3998 79.7104 32.5398 79.1204 32.5398C78.6404 32.5398 78.2104 32.4298 77.8304 32.2098C77.4504 31.9898 77.1504 31.6898 76.9304 31.2998C76.7104 30.9098 76.6104 30.4498 76.6104 29.9298C76.6104 29.4098 76.7204 28.9598 76.9304 28.5598C77.1404 28.1698 77.4404 27.8598 77.8204 27.6498C78.2004 27.4398 78.6404 27.3298 79.1304 27.3298C79.6104 27.3298 80.0304 27.4298 80.4004 27.6398C80.7704 27.8498 81.0604 28.1398 81.2704 28.5098C81.4804 28.8798 81.5804 29.3198 81.5804 29.7998C81.5604 29.9998 81.5504 30.1698 81.5304 30.3198ZM80.4804 29.4798C80.4704 29.0998 80.3404 28.7898 80.0704 28.5598C79.8004 28.3298 79.4704 28.2098 79.0704 28.2098C78.7104 28.2098 78.4004 28.3198 78.1504 28.5498C77.9004 28.7798 77.7404 29.0898 77.6904 29.4798H80.4804Z" fill="#006CB7"/>
<path d="M83.5908 25.6799V32.4499H82.5508V25.6799H83.5908Z" fill="#006CB7"/>
<path d="M91.1106 28.7V29.58H87.3506V28.7H91.1106Z" fill="#006CB7"/>
<path d="M101.581 26.0998V32.4498H100.541V28.0998L98.6006 32.4498H97.8806L95.9306 28.0998V32.4498H94.8906V26.0898H96.0206L98.2506 31.0798L100.471 26.0898H101.581V26.0998Z" fill="#006CB7"/>
<path d="M102.871 28.5698C103.081 28.1798 103.371 27.8798 103.731 27.6598C104.091 27.4398 104.491 27.3298 104.931 27.3298C105.331 27.3298 105.671 27.4098 105.971 27.5598C106.271 27.7198 106.501 27.9098 106.681 28.1398V27.4098H107.731V32.4498H106.681V31.6998C106.501 31.9398 106.261 32.1398 105.961 32.2898C105.661 32.4498 105.311 32.5298 104.921 32.5298C104.491 32.5298 104.091 32.4198 103.731 32.1998C103.371 31.9798 103.081 31.6698 102.871 31.2698C102.661 30.8698 102.551 30.4198 102.551 29.9098C102.551 29.3998 102.661 28.9598 102.871 28.5698ZM106.471 29.0198C106.331 28.7598 106.141 28.5698 105.911 28.4298C105.681 28.2998 105.431 28.2298 105.161 28.2298C104.891 28.2298 104.641 28.2998 104.411 28.4298C104.181 28.5598 103.991 28.7498 103.851 29.0098C103.711 29.2598 103.641 29.5598 103.641 29.9098C103.641 30.2598 103.711 30.5598 103.851 30.8198C103.991 31.0798 104.181 31.2798 104.421 31.4198C104.651 31.5598 104.901 31.6298 105.171 31.6298C105.441 31.6298 105.691 31.5598 105.921 31.4298C106.151 31.2998 106.341 31.0998 106.481 30.8398C106.621 30.5798 106.691 30.2798 106.691 29.9298C106.691 29.5798 106.611 29.2798 106.471 29.0198Z" fill="#006CB7"/>
<path d="M111.061 29.9399L113.381 32.4599H111.971L110.101 30.2899V32.4499H109.061V25.6799H110.101V29.6099L111.931 27.4099H113.381L111.061 29.9399Z" fill="#006CB7"/>
<path d="M115.131 25.6799V32.4499H114.091V25.6799H115.131Z" fill="#006CB7"/>
<path d="M117.35 32.2098C116.97 31.9898 116.66 31.6898 116.44 31.2998C116.22 30.9098 116.11 30.4498 116.11 29.9298C116.11 29.4198 116.22 28.9598 116.45 28.5698C116.68 28.1698 116.98 27.8698 117.37 27.6598C117.76 27.4498 118.2 27.3398 118.68 27.3398C119.16 27.3398 119.6 27.4498 119.99 27.6598C120.38 27.8698 120.69 28.1798 120.91 28.5698C121.14 28.9698 121.25 29.4198 121.25 29.9298C121.25 30.4398 121.13 30.8998 120.9 31.2898C120.67 31.6898 120.35 31.9898 119.95 32.2098C119.55 32.4298 119.11 32.5398 118.63 32.5398C118.16 32.5398 117.73 32.4298 117.35 32.2098ZM119.39 31.4398C119.62 31.3098 119.82 31.1198 119.96 30.8598C120.11 30.5998 120.18 30.2898 120.18 29.9298C120.18 29.5598 120.11 29.2498 119.97 28.9998C119.83 28.7498 119.64 28.5598 119.41 28.4298C119.18 28.2998 118.93 28.2398 118.66 28.2398C118.39 28.2398 118.14 28.2998 117.91 28.4298C117.68 28.5598 117.5 28.7498 117.37 28.9998C117.24 29.2498 117.17 29.5598 117.17 29.9298C117.17 30.4698 117.31 30.8898 117.59 31.1898C117.87 31.4898 118.22 31.6298 118.64 31.6298C118.91 31.6298 119.16 31.5698 119.39 31.4398Z" fill="#006CB7"/>
<path d="M125.851 27.5798C126.161 27.7398 126.411 27.9898 126.591 28.3098C126.771 28.6298 126.861 29.0198 126.861 29.4798V32.4498H125.831V29.6298C125.831 29.1798 125.721 28.8298 125.491 28.5898C125.261 28.3498 124.961 28.2298 124.571 28.2298C124.181 28.2298 123.871 28.3498 123.641 28.5898C123.411 28.8298 123.301 29.1798 123.301 29.6298V32.4498H122.261V27.4098H123.301V27.9898C123.471 27.7798 123.691 27.6198 123.951 27.4998C124.221 27.3798 124.501 27.3298 124.801 27.3298C125.181 27.3298 125.541 27.4098 125.851 27.5798Z" fill="#006CB7"/>
</g>
<defs>
<clipPath id="clip0_5_2">
<rect width="127" height="33" fill="white"/>
</clipPath>
</defs>
</svg>
