<svg width="48" height="48" viewBox="0 0 48 48" fill="none" xmlns="http://www.w3.org/2000/svg">
<path d="M25.3215 14.2535C26.8292 14.2535 28.3552 13.1201 28.3552 10.9539C28.3552 9.40047 27.2739 7.31279 25.8933 6.201C25.5618 5.93384 25.0812 5.93384 24.7497 6.201C23.3692 7.31279 22.2879 9.40047 22.2879 10.9539C22.2879 13.12 23.8142 14.2535 25.3215 14.2535ZM25.3215 8.10608C26.0279 8.94588 26.5645 10.1256 26.5645 10.9539C26.5645 12.1069 25.895 12.5162 25.3215 12.5162C24.7481 12.5162 24.0784 12.107 24.0784 10.9539C24.0784 10.1255 24.6152 8.94588 25.3215 8.10608ZM35.8958 33.7505C35.8958 32.1899 34.5872 30.9201 32.9787 30.9201C31.3704 30.9201 30.0618 32.1899 30.0618 33.7505C30.0618 35.3112 31.3704 36.5808 32.9787 36.5808C34.5872 36.5808 35.8958 35.3111 35.8958 33.7505ZM31.8523 33.7505C31.8523 33.1478 32.3577 32.6574 32.9787 32.6574C33.5998 32.6574 34.1052 33.1478 34.1052 33.7505C34.1052 34.3532 33.5998 34.8435 32.9787 34.8435C32.3577 34.8435 31.8523 34.3532 31.8523 33.7505ZM19.4074 32.7789C19.4352 33.258 19.0577 33.6683 18.564 33.6953C17.7105 33.7419 16.824 33.7656 15.9293 33.7656C15.0345 33.7656 14.1479 33.7419 13.2943 33.6953C12.8006 33.6683 12.423 33.258 12.4509 32.7789C12.4787 32.3001 12.9025 31.9328 13.3952 31.9607C15.0354 32.0505 16.8229 32.0505 18.463 31.9607C18.9561 31.9347 19.3795 32.3 19.4074 32.7789ZM43.4994 26.7399V36.9507C43.4995 36.9594 43.4999 36.968 43.4999 36.9767C43.4999 38.0582 42.2745 38.7662 39.5265 39.2719C37.3807 39.6669 34.5396 39.8844 31.5264 39.8844C30.399 39.8844 29.2839 39.8538 28.212 39.7931C27.7184 39.7652 27.3416 39.3543 27.3703 38.8754C27.3992 38.3963 27.8208 38.0289 28.3162 38.0588C29.3537 38.1173 30.4338 38.1471 31.5264 38.1471C37.5316 38.1471 41.0443 37.2938 41.709 36.8042V28.4481C41.1314 28.6574 40.4072 28.8402 39.5266 29.0022C37.3809 29.3972 34.5397 29.6147 31.5264 29.6147C30.4003 29.6147 29.2852 29.5839 28.2122 29.5232C27.7185 29.4954 27.3417 29.0844 27.3705 28.6055C27.3991 28.1265 27.8209 27.7611 28.3164 27.7889C29.3548 27.8475 30.435 27.8774 31.5266 27.8774C37.5318 27.8774 41.0445 27.024 41.709 26.5344V25.0953C41.1314 25.3046 40.4073 25.4876 39.5268 25.6494C37.3809 26.0444 34.5398 26.262 31.5266 26.262C30.4005 26.262 29.2854 26.2313 28.2122 26.1705C27.7186 26.1426 27.3419 25.7318 27.3705 25.2528C27.3993 24.7737 27.8211 24.4077 28.3164 24.4362C29.355 24.4949 30.4352 24.5247 31.5266 24.5247C36.8736 24.5247 40.2447 23.8481 41.3886 23.3543C40.2447 22.8603 36.8736 22.1837 31.5266 22.1837C30.434 22.1837 29.354 22.2135 28.3164 22.2722C27.8223 22.3005 27.3993 21.9344 27.3705 21.4554C27.3419 20.9766 27.7186 20.5656 28.2122 20.5379C29.2842 20.4771 30.3993 20.4464 31.5266 20.4464C34.5399 20.4464 37.3811 20.664 39.5268 21.059C42.2747 21.5646 43.5 22.2726 43.5 23.3543C43.5 23.3823 43.4993 23.4102 43.4975 23.438C43.499 23.4579 43.4995 23.4779 43.4995 23.4981V26.6811C43.4999 26.6897 43.5 26.6982 43.5 26.7069C43.4999 26.7179 43.4995 26.7288 43.4994 26.7399ZM15.9293 30.5744C17.5377 30.5744 18.8463 29.3046 18.8463 27.7439C18.8463 26.1833 17.5377 24.9137 15.9293 24.9137C14.3207 24.9137 13.0121 26.1833 13.0121 27.7439C13.0121 29.3046 14.3207 30.5744 15.9293 30.5744ZM15.9293 26.651C16.5504 26.651 17.0557 27.1413 17.0557 27.7439C17.0557 28.3467 16.5504 28.8371 15.9293 28.8371C15.3081 28.8371 14.8027 28.3467 14.8027 27.7439C14.8028 27.1413 15.3081 26.651 15.9293 26.651ZM22.3822 15.284H19.8358V12.8136C19.8358 11.0223 18.5487 9.51726 16.8246 9.12366V7.73834H20.9629C21.4575 7.73834 21.8583 7.34946 21.8583 6.86967C21.8583 6.38988 21.4575 6.00102 20.9629 6.00102H15.9734C15.9443 5.99966 15.9145 5.99966 15.8854 6.00102H13.5504C13.0559 6.00102 12.6551 6.38988 12.6551 6.86967C12.6551 7.34946 13.0559 7.73834 13.5504 7.73834H15.034V9.12357C13.3099 9.51726 12.0228 11.0224 12.0228 12.8136V15.2841H9.47637C7.55948 15.284 6 16.7973 6 18.6572V39.4686C6 40.7168 7.8033 41.2086 9.37441 41.4978C11.134 41.8217 13.4619 42 15.9293 42C18.3966 42 20.7245 41.8217 22.4841 41.4978C24.055 41.2086 25.8585 40.7166 25.8585 39.4686V18.6572C25.8585 16.7973 24.2991 15.284 22.3822 15.284ZM13.8132 12.8136C13.8132 11.6816 14.7625 10.7605 15.9293 10.7605C17.096 10.7605 18.0451 11.6816 18.0451 12.8136V15.2841H13.8132V12.8136ZM24.0679 39.2412C23.4067 39.6348 20.6247 40.2627 15.9293 40.2627C11.2338 40.2627 8.45178 39.6348 7.79056 39.2412V36.4079C8.29341 36.5715 8.84698 36.6914 9.37441 36.7886C11.1339 37.1124 13.4619 37.2908 15.9293 37.2908C18.3966 37.2908 20.7245 37.1124 22.4841 36.7886C23.0117 36.6914 23.5651 36.5715 24.0679 36.4079V39.2412ZM24.0679 34.532C23.4069 34.9256 20.6247 35.5535 15.9293 35.5535C11.2338 35.5535 8.45167 34.9256 7.79056 34.532V22.4961C8.29341 22.6598 8.84689 22.7798 9.37441 22.8768C11.134 23.2007 13.462 23.3792 15.9294 23.3792C18.3966 23.3792 20.7245 23.2007 22.4842 22.8768C23.0117 22.7798 23.5653 22.6598 24.0681 22.4961L24.0679 34.532ZM24.0679 20.6202C23.4067 21.0138 20.6245 21.6417 15.9293 21.6417C11.2338 21.6417 8.45178 21.0138 7.79056 20.6202V18.657C7.79056 17.7551 8.54688 17.0214 9.47637 17.0214H22.3822C23.3118 17.0214 24.0681 17.7552 24.0681 18.657L24.0679 20.6202Z" fill="#1FBDC6"/>
</svg>
