<svg width="48" height="48" viewBox="0 0 48 48" fill="none" xmlns="http://www.w3.org/2000/svg">
<g clip-path="url(#clip0_10_187)">
<path d="M22.215 31.425C21.93 31.425 21.645 31.32 21.42 31.095L19.17 28.845C18.735 28.41 18.735 27.69 19.17 27.255C19.605 26.82 20.325 26.82 20.76 27.255L22.215 28.71L27.42 23.505C27.855 23.07 28.575 23.07 29.01 23.505C29.445 23.94 29.445 24.66 29.01 25.095L23.01 31.095C22.8 31.32 22.5 31.425 22.215 31.425Z" fill="#1FBDC6"/>
<path d="M27 16.125H21C19.56 16.125 16.875 16.125 16.875 12C16.875 7.875 19.56 7.875 21 7.875H27C28.44 7.875 31.125 7.875 31.125 12C31.125 13.44 31.125 16.125 27 16.125ZM21 10.125C19.515 10.125 19.125 10.125 19.125 12C19.125 13.875 19.515 13.875 21 13.875H27C28.875 13.875 28.875 13.485 28.875 12C28.875 10.125 28.485 10.125 27 10.125H21Z" fill="#1FBDC6"/>
<path d="M28.5 40.1249H19.5C11.07 40.1249 9.375 36.2549 9.375 29.9999V20.9999C9.375 14.1599 11.85 11.2349 17.94 10.9199C18.555 10.8899 19.095 11.3549 19.125 11.9849C19.155 12.6149 18.675 13.1249 18.06 13.1549C13.8 13.3949 11.625 14.6699 11.625 20.9999V29.9999C11.625 35.5499 12.72 37.8749 19.5 37.8749H28.5C35.28 37.8749 36.375 35.5499 36.375 29.9999V20.9999C36.375 14.6699 34.2 13.3949 29.94 13.1549C29.325 13.1249 28.845 12.5849 28.875 11.9699C28.905 11.3549 29.43 10.8749 30.06 10.9049C36.15 11.2349 38.625 14.1599 38.625 20.9849V29.9849C38.625 36.2549 36.93 40.1249 28.5 40.1249Z" fill="#1FBDC6"/>
</g>
<defs>
<clipPath id="clip0_10_187">
<rect width="48" height="48" fill="white"/>
</clipPath>
</defs>
</svg>
