<svg width="48" height="48" viewBox="0 0 48 48" fill="none" xmlns="http://www.w3.org/2000/svg">
<g clip-path="url(#clip0_10_197)">
<path d="M24.0002 25.95C23.8052 25.95 23.6102 25.905 23.4302 25.8L10.1851 18.135C9.66013 17.82 9.46513 17.13 9.78013 16.59C10.0951 16.05 10.7851 15.87 11.3251 16.185L24.0002 23.52L36.6002 16.23C37.1402 15.915 37.8302 16.11 38.1452 16.635C38.4602 17.175 38.2652 17.865 37.7402 18.18L24.5852 25.8C24.3902 25.89 24.1952 25.95 24.0002 25.95Z" fill="#1FBDC6"/>
<path d="M24 39.5401C23.385 39.5401 22.875 39.0301 22.875 38.4151V24.8101C22.875 24.1951 23.385 23.6851 24 23.6851C24.615 23.6851 25.125 24.1951 25.125 24.8101V38.4151C25.125 39.0301 24.615 39.5401 24 39.5401Z" fill="#1FBDC6"/>
<path d="M23.9994 40.125C22.6794 40.125 21.3744 39.84 20.3394 39.27L12.3295 34.815C10.1545 33.615 8.45947 30.72 8.45947 28.23V19.755C8.45947 17.265 10.1545 14.385 12.3295 13.17L20.3394 8.73C22.3944 7.59 25.6044 7.59 27.6594 8.73L35.6694 13.185C37.8444 14.385 39.5394 17.28 39.5394 19.77V28.245C39.5394 30.735 37.8444 33.615 35.6694 34.83L27.6594 39.27C26.6244 39.84 25.3194 40.125 23.9994 40.125ZM23.9994 10.125C23.0544 10.125 22.1244 10.32 21.4344 10.695L13.4245 15.15C11.9845 15.945 10.7095 18.105 10.7095 19.755V28.23C10.7095 29.88 11.9845 32.04 13.4245 32.85L21.4344 37.305C22.7994 38.07 25.1994 38.07 26.5644 37.305L34.5744 32.85C36.0144 32.04 37.2894 29.895 37.2894 28.23V19.755C37.2894 18.105 36.0144 15.945 34.5744 15.135L26.5644 10.68C25.8744 10.32 24.9444 10.125 23.9994 10.125Z" fill="#1FBDC6"/>
</g>
<defs>
<clipPath id="clip0_10_197">
<rect width="48" height="48" fill="white"/>
</clipPath>
</defs>
</svg>
