<svg width="42" height="42" viewBox="0 0 42 42" fill="none" xmlns="http://www.w3.org/2000/svg">
<g clip-path="url(#clip0_69_18)">
<path d="M0 0V42H42V0H0ZM33.6 14.7V15.4875C33.6 24.15 27.0375 33.8625 15.225 33.8625C11.55 33.8625 8.1375 32.8125 5.25 30.975H6.825C9.975 30.975 12.6 29.925 14.9625 28.0875C12.075 28.0875 9.7125 26.25 8.925 23.625H10.2375C10.7625 23.625 11.2875 23.625 11.8125 23.3625C8.925 22.8375 6.5625 20.2125 6.5625 17.0625C7.35 17.5875 8.4 17.85 9.45 17.85C7.6125 16.8 6.5625 14.7 6.5625 12.6C6.5625 11.2875 6.825 10.2375 7.35 9.45C10.5 13.3875 15.4875 15.75 20.7375 16.0125C20.7375 15.4875 20.475 14.9625 20.475 14.4375C20.475 10.7625 23.3625 7.875 27.0375 7.875C28.875 7.875 30.45 8.6625 31.7625 9.975C33.3375 9.7125 34.65 9.1875 35.9625 8.4C35.4375 9.975 34.3875 11.2875 33.075 12.075C34.3875 11.8125 35.7 11.55 36.75 11.025C35.9625 12.6 34.9125 13.65 33.6 14.7Z" fill="white"/>
</g>
<defs>
<clipPath id="clip0_69_18">
<rect width="42" height="42" rx="3" fill="white"/>
</clipPath>
</defs>
</svg>
